<?xml version="1.0" encoding="UTF-8" standalone="no"?>
<!-- Generator: Adobe Illustrator 19.0.0, SVG Export Plug-In . SVG Version: 6.00 Build 0)  -->

<svg
   xmlns:dc="http://purl.org/dc/elements/1.1/"
   xmlns:cc="http://creativecommons.org/ns#"
   xmlns:rdf="http://www.w3.org/1999/02/22-rdf-syntax-ns#"
   xmlns:svg="http://www.w3.org/2000/svg"
   xmlns="http://www.w3.org/2000/svg"
   xmlns:sodipodi="http://sodipodi.sourceforge.net/DTD/sodipodi-0.dtd"
   xmlns:inkscape="http://www.inkscape.org/namespaces/inkscape"
   version="1.1"
   id="Layer_1"
   x="0px"
   y="0px"
   viewBox="0 0 504.517 468.99344"
   xml:space="preserve"
   inkscape:version="0.91 r13725"
   sodipodi:docname="coffeeshop.svg"
   inkscape:export-filename="D:\03 Программирование\00 web-reporter\Отчеты\119 Отчет по карте\coffeeshop.png"
   inkscape:export-xdpi="90"
   inkscape:export-ydpi="90"
   width="504.517"
   height="468.99344"><metadata
     id="metadata65"><rdf:RDF><cc:Work
         rdf:about=""><dc:format>image/svg+xml</dc:format><dc:type
           rdf:resource="http://purl.org/dc/dcmitype/StillImage" /><dc:title></dc:title></cc:Work></rdf:RDF></metadata><defs
     id="defs63"><style
       id="style4273"
       type="text/css"><![CDATA[
    .fil0 {fill:#2B2A29;fill-rule:nonzero}
   ]]></style><style
       id="style6"
       type="text/css"><![CDATA[
    .fil2 {fill:#FEFEFE;fill-rule:nonzero}
    .fil0 {fill:#2B2A29;fill-rule:nonzero}
    .fil4 {fill:#DF302B;fill-rule:nonzero}
    .fil3 {fill:#91852E;fill-rule:nonzero}
    .fil1 {fill:#16774D;fill-rule:nonzero}
   ]]></style></defs><sodipodi:namedview
     pagecolor="#ffffff"
     bordercolor="#666666"
     borderopacity="1"
     objecttolerance="10"
     gridtolerance="10"
     guidetolerance="10"
     inkscape:pageopacity="0"
     inkscape:pageshadow="2"
     inkscape:window-width="1920"
     inkscape:window-height="1017"
     id="namedview61"
     showgrid="false"
     inkscape:zoom="1.323065"
     inkscape:cx="231.40725"
     inkscape:cy="186.35906"
     inkscape:window-x="-8"
     inkscape:window-y="-8"
     inkscape:window-maximized="1"
     inkscape:current-layer="Layer_1"
     fit-margin-top="0"
     fit-margin-left="0"
     fit-margin-right="0"
     fit-margin-bottom="0" /><rect
     style="opacity:1;fill:#552200;fill-opacity:1;stroke:none;stroke-width:0.1;stroke-opacity:1"
     id="rect4193"
     width="504.47891"
     height="14.360594"
     x="0"
     y="454.63284" /><path
     style="fill:#e4e7e7"
     d="m 47.262,63.212 409.6,0 0,393.846 -409.6,0 c 0,0 0,-393.846 0,-393.846 z"
     id="path3"
     inkscape:connector-curvature="0" /><path
     style="fill:#cdcfcf"
     d="m 47.262,169.157 409.6,0 0,20.086 -409.6,0 c 0,0 0,-20.086 0,-20.086 z"
     id="path5"
     inkscape:connector-curvature="0" /><path
     style="fill:#e4e7e7"
     d="M 504.123,130.166 463.951,90.781 39.778,90.781 0,130.166 0,156.554 c 0,7.089 5.908,12.997 13.391,12.997 l 477.735,0 c 7.483,0 13.391,-5.908 13.391,-12.997 l -0.394,-26.388 z"
     id="path7"
     inkscape:connector-curvature="0" /><path
     style="fill:#cdcfcf"
     d="m 502.942,128.985 -38.991,-38.203 -424.173,0 -38.596,38.203 501.76,0 z"
     id="path9"
     inkscape:connector-curvature="0" /><path
     style="fill:#ccd0d2"
     d="m 74.043,35.643 355.643,0 27.175,27.569 -409.6,0 c 10e-4,0 26.782,-27.569 26.782,-27.569 z"
     id="path11"
     inkscape:connector-curvature="0" /><path
     style="fill:#2ea9d3"
     d="m 74.831,433.428 90.585,0 0,-263.877 -90.585,0 0,263.877 z m 118.154,23.63 118.154,0 0,-287.507 -118.154,0 0,287.507 z m 145.723,-287.507 0,263.877 90.585,0 0,-263.877 -90.585,0 z m -263.877,263.877 90.585,0 0,-263.877 -90.585,0 0,263.877 z m 118.154,23.63 118.154,0 0,-287.507 -118.154,0 0,287.507 z m 145.723,-287.507 0,263.877 90.585,0 0,-263.877 -90.585,0 z"
     id="path13"
     inkscape:connector-curvature="0" /><path
     style="fill:#3db39e"
     d="m 229.612,232.566 45.292,0 c 7.089,0 12.997,5.908 12.997,13.391 l 0,20.086 c 0,7.483 -5.908,13.391 -12.997,13.391 l -45.292,0 c -7.089,0 -12.997,-5.908 -12.997,-13.391 l 0,-20.086 c 0,-7.483 5.908,-13.391 12.997,-13.391 z"
     id="path15"
     inkscape:connector-curvature="0" /><path
     style="fill:#e4e7e7"
     d="m 274.511,244.382 c 0.394,0 1.182,0.788 1.182,1.575 l 0,20.086 c 0,1.182 -0.788,1.575 -1.182,1.575 l -44.898,0 c -0.394,0 -1.182,-0.788 -1.182,-1.575 l 0,-20.086 c 0,-1.182 0.788,-1.575 1.182,-1.575 l 44.898,0 m 0,-11.816 -44.898,0 c -7.089,0 -12.997,5.908 -12.997,13.391 l 0,20.086 c 0,7.483 5.908,13.391 12.997,13.391 l 45.292,0 c 7.089,0 12.997,-5.908 12.997,-13.391 l 0,-20.086 c -0.394,-7.483 -6.302,-13.391 -13.391,-13.391 z"
     id="path17"
     inkscape:connector-curvature="0" /><path
     style="fill:#2998bd"
     d="m 165.415,334.966 -35.446,0 0,-43.323 -55.138,0 0,141.785 90.585,0 0,-98.462 -0.001,0 z m 27.57,0 47.262,0 0,122.092 -47.262,0 0,-122.092 0,0 z m 145.723,-39.384 90.585,0 0,137.846 -90.585,0 0,-137.846 z m -59.077,66.953 31.508,0 0,94.523 -31.508,0 0,-94.523 z"
     id="path19"
     inkscape:connector-curvature="0" /><path
     style="fill:#3db39e"
     d="m 395.815,410.585 c 6.302,0 12.209,1.969 17.329,5.514 3.545,-21.662 22.449,-37.809 45.292,-37.809 25.206,0 46.08,20.086 46.08,45.292 0,25.206 -20.48,45.292 -46.08,45.292 l -62.228,0 c -16.148,0 -29.538,-12.997 -29.538,-29.145 -0.393,-16.147 12.998,-29.144 29.145,-29.144 z m -287.507,0 c -6.302,0 -12.209,1.969 -17.329,5.514 C 87.434,394.437 68.53,378.29 45.687,378.29 20.48,378.289 0,398.769 0,423.582 c 0,25.206 20.48,45.292 46.08,45.292 l 62.228,0 c 16.148,0 29.538,-12.997 29.538,-29.145 0,-16.147 -13.391,-29.144 -29.538,-29.144 z"
     id="path21"
     inkscape:connector-curvature="0" /><path
     style="fill:#37a18e"
     d="m 108.308,457.058 -62.228,0 C 22.843,457.058 3.545,439.729 0.788,417.673 0,419.643 0,421.612 0,423.582 c 0,25.206 20.48,45.292 46.08,45.292 l 62.228,0 c 16.148,0 29.538,-12.997 29.538,-29.145 0,-1.969 -0.394,-3.938 -0.788,-5.908 -2.756,13.391 -14.572,23.237 -28.75,23.237 z m 349.735,0 -62.228,0 c -14.178,0 -25.994,-9.846 -28.751,-23.237 -0.394,1.969 -0.788,3.938 -0.788,5.908 0,16.148 13.391,29.145 29.538,29.145 l 62.228,0 c 25.206,0 46.08,-20.086 46.08,-45.292 0,-1.969 0,-3.938 -0.394,-5.908 -3.15,22.055 -22.054,39.384 -45.685,39.384 z"
     id="path23"
     inkscape:connector-curvature="0" /><path
     style="fill:#2998bd"
     d="m 338.708,169.551 90.585,0 0,19.298 -90.585,0 0,-19.298 z m -263.877,0 90.585,0 0,19.298 -90.585,0 0,-19.298 z m 118.154,0 118.154,0 0,19.298 -118.154,0 0,-19.298 z"
     id="path25"
     inkscape:connector-curvature="0" /><path
     style="fill:#e2574c"
     d="m 463.951,90.782 -22.843,0 35.446,39.385 0,39.385 14.178,0 c 7.483,0 13.391,-5.908 13.391,-12.997 l 0,-26.388 -0.394,-0.394 c 0,-0.001 -39.778,-38.991 -39.778,-38.991 z m -330.437,38.203 15.754,-38.203 -22.843,0 -20.086,38.203 0,40.566 27.175,0 0,-40.566 z m -82.314,40.566 27.175,0 0,-39.385 27.963,-39.385 -26.387,0 -28.751,39.385 0,39.385 z m 189.046,-39.779 3.938,-38.991 -27.569,0 -3.545,38.597 0,40.172 27.175,0 0.001,-39.778 0,0 z m -51.594,39.385 0,-40.172 8.271,-38.203 -25.6,0 -9.846,38.203 0,40.172 27.175,0 z m 209.133,0.394 0,-40.566 -20.086,-37.809 -22.843,0 15.36,37.809 0,40.566 27.569,0 z m 55.138,0 0,-39.385 -28.751,-39.385 -26.388,0 27.963,39.385 0,39.385 27.176,0 z m -439.532,0 14.178,0 0,-39.385 35.446,-39.385 -23.237,0 L 0,130.166 0,156.16 c 0,7.483 5.908,13.391 13.391,13.391 z m 277.661,0 0,-39.778 -3.545,-38.991 -27.569,0 3.938,38.991 0,39.778 27.176,0 z m 24.419,-40.566 0,40.172 27.175,0 0,-40.172 -9.846,-38.203 -25.6,0 8.271,38.203 z"
     id="path27"
     inkscape:connector-curvature="0" /><path
     style="fill:#cb4e44"
     d="m 377.698,91.175 -22.843,0 15.36,37.809 27.175,0 -19.692,-37.809 z m -90.19,-0.393 -27.569,0 3.938,38.203 27.175,0 -3.544,-38.203 z m 176.443,0 -22.843,0 34.265,38.203 27.569,0 -38.991,-38.203 z m -39.779,0 -26.388,0 26.782,38.203 27.175,0 -27.569,-38.203 z m -91.766,0 -25.206,0 8.271,38.203 27.175,0 -10.24,-38.203 z m -170.929,38.203 27.175,0 8.271,-38.203 -25.6,0 -9.846,38.203 z m -55.139,-38.203 -26.387,0 -27.963,38.203 27.175,0 27.175,-38.203 z m 106.733,38.203 27.175,0 3.938,-38.203 -27.569,0 -3.544,38.203 z m -211.889,0 27.569,0 34.265,-38.203 -23.238,0 -38.596,38.203 z m 105.156,0 27.175,0 15.754,-38.203 -22.843,0 -20.086,38.203 z"
     id="path29"
     inkscape:connector-curvature="0" /><g
     id="g31" /><g
     id="g33" /><g
     id="g35" /><g
     id="g37" /><g
     id="g39" /><g
     id="g41" /><g
     id="g43" /><g
     id="g45" /><g
     id="g47" /><g
     id="g49" /><g
     id="g51" /><g
     id="g53" /><g
     id="g55" /><g
     id="g57" /><g
     id="g59" /><g
     id="g4524"
     transform="matrix(0.30138123,0,0,0.30138123,311.53299,18.715029)"><path
       style="clip-rule:evenodd;fill:#16774d;fill-rule:nonzero;image-rendering:optimizeQuality;shape-rendering:geometricPrecision;text-rendering:geometricPrecision"
       inkscape:connector-curvature="0"
       id="path13-6"
       d="m -413.17218,154.39853 c 0,-119.586612 96.90944,-216.496058 216.49605,-216.496058 119.586616,0 216.496063,96.909446 216.496063,216.496058 0,119.58661 -96.909447,216.49606 -216.496063,216.49606 -119.58661,0 -216.49605,-96.90945 -216.49605,-216.49606 z"
       class="fil1" /><path
       style="clip-rule:evenodd;fill:#2b2a29;fill-rule:nonzero;image-rendering:optimizeQuality;shape-rendering:geometricPrecision;text-rendering:geometricPrecision"
       inkscape:connector-curvature="0"
       id="path15-6"
       d="m -338.86903,154.39853 c 0,-78.519684 63.63779,-142.19291 142.1929,-142.19291 78.55512,0 142.228348,63.673226 142.228348,142.19291 0,78.55512 -63.673228,142.19291 -142.228348,142.19291 -78.55511,0 -142.1929,-63.63779 -142.1929,-142.19291 z"
       class="fil0" /><path
       style="clip-rule:evenodd;fill:#fefefe;fill-rule:nonzero;image-rendering:optimizeQuality;shape-rendering:geometricPrecision;text-rendering:geometricPrecision"
       inkscape:connector-curvature="0"
       id="path17-9"
       d="m -196.67613,286.13868 c -72.63779,0 -131.74015,-59.10236 -131.74015,-131.74015 0,-72.673227 59.10236,-131.775588 131.74015,-131.775588 72.67323,0 131.775592,59.102361 131.775592,131.775588 0,72.63779 -59.102362,131.74015 -131.775592,131.74015 z"
       class="fil2" /><path
       style="clip-rule:evenodd;fill:#91852e;fill-rule:nonzero;image-rendering:optimizeQuality;shape-rendering:geometricPrecision;text-rendering:geometricPrecision"
       inkscape:connector-curvature="0"
       id="path19-6"
       d="m -321.4714,154.39853 c 0,-68.917322 55.87795,-124.795273 124.79527,-124.795273 68.95276,0 124.795278,55.877951 124.795278,124.795273 0,68.91732 -55.842518,124.79527 -124.795278,124.79527 -68.91732,0 -124.79527,-55.87795 -124.79527,-124.79527 z"
       class="fil3" /><path
       style="clip-rule:evenodd;fill:#fefefe;fill-rule:nonzero;image-rendering:optimizeQuality;shape-rendering:geometricPrecision;text-rendering:geometricPrecision"
       inkscape:connector-curvature="0"
       id="path21-4"
       d="m -349.18006,48.489083 c -3.22441,1.346457 -5.06693,2.905512 -6.62598,5.598425 -3.47244,5.846457 -1.62992,12.826772 4.1811,16.228346 5.95276,3.543307 12.93307,1.771654 16.40551,-4.074803 0.81496,-1.452756 1.41732,-3.011811 1.62992,-4.641732 0.14173,-1.27559 0.1063,-2.055118 -0.14173,-3.968504 l 9.49606,-0.531496 c 0.46063,2.976378 0.56693,4.216536 0.28347,6.34252 -0.35433,3.188976 -1.48819,6.519685 -3.18898,9.389763 -6.41338,10.84252 -19.06299,13.818898 -30.15354,7.26378 -11.05512,-6.555118 -14.63386,-19.38189 -8.25591,-30.188976 1.55906,-2.622047 3.54331,-4.925197 5.84646,-6.732283 1.91339,-1.488189 3.22441,-2.161418 6.48425,-3.437008 l 4.03937,8.751968 z"
       class="fil2" /><path
       style="clip-rule:evenodd;fill:#fefefe;fill-rule:nonzero;image-rendering:optimizeQuality;shape-rendering:geometricPrecision;text-rendering:geometricPrecision"
       inkscape:connector-curvature="0"
       id="path23-8"
       d="m -336.28242,13.091446 c 8.96457,-8.8937002 22.32283,-8.7165349 31.3937,0.425197 9.07087,9.177165 9.1063,22.5 0.14173,31.3937 -9.1063,9 -22.35827,8.822835 -31.46456,-0.354331 -9.07087,-9.141732 -9.17717,-22.464566 -0.0709,-31.464566 z m 7.97244,23.598425 0,0 c 4.6063,4.677165 11.76378,5.031496 16.12205,0.708661 4.2874,-4.216535 3.9685,-11.374015 -0.6378,-16.05118 -4.57086,-4.606299 -11.72834,-4.96063 -15.98031,-0.744095 -4.35827,4.322835 -4.11024,11.444882 0.49606,16.086614 z"
       class="fil2" /><polygon
       transform="matrix(0.03543307,0,0,0.03543307,-568.72336,-371.78256)"
       style="clip-rule:evenodd;fill:#fefefe;fill-rule:nonzero;image-rendering:optimizeQuality;shape-rendering:geometricPrecision;text-rendering:geometricPrecision"
       id="polygon25"
       points="7979,11267 7348,10231 7939,9872 8066,10080 7739,10279 7853,10465 8138,10292 8264,10499 7979,10672 8243,11106 "
       class="fil2" /><polygon
       transform="matrix(0.03543307,0,0,0.03543307,-568.72336,-371.78256)"
       style="clip-rule:evenodd;fill:#fefefe;fill-rule:nonzero;image-rendering:optimizeQuality;shape-rendering:geometricPrecision;text-rendering:geometricPrecision"
       id="polygon27"
       points="8678,10864 8250,9729 8896,9485 8982,9713 8625,9848 8703,10053 9014,9935 9100,10162 8788,10279 8967,10754 "
       class="fil2" /><polygon
       transform="matrix(0.03543307,0,0,0.03543307,-568.72336,-371.78256)"
       style="clip-rule:evenodd;fill:#fefefe;fill-rule:nonzero;image-rendering:optimizeQuality;shape-rendering:geometricPrecision;text-rendering:geometricPrecision"
       id="polygon29"
       points="9659,10041 9702,10302 10113,10233 10153,10474 9436,10593 9238,9397 9941,9280 9981,9520 9583,9587 9619,9802 9964,9745 10003,9984 "
       class="fil2" /><polygon
       transform="matrix(0.03543307,0,0,0.03543307,-568.72336,-371.78256)"
       style="clip-rule:evenodd;fill:#fefefe;fill-rule:nonzero;image-rendering:optimizeQuality;shape-rendering:geometricPrecision;text-rendering:geometricPrecision"
       id="polygon31"
       points="10673,9970 10662,10233 11079,10251 11069,10495 10343,10464 10393,9252 11106,9282 11096,9525 10692,9509 10683,9727 11033,9742 11023,9984 "
       class="fil2" /><path
       style="clip-rule:evenodd;fill:#fefefe;fill-rule:nonzero;image-rendering:optimizeQuality;shape-rendering:geometricPrecision;text-rendering:geometricPrecision"
       inkscape:connector-curvature="0"
       id="path33"
       d="m -165.21156,-12.314065 c 2.37402,4.8188977 5.35039,7.7244094 8.85827,8.6811023 3.04724,0.7795275 5.84646,-0.4606299 6.51968,-2.9763779 0.28347,-1.027559 -0.0354,-2.055118 -0.70866,-2.9055117 -0.88582,-0.8858267 -1.87795,-1.5944877 -4.74803,-3.5078737 -3.7559,-2.409449 -4.96063,-3.401575 -6.34252,-5.385827 -1.98425,-2.870079 -2.55118,-6.271653 -1.66535,-9.673228 2.05512,-7.795275 10.09842,-11.763779 18.85039,-9.46063 4.88976,1.275591 8.32677,3.720473 11.16142,7.866142 l -6.23622,6.555118 c -2.19685,-3.295276 -4.3937,-5.244095 -7.01575,-5.917323 -2.51575,-0.673228 -4.74803,0.354331 -5.31496,2.409449 -0.2126,0.885827 -0.0709,1.948819 0.53149,2.799212 0.6378,0.992126 1.38189,1.488189 4.5,3.472441 3.18898,2.090551 4.9252,3.507874 6.34252,5.350394 1.94882,2.728346 2.48032,6.2007871 1.52363,9.9212594 -2.23229,8.4685038 -10.09843,12.614173 -19.34646,10.1692911 -5.84646,-1.523622 -10.06299,-4.8188975 -12.8622,-10.0275588 l 5.95275,-7.3700787 z"
       class="fil2" /><polygon
       transform="matrix(0.03543307,0,0,0.03543307,-568.72336,-371.78256)"
       style="clip-rule:evenodd;fill:#fefefe;fill-rule:nonzero;image-rendering:optimizeQuality;shape-rendering:geometricPrecision;text-rendering:geometricPrecision"
       id="polygon35"
       points="12733,11078 12974,10626 12632,10444 12392,10896 12118,10750 12689,9679 12962,9825 12762,10201 13103,10383 13303,10007 13577,10153 13006,11223 "
       class="fil2" /><path
       style="clip-rule:evenodd;fill:#fefefe;fill-rule:nonzero;image-rendering:optimizeQuality;shape-rendering:geometricPrecision;text-rendering:geometricPrecision"
       inkscape:connector-curvature="0"
       id="path37"
       d="m -58.947782,10.717431 c 9.141732,8.751968 9.318897,22.074802 0.425197,31.3937 -8.964567,9.318897 -22.251968,9.708661 -31.3937,0.992126 -9.248031,-8.858268 -9.389764,-22.145669 -0.46063,-31.464567 8.893701,-9.2834639 22.181102,-9.7795269 31.429133,-0.921259 z m -23.385826,8.610236 0,0 c -4.535433,4.748031 -4.712598,11.905511 -0.283465,16.15748 4.358268,4.145669 11.515748,3.649606 16.051181,-1.098426 4.464567,-4.677165 4.641732,-11.834645 0.318898,-15.980314 -4.429134,-4.251969 -11.551181,-3.826772 -16.086614,0.92126 z"
       class="fil2" /><path
       style="clip-rule:evenodd;fill:#fefefe;fill-rule:nonzero;image-rendering:optimizeQuality;shape-rendering:geometricPrecision;text-rendering:geometricPrecision"
       inkscape:connector-curvature="0"
       id="path39"
       d="m -35.561956,37.965461 7.866142,12.720473 c 1.169291,1.913385 2.125984,3.649606 2.622047,4.960629 2.444882,6.200788 0.177165,12.047244 -6.271653,16.015748 -7.547244,4.677165 -14.314961,2.940945 -19.204724,-4.96063 l -2.940945,-4.748031 -12.897638,7.972441 -5.77559,-9.354331 36.602361,-22.606299 z m -10.417322,19.346457 0,0 1.594488,2.586614 c 1.877953,3.047244 4.712598,3.862204 7.511811,2.161417 2.728346,-1.700787 3.153543,-4.358268 1.240157,-7.440945 l -1.665354,-2.692913 -8.681102,5.385827 z"
       class="fil2" /><path
       style="clip-rule:evenodd;fill:#fefefe;fill-rule:nonzero;image-rendering:optimizeQuality;shape-rendering:geometricPrecision;text-rendering:geometricPrecision"
       inkscape:connector-curvature="0"
       id="path41"
       d="m -303.86116,284.89853 c -0.5315,-3.43701 -1.62992,-5.52756 -3.86221,-7.68898 -4.85433,-4.67717 -11.97637,-4.5 -16.61811,0.3189 -4.78346,4.96063 -4.67716,12.08267 0.17717,16.79527 1.20472,1.13386 2.58661,2.09055 4.11024,2.62205 1.20472,0.46063 1.98425,0.60236 3.8622,0.77953 l -1.66535,9.3189 c -2.97638,-0.24804 -4.21654,-0.4252 -6.16536,-1.1693 -3.01181,-1.09842 -5.98819,-2.97637 -8.3622,-5.24409 -9,-8.6811 -8.96457,-21.57874 -0.1063,-30.75591 8.85827,-9.21259 22.0748,-9.70866 31.03937,-1.09842 2.16141,2.09055 3.93307,4.53543 5.13779,7.19291 1.02756,2.19685 1.38189,3.61418 1.84252,7.05118 l -9.38976,1.87796 z"
       class="fil2" /><path
       style="clip-rule:evenodd;fill:#fefefe;fill-rule:nonzero;image-rendering:optimizeQuality;shape-rendering:geometricPrecision;text-rendering:geometricPrecision"
       inkscape:connector-curvature="0"
       id="path43"
       d="m -272.82179,289.39853 c 10.91338,6.16535 14.31496,18.99212 8.0433,30.11811 -6.30708,11.16141 -19.02755,14.77559 -29.94094,8.61023 -11.09055,-6.27165 -14.49213,-18.99212 -8.14961,-30.18897 6.27166,-11.12599 18.9567,-14.81103 30.04725,-8.53937 z m -20.44488,13.99606 0,0 c -3.18898,5.66929 -1.62993,12.61417 3.68504,15.59055 5.20866,2.97638 11.97637,0.74409 15.16535,-4.9252 3.18898,-5.59842 1.59449,-12.5433 -3.61417,-15.48425 -5.27953,-3.01181 -12.01181,-0.85039 -15.23622,4.8189 z"
       class="fil2" /><path
       style="clip-rule:evenodd;fill:#fefefe;fill-rule:nonzero;image-rendering:optimizeQuality;shape-rendering:geometricPrecision;text-rendering:geometricPrecision"
       inkscape:connector-curvature="0"
       id="path45"
       d="m -249.4714,302.36703 10.27559,2.26772 2.79921,22.67716 c 0.17717,2.05512 -0.0354,5.38583 -0.63779,9.07087 1.06299,-3.72048 2.12598,-6.73229 3.18897,-8.50394 l 12.08268,-19.41732 10.31102,2.30315 -4.14566,42.76771 -10.38189,-2.26771 2.30315,-19.38189 c 0.0354,-1.34646 0.28346,-2.72835 0.63779,-4.2874 0.35433,-1.62993 0.6378,-2.72835 1.20473,-4.7126 -1.09843,3.40157 -2.33859,6.27165 -3.64961,8.29134 l -11.05512,17.75196 -6.30709,-1.41732 -2.58661,-20.72834 c -0.1063,-0.81497 -0.14173,-2.33859 -0.1063,-5.2441 0,-2.12598 -0.0354,-2.37402 0,-3.89764 -0.0709,0.92126 -0.1063,1.55906 -0.1063,1.98425 -0.2126,1.73623 -0.60236,4.07481 -0.95669,5.63386 -0.1063,0.56693 -0.24803,1.09843 -0.38976,1.48819 l -6.44882,18.46063 -10.31103,-2.30315 14.27953,-40.53543 z"
       class="fil2" /><path
       style="clip-rule:evenodd;fill:#fefefe;fill-rule:nonzero;image-rendering:optimizeQuality;shape-rendering:geometricPrecision;text-rendering:geometricPrecision"
       inkscape:connector-curvature="0"
       id="path47"
       d="m -203.26668,310.76467 14.84646,-0.7441 c 2.23228,-0.1063 4.1811,-0.0709 5.56299,0.1063 6.55512,0.8504 10.52362,5.63386 10.91339,13.14567 0.42519,8.82284 -4.32284,13.85433 -13.53543,14.27953 l -5.563,0.28346 0.70866,15.02362 -10.84251,0.49607 -2.09056,-42.59055 z m 11.79922,18.31889 0,0 3.01181,-0.14173 c 3.5433,-0.17716 5.63386,-2.23228 5.45669,-5.49212 -0.14173,-3.18898 -2.23228,-4.8189 -5.84646,-4.64174 l -3.11811,0.17717 0.49607,10.09842 z"
       class="fil2" /><path
       style="clip-rule:evenodd;fill:#fefefe;fill-rule:nonzero;image-rendering:optimizeQuality;shape-rendering:geometricPrecision;text-rendering:geometricPrecision"
       inkscape:connector-curvature="0"
       id="path49"
       d="m -162.30605,306.54813 10.91339,-2.87008 25.40551,37.41733 -10.87795,2.87007 -4.42914,-7.05118 -13.5,3.57874 -0.38976,8.29134 -10.80709,2.87008 3.68504,-45.1063 z m 7.79528,25.65354 0,0 8.92913,-2.33858 -6.02362,-9.56693 c -0.38976,-0.56693 -0.74409,-1.24015 -1.13386,-2.05511 -1.02756,-1.94882 -1.45275,-3.11811 -2.26771,-6.02363 0.70866,2.97638 0.99212,4.18111 1.06299,6.30709 0.0354,0.92126 0.0354,1.84252 0,2.40945 l -0.56693,11.26771 z"
       class="fil2" /><path
       style="clip-rule:evenodd;fill:#fefefe;fill-rule:nonzero;image-rendering:optimizeQuality;shape-rendering:geometricPrecision;text-rendering:geometricPrecision"
       inkscape:connector-curvature="0"
       id="path51"
       d="m -136.90054,299.70955 9.56693,-5.42126 23.56299,11.40945 c 0.9567,0.49606 3.826776,2.79921 7.192918,5.63386 -2.799213,-3.15355 -5.066928,-5.95276 -5.811028,-7.29922 l -10.24015,-18.07086 9.49606,-5.3504 20.976377,37.13386 -9.318897,5.2441 -24.27165,-11.65748 c -0.81496,-0.35433 -1.94882,-1.31103 -4.14567,-3.04725 -1.55906,-1.20472 -1.84252,-1.45275 -2.97638,-2.51575 l 0.85039,1.063 1.73622,1.94882 c 2.09056,2.51574 2.97638,3.47244 3.25985,4.00393 l 10.55905,18.70866 -9.46063,5.3504 -20.97638,-37.13386 z"
       class="fil2" /><path
       style="clip-rule:evenodd;fill:#fefefe;fill-rule:nonzero;image-rendering:optimizeQuality;shape-rendering:geometricPrecision;text-rendering:geometricPrecision"
       inkscape:connector-curvature="0"
       id="path53"
       d="m -92.077702,270.12294 11.267716,4.21653 c 1.417323,0.49606 3.401575,1.77165 5.598425,3.75591 -1.913386,-2.19685 -3.224409,-4.21654 -3.649606,-5.66929 l -4.03937,-11.30315 8.681102,-8.53937 7.370078,26.3622 13.074803,13.35827 -7.688976,7.54724 -13.110236,-13.32283 -26.220474,-7.86614 8.716538,-8.53937 z"
       class="fil2" /><path
       style="clip-rule:evenodd;fill:#df302b;fill-rule:nonzero;image-rendering:optimizeQuality;shape-rendering:geometricPrecision;text-rendering:geometricPrecision"
       inkscape:connector-curvature="0"
       id="path55"
       d="m -214.42809,198.3001 c -21.96851,-18.60236 -42.09449,-7.47637 -42.09449,-7.47637 -5.0315,3.68503 -3.89764,6.90944 0,10.38188 l 43.61811,38.48032 c 3.89764,3.47244 8.6811,3.9685 11.05512,-1.34646 0,0 9.49606,-21.36614 -12.57874,-40.03937 z"
       class="fil4" /><path
       style="clip-rule:evenodd;fill:#fefefe;fill-rule:nonzero;image-rendering:optimizeQuality;shape-rendering:geometricPrecision;text-rendering:geometricPrecision"
       inkscape:connector-curvature="0"
       id="path57"
       d="m -198.30605,136.78829 c -7.33464,-6.59055 -14.20866,-12.79133 -18.77952,-19.27559 -12.50788,-17.716531 -11.30315,-38.799208 3.5433,-62.645664 0.2126,-0.354331 0.0354,-0.92126 -0.24803,-1.204725 -0.2126,-0.212598 -0.53149,-0.389763 -0.85039,-0.389763 -0.1063,0 -0.24803,0.03543 -0.35433,0.106299 -19.62992,11.303149 -66.61417,49.216533 -48.33071,88.051183 6.48425,13.78346 22.25197,21.18897 38.97638,29.05511 25.83071,12.15355 52.58267,24.73229 42.09448,62.7874 -0.14173,0.46063 0.17717,0.92126 0.56693,1.09843 0.14174,0.0709 0.28347,0.1063 0.46063,0.1063 0.28347,0 0.60237,-0.14173 0.7441,-0.35433 34.54724,-50.20866 5.52756,-76.32284 -17.82284,-97.33465 z"
       class="fil2" /><path
       style="clip-rule:evenodd;fill:#fefefe;fill-rule:nonzero;image-rendering:optimizeQuality;shape-rendering:geometricPrecision;text-rendering:geometricPrecision"
       inkscape:connector-curvature="0"
       id="path59"
       d="m -144.94384,110.17806 c -1.41733,-0.92126 -3.01181,-1.91339 -4.8189,-3.01181 -15.69685,-9.637798 -41.95276,-25.795278 -34.75984,-61.122049 0.0709,-0.425196 -0.24803,-0.885826 -0.6378,-1.062992 -0.14173,-0.03543 -0.28346,-0.07087 -0.42519,-0.07087 -0.28347,0 -0.6378,0.141732 -0.77953,0.389764 -32.27953,50.350392 -7.93701,73.240157 15.66142,95.350397 14.20866,13.35827 27.67322,25.93701 28.20472,44.1496 0.49606,16.54725 -10.09843,36.03544 -32.38583,59.63386 -0.28346,0.28346 -0.24803,0.88583 0,1.20472 0.2126,0.28347 0.56693,0.49607 0.88583,0.49607 0.1063,0 0.2126,0 0.28346,-0.0709 46.063,-20.79921 70.44095,-44.32677 72.46063,-69.87401 2.62205,-32.91732 -32.77559,-58.85433 -43.68897,-66.01181 z"
       class="fil2" /><path
       style="clip-rule:evenodd;fill:#2b2a29;fill-rule:nonzero;image-rendering:optimizeQuality;shape-rendering:geometricPrecision;text-rendering:geometricPrecision"
       inkscape:connector-curvature="0"
       id="path61"
       d="m -216.41234,244.1505 -43.61811,-38.51575 c -3.89764,-3.47244 -7.90158,-4.96063 -10.94882,0.74409 0,0 -10.31103,19.73622 10.80708,39.18898 21.25985,19.55905 43.08662,9.1063 43.08662,9.1063 5.77559,-2.97638 4.57086,-7.08662 0.67323,-10.52362 z"
       class="fil0" /></g></svg>