<?xml version="1.0" encoding="UTF-8" standalone="no"?>
<!-- Creator: CorelDRAW X8 -->

<svg
   xmlns:dc="http://purl.org/dc/elements/1.1/"
   xmlns:cc="http://creativecommons.org/ns#"
   xmlns:rdf="http://www.w3.org/1999/02/22-rdf-syntax-ns#"
   xmlns:svg="http://www.w3.org/2000/svg"
   xmlns="http://www.w3.org/2000/svg"
   xmlns:sodipodi="http://sodipodi.sourceforge.net/DTD/sodipodi-0.dtd"
   xmlns:inkscape="http://www.inkscape.org/namespaces/inkscape"
   xml:space="preserve"
   width="247.00391"
   height="220.92892"
   version="1.1"
   style="clip-rule:evenodd;fill-rule:evenodd;image-rendering:optimizeQuality;shape-rendering:geometricPrecision;text-rendering:geometricPrecision"
   viewBox="0 0 6970.9991 6235.1053"
   id="svg2"
   inkscape:version="0.91 r13725"
   sodipodi:docname="money.svg"
   inkscape:export-filename="D:\Клипарт\Иконки\Деньги\Доллары.png"
   inkscape:export-xdpi="90"
   inkscape:export-ydpi="90"><metadata
     id="metadata38"><rdf:RDF><cc:Work
         rdf:about=""><dc:format>image/svg+xml</dc:format><dc:type
           rdf:resource="http://purl.org/dc/dcmitype/StillImage" /><dc:title></dc:title></cc:Work></rdf:RDF></metadata><sodipodi:namedview
     pagecolor="#ffffff"
     bordercolor="#666666"
     borderopacity="1"
     objecttolerance="10"
     gridtolerance="10"
     guidetolerance="10"
     inkscape:pageopacity="0"
     inkscape:pageshadow="2"
     inkscape:window-width="1920"
     inkscape:window-height="1017"
     id="namedview36"
     showgrid="false"
     fit-margin-top="0"
     fit-margin-left="0"
     fit-margin-right="0"
     fit-margin-bottom="0"
     units="px"
     inkscape:zoom="1.2685914"
     inkscape:cx="-106.58815"
     inkscape:cy="109.98286"
     inkscape:window-x="-8"
     inkscape:window-y="-8"
     inkscape:window-maximized="1"
     inkscape:current-layer="svg2" /><defs
     id="defs4"><style
       type="text/css"
       id="style6"><![CDATA[
    .fil0 {fill:#1B5E20}
    .fil2 {fill:#388E3C}
    .fil1 {fill:#81C784}
    .fil3 {fill:#A5D6A7}
   ]]></style></defs><g
     id="_603340571328"
     transform="translate(-7070.0002,-12203)"><polygon
       style="fill:#1b5e20"
       id="polygon11"
       points="8269,17497 7070,14382 12731,12203 13930,15318 "
       class="fil0" /><path
       style="fill:#81c784"
       inkscape:connector-curvature="0"
       id="path13"
       d="m 8055,14272 3872,-1490 c 143,372 576,555 962,407 l 498,1291 c -386,149 -585,575 -442,948 l -3872,1490 c -143,-372 -576,-555 -962,-407 l -497,-1291 c 386,-149 584,-575 441,-948 z"
       class="fil1" /><g
       id="g15"><path
         style="fill:#1b5e20"
         inkscape:connector-curvature="0"
         id="path17"
         d="m 10169,13990 c 595,-229 1226,-30 1408,445 183,475 -151,1046 -746,1275 -595,229 -1226,30 -1408,-445 -183,-475 151,-1046 746,-1275 z"
         class="fil0" /><path
         style="fill:#1b5e20"
         inkscape:connector-curvature="0"
         id="path19"
         d="m 8645,15186 c 182,-70 387,20 457,202 70,182 -21,387 -203,457 -182,70 -386,-21 -456,-203 -70,-182 20,-386 202,-456 z"
         class="fil0" /><path
         style="fill:#1b5e20"
         inkscape:connector-curvature="0"
         id="path21"
         d="m 12101,13855 c 182,-70 386,21 456,203 70,182 -20,386 -202,456 -182,70 -387,-21 -457,-202 -70,-182 21,-387 203,-457 z"
         class="fil0" /></g></g><g
     id="_603340570304"
     transform="translate(-6562.0006,-10283.894)"><polygon
       style="fill:#388e3c"
       id="polygon24"
       points="7467,13181 13533,13181 13533,16519 7467,16519 "
       class="fil2" /><path
       style="fill:#a5d6a7"
       inkscape:connector-curvature="0"
       id="path26"
       d="m 8425,13432 4150,0 c 0,399 338,726 752,726 l 0,1384 c -414,0 -752,326 -752,726 l -4150,0 c 0,-400 -338,-726 -752,-726 l 0,-1384 c 414,0 752,-327 752,-726 z"
       class="fil3" /><g
       id="g28"><path
         style="fill:#388e3c"
         inkscape:connector-curvature="0"
         id="path30"
         d="m 10500,13929 c 638,0 1154,412 1154,921 0,509 -516,921 -1154,921 -638,0 -1155,-412 -1155,-921 0,-509 517,-921 1155,-921 z"
         class="fil2" /><path
         style="fill:#388e3c"
         inkscape:connector-curvature="0"
         id="path32"
         d="m 8649,14497 c 195,0 353,158 353,353 0,195 -158,353 -353,353 -195,0 -353,-158 -353,-353 0,-195 158,-353 353,-353 z"
         class="fil2" /><path
         style="fill:#388e3c"
         inkscape:connector-curvature="0"
         id="path34"
         d="m 12351,14497 c 195,0 353,158 353,353 0,195 -158,353 -353,353 -195,0 -353,-158 -353,-353 0,-195 158,-353 353,-353 z"
         class="fil2" /></g></g></svg>