<?xml version="1.0" encoding="iso-8859-1"?>
<!-- Generator: Adobe Illustrator 19.0.0, SVG Export Plug-In . SVG Version: 6.00 Build 0)  -->
<svg version="1.1" id="Capa_1" xmlns="http://www.w3.org/2000/svg" xmlns:xlink="http://www.w3.org/1999/xlink" x="0px" y="0px"
	 viewBox="0 0 512 512" style="enable-background:new 0 0 512 512;" xml:space="preserve">
<polygon style="fill:#EF5350;" points="57.063,20.99 57.063,512 151.062,512 262.945,449.898 360.938,512 454.937,512 
	454.937,20.99 "/>
<polygon style="fill:#E6E6E6;" points="90.226,77.33 90.226,125.925 124.828,141.667 159.429,125.925 159.429,77.33 "/>
<rect x="90.223" y="125.929" style="fill:#D4BFB8;" width="69.208" height="31.483"/>
<polygon style="fill:#E6E6E6;" points="90.226,186.415 90.226,235.01 124.828,250.752 159.429,235.01 159.429,186.415 "/>
<rect x="90.223" y="235.015" style="fill:#D4BFB8;" width="69.208" height="31.483"/>
<g style="opacity:0.1;">
	<rect x="57.062" y="20.99" width="51.509" height="491.005"/>
</g>
<polygon style="fill:#D4BFB8;" points="151.062,323.959 151.062,512 189.574,512 259.512,475.309 322.426,512 360.938,512 
	360.938,323.959 "/>
<rect x="189.574" y="404.768" style="fill:#6D4C41;" width="132.852" height="107.232"/>
<path style="fill:#FFFFFF;" d="M229.765,350.22c0,14.488,11.745,26.235,26.235,26.235c14.49,0,26.235-11.745,26.235-26.235H229.765z
	"/>
<path style="fill:#66BB6A;" d="M177.296,350.22c0,14.488,11.745,26.235,26.235,26.235c14.488,0,26.235-11.745,26.235-26.235H177.296
	z"/>
<path style="fill:#FFFFFF;" d="M124.827,350.22c0,14.488,11.745,26.235,26.235,26.235s26.235-11.745,26.235-26.235H124.827z"/>
<rect x="124.827" y="304.264" style="fill:#E6E6E6;" width="52.469" height="45.96"/>
<rect x="177.294" y="304.264" style="fill:#43A047;" width="52.469" height="45.96"/>
<path style="fill:#66BB6A;" d="M334.704,350.22c0,14.488-11.745,26.235-26.235,26.235s-26.235-11.745-26.235-26.235H334.704z"/>
<g>
	<path style="fill:#FFFFFF;" d="M387.173,350.22c0,14.488-11.745,26.235-26.235,26.235s-26.235-11.745-26.235-26.235H387.173z"/>
	<path style="fill:#FFFFFF;" d="M256,376.455c14.488,0,26.235-11.745,26.235-26.235h-52.469
		C229.765,364.71,241.512,376.455,256,376.455z"/>
	<path style="fill:#FFFFFF;" d="M203.531,376.455c14.488,0,26.235-11.745,26.235-26.235h-52.469
		C177.296,364.71,189.042,376.455,203.531,376.455z"/>
	<path style="fill:#FFFFFF;" d="M151.062,376.455c14.488,0,26.235-11.745,26.235-26.235h-52.469
		C124.828,364.71,136.573,376.455,151.062,376.455z"/>
	<path style="fill:#FFFFFF;" d="M308.469,376.455c14.488,0,26.235-11.745,26.235-26.235h-52.469
		C282.235,364.71,293.981,376.455,308.469,376.455z"/>
	<path style="fill:#FFFFFF;" d="M334.704,350.22c0,14.488,11.745,26.235,26.235,26.235s26.235-11.745,26.235-26.235H334.704z"/>
</g>
<rect x="334.706" y="304.264" style="fill:#E6E6E6;" width="52.469" height="45.96"/>
<rect x="282.239" y="304.264" style="fill:#43A047;" width="52.469" height="45.96"/>
<g>
	<rect x="229.761" y="304.264" style="fill:#E6E6E6;" width="52.469" height="45.96"/>
	<polygon style="fill:#E6E6E6;" points="221.398,77.33 221.398,125.925 256,141.667 290.602,125.925 290.602,77.33 	"/>
	<polygon style="fill:#E6E6E6;" points="352.571,77.33 352.571,125.925 387.173,141.667 421.775,125.925 421.775,77.33 	"/>
</g>
<g>
	<rect x="221.396" y="125.929" style="fill:#D4BFB8;" width="69.208" height="31.483"/>
	<rect x="352.569" y="125.929" style="fill:#D4BFB8;" width="69.208" height="31.483"/>
</g>
<g>
	<polygon style="fill:#E6E6E6;" points="221.398,186.415 221.398,235.01 221.398,235.01 256,250.752 290.602,235.01 290.602,235.01 
		290.602,186.415 	"/>
	<polygon style="fill:#E6E6E6;" points="352.571,186.415 352.571,235.01 352.571,235.01 387.173,250.752 421.774,235.01 
		421.775,235.01 421.775,186.415 	"/>
</g>
<g>
	<rect x="221.396" y="235.015" style="fill:#D4BFB8;" width="69.208" height="31.483"/>
	<rect x="352.569" y="235.015" style="fill:#D4BFB8;" width="69.208" height="31.483"/>
	<rect x="32.286" style="fill:#D4BFB8;" width="447.428" height="41.979"/>
</g>
<rect x="32.286" style="opacity:0.1;enable-background:new    ;" width="61.811" height="41.979"/>
<g>
</g>
<g>
</g>
<g>
</g>
<g>
</g>
<g>
</g>
<g>
</g>
<g>
</g>
<g>
</g>
<g>
</g>
<g>
</g>
<g>
</g>
<g>
</g>
<g>
</g>
<g>
</g>
<g>
</g>
</svg>
