<?xml version="1.0" encoding="UTF-8" standalone="no"?>
<!-- Generator: Adobe Illustrator 19.0.0, SVG Export Plug-In . SVG Version: 6.00 Build 0)  -->

<svg
   xmlns:dc="http://purl.org/dc/elements/1.1/"
   xmlns:cc="http://creativecommons.org/ns#"
   xmlns:rdf="http://www.w3.org/1999/02/22-rdf-syntax-ns#"
   xmlns:svg="http://www.w3.org/2000/svg"
   xmlns="http://www.w3.org/2000/svg"
   xmlns:sodipodi="http://sodipodi.sourceforge.net/DTD/sodipodi-0.dtd"
   xmlns:inkscape="http://www.inkscape.org/namespaces/inkscape"
   version="1.1"
   id="Capa_1"
   x="0px"
   y="0px"
   viewBox="0 0 58 42"
   xml:space="preserve"
   inkscape:version="0.91 r13725"
   sodipodi:docname="credit-card.svg"
   width="58"
   height="42"><metadata
     id="metadata49"><rdf:RDF><cc:Work
         rdf:about=""><dc:format>image/svg+xml</dc:format><dc:type
           rdf:resource="http://purl.org/dc/dcmitype/StillImage" /><dc:title /></cc:Work></rdf:RDF></metadata><defs
     id="defs47" /><sodipodi:namedview
     pagecolor="#ffffff"
     bordercolor="#666666"
     borderopacity="1"
     objecttolerance="10"
     gridtolerance="10"
     guidetolerance="10"
     inkscape:pageopacity="0"
     inkscape:pageshadow="2"
     inkscape:window-width="1920"
     inkscape:window-height="1017"
     id="namedview45"
     showgrid="false"
     fit-margin-top="0"
     fit-margin-left="0"
     fit-margin-right="0"
     fit-margin-bottom="0"
     inkscape:zoom="4.0689655"
     inkscape:cx="-15.237288"
     inkscape:cy="21"
     inkscape:window-x="-8"
     inkscape:window-y="-8"
     inkscape:window-maximized="1"
     inkscape:current-layer="Capa_1" /><g
     id="XMLID_69_"
     transform="matrix(0.69572236,0,0,0.69572236,8.8240516,0.82405156)"><path
       id="XMLID_115_"
       style="fill:#f0c41b"
       d="M 54.783,50 3.217,50 C 1.44,50 0,48.56 0,46.783 L 0,11.217 C 0,9.44 1.44,8 3.217,8 L 54.783,8 C 56.56,8 58,9.44 58,11.217 l 0,35.566 C 58,48.56 56.56,50 54.783,50"
       inkscape:connector-curvature="0" /><rect
       id="XMLID_114_"
       y="13"
       style="fill:#806f5e"
       width="58"
       height="8"
       x="0" /><path
       id="XMLID_113_"
       style="fill:#f9eab0"
       d="M 15,28 6,28 C 5.448,28 5,27.552 5,27 5,26.448 5.448,26 6,26 l 9,0 c 0.552,0 1,0.448 1,1 0,0.552 -0.448,1 -1,1"
       inkscape:connector-curvature="0" /><path
       id="XMLID_112_"
       style="fill:#f9eab0"
       d="m 28,28 -9,0 c -0.552,0 -1,-0.448 -1,-1 0,-0.552 0.448,-1 1,-1 l 9,0 c 0.552,0 1,0.448 1,1 0,0.552 -0.448,1 -1,1"
       inkscape:connector-curvature="0" /><path
       id="XMLID_111_"
       style="fill:#f9eab0"
       d="M 7,33 6,33 C 5.448,33 5,32.552 5,32 5,31.448 5.448,31 6,31 l 1,0 c 0.552,0 1,0.448 1,1 0,0.552 -0.448,1 -1,1"
       inkscape:connector-curvature="0" /><path
       id="XMLID_110_"
       style="fill:#f9eab0"
       d="m 13,33 -2,0 c -0.552,0 -1,-0.448 -1,-1 0,-0.552 0.448,-1 1,-1 l 2,0 c 0.552,0 1,0.448 1,1 0,0.552 -0.448,1 -1,1"
       inkscape:connector-curvature="0" /><path
       id="XMLID_109_"
       style="fill:#f9eab0"
       d="m 18,33 -1,0 c -0.552,0 -1,-0.448 -1,-1 0,-0.552 0.448,-1 1,-1 l 1,0 c 0.552,0 1,0.448 1,1 0,0.552 -0.448,1 -1,1"
       inkscape:connector-curvature="0" /><path
       id="XMLID_108_"
       style="fill:#f9eab0"
       d="m 24,33 -2,0 c -0.552,0 -1,-0.448 -1,-1 0,-0.552 0.448,-1 1,-1 l 2,0 c 0.552,0 1,0.448 1,1 0,0.552 -0.448,1 -1,1"
       inkscape:connector-curvature="0" /><path
       id="XMLID_107_"
       style="fill:#f9eab0"
       d="M 28,33 C 27.74,33 27.48,32.89 27.29,32.71 27.11,32.52 27,32.27 27,32 c 0,-0.26 0.11,-0.52 0.29,-0.71 0.37,-0.37 1.04,-0.37 1.42,0 0.18,0.19 0.29,0.45 0.29,0.71 0,0.26 -0.11,0.52 -0.29,0.71 C 28.52,32.89 28.26,33 28,33"
       inkscape:connector-curvature="0" /><path
       id="XMLID_106_"
       style="fill:#db2215"
       d="m 46,39 c 0,3.314 -2.686,6 -6,6 -3.314,0 -6,-2.686 -6,-6 0,-3.314 2.686,-6 6,-6 3.314,0 6,2.686 6,6"
       inkscape:connector-curvature="0" /><path
       id="XMLID_105_"
       style="fill:#245ea9"
       d="m 53,39 c 0,3.314 -2.686,6 -6,6 -3.314,0 -6,-2.686 -6,-6 0,-3.314 2.686,-6 6,-6 3.314,0 6,2.686 6,6"
       inkscape:connector-curvature="0" /></g><g
     id="g15"
     transform="translate(0,-8)" /><g
     id="g17"
     transform="translate(0,-8)" /><g
     id="g19"
     transform="translate(0,-8)" /><g
     id="g21"
     transform="translate(0,-8)" /><g
     id="g23"
     transform="translate(0,-8)" /><g
     id="g25"
     transform="translate(0,-8)" /><g
     id="g27"
     transform="translate(0,-8)" /><g
     id="g29"
     transform="translate(0,-8)" /><g
     id="g31"
     transform="translate(0,-8)" /><g
     id="g33"
     transform="translate(0,-8)" /><g
     id="g35"
     transform="translate(0,-8)" /><g
     id="g37"
     transform="translate(0,-8)" /><g
     id="g39"
     transform="translate(0,-8)" /><g
     id="g41"
     transform="translate(0,-8)" /><g
     id="g43"
     transform="translate(0,-8)" /></svg>