<?xml version="1.0" encoding="UTF-8" standalone="no"?>
<!-- Generator: Adobe Illustrator 19.0.0, SVG Export Plug-In . SVG Version: 6.00 Build 0)  -->

<svg
   xmlns:dc="http://purl.org/dc/elements/1.1/"
   xmlns:cc="http://creativecommons.org/ns#"
   xmlns:rdf="http://www.w3.org/1999/02/22-rdf-syntax-ns#"
   xmlns:svg="http://www.w3.org/2000/svg"
   xmlns="http://www.w3.org/2000/svg"
   xmlns:sodipodi="http://sodipodi.sourceforge.net/DTD/sodipodi-0.dtd"
   xmlns:inkscape="http://www.inkscape.org/namespaces/inkscape"
   version="1.1"
   id="Layer_1"
   x="0px"
   y="0px"
   viewBox="0 0 503.322 503.322"
   style="enable-background:new 0 0 503.322 503.322;"
   xml:space="preserve"
   inkscape:version="0.91 r13725"
   sodipodi:docname="001-scissors-1black.svg"><metadata
     id="metadata53"><rdf:RDF><cc:Work
         rdf:about=""><dc:format>image/svg+xml</dc:format><dc:type
           rdf:resource="http://purl.org/dc/dcmitype/StillImage" /><dc:title /></cc:Work></rdf:RDF></metadata><defs
     id="defs51" /><sodipodi:namedview
     pagecolor="#ffffff"
     bordercolor="#666666"
     borderopacity="1"
     objecttolerance="10"
     gridtolerance="10"
     guidetolerance="10"
     inkscape:pageopacity="0"
     inkscape:pageshadow="2"
     inkscape:window-width="1920"
     inkscape:window-height="1017"
     id="namedview49"
     showgrid="false"
     inkscape:zoom="0.16577579"
     inkscape:cx="-1535.5386"
     inkscape:cy="537.09037"
     inkscape:window-x="-8"
     inkscape:window-y="-8"
     inkscape:window-maximized="1"
     inkscape:current-layer="Layer_1" /><g
     id="g3"
     inkscape:export-filename="D:\Клипарт\Иконки\Календарь бонусы скидки алмазы\png\001-scissors-1black.png"
     inkscape:export-xdpi="90"
     inkscape:export-ydpi="90"><path
       style="fill:#23282d;fill-opacity:1"
       d="M475.405,433.898H27.917C12.496,433.898,0,421.402,0,405.981V97.341   C0,81.92,12.496,69.424,27.917,69.424h447.488c15.412,0,27.917,12.496,27.917,27.917v308.641   C503.322,421.402,490.817,433.898,475.405,433.898"
       id="path5" /><g
       id="g7"><path
         style="fill:#24a584;fill-opacity:1"
         d="M173.656,216.949c-20.992,0-36.873,14.926-43.511,31.241c-6.63-16.315-22.502-31.241-43.503-31.241    c-43.511,0-57.708,54.393-26.277,86.606c11.698,12.002,66.569,66.864,69.875,69.597c3.827-3.766,58.359-57.439,69.693-69.597    C231.46,269.755,217.167,216.949,173.656,216.949"
         id="path9" /><path
         style="fill:#24a584;fill-opacity:1"
         d="M475.405,69.424H27.917C12.496,69.424,0,81.92,0,97.341v58.863h503.322V97.341    C503.322,81.92,490.817,69.424,475.405,69.424"
         id="path11" /><path
         style="fill:#ffffff"
         d="M329.761,234.305c-9.572,0-17.356,7.784-17.356,17.356c0,9.572,7.784,17.356,17.356,17.356    c9.572,0,17.356-7.784,17.356-17.356C347.117,242.089,339.333,234.305,329.761,234.305 M329.761,286.373    c-19.144,0-34.712-15.568-34.712-34.712s15.568-34.712,34.712-34.712c19.144,0,34.712,15.568,34.712,34.712    S348.905,286.373,329.761,286.373"
         id="path13" /><path
         style="fill:#ffffff"
         d="M416.541,321.085c-9.572,0-17.356,7.784-17.356,17.356c0,9.572,7.784,17.356,17.356,17.356    c9.572,0,17.356-7.784,17.356-17.356C433.897,328.869,426.112,321.085,416.541,321.085 M416.541,373.153    c-19.144,0-34.712-15.568-34.712-34.712c0-19.144,15.568-34.712,34.712-34.712c19.144,0,34.712,15.568,34.712,34.712    C451.253,357.584,435.684,373.153,416.541,373.153"
         id="path15" /><path
         style="fill:#ffffff"
         d="M321.074,373.153c-1.805,0-3.636-0.564-5.198-1.736c-3.836-2.872-4.608-8.314-1.736-12.149    L418.276,220.42c2.881-3.836,8.313-4.617,12.149-1.736c3.836,2.872,4.617,8.313,1.736,12.149L328.025,369.681    C326.316,371.955,323.712,373.153,321.074,373.153"
         id="path17" /></g></g><g
     id="g19" /><g
     id="g21" /><g
     id="g23" /><g
     id="g25" /><g
     id="g27" /><g
     id="g29" /><g
     id="g31" /><g
     id="g33" /><g
     id="g35" /><g
     id="g37" /><g
     id="g39" /><g
     id="g41" /><g
     id="g43" /><g
     id="g45" /><g
     id="g47" /></svg>