<?xml version="1.0" encoding="UTF-8" standalone="no"?>
<!-- Generator: Adobe Illustrator 19.0.0, SVG Export Plug-In . SVG Version: 6.00 Build 0)  -->

<svg
   xmlns:dc="http://purl.org/dc/elements/1.1/"
   xmlns:cc="http://creativecommons.org/ns#"
   xmlns:rdf="http://www.w3.org/1999/02/22-rdf-syntax-ns#"
   xmlns:svg="http://www.w3.org/2000/svg"
   xmlns="http://www.w3.org/2000/svg"
   xmlns:sodipodi="http://sodipodi.sourceforge.net/DTD/sodipodi-0.dtd"
   xmlns:inkscape="http://www.inkscape.org/namespaces/inkscape"
   version="1.1"
   id="Layer_1"
   x="0px"
   y="0px"
   viewBox="0 0 505.49152 553.55933"
   xml:space="preserve"
   inkscape:version="0.91 r13725"
   sodipodi:docname="cscl-income.svg"
   width="505.49152"
   height="553.55933"><metadata
     id="metadata49"><rdf:RDF><cc:Work
         rdf:about=""><dc:format>image/svg+xml</dc:format><dc:type
           rdf:resource="http://purl.org/dc/dcmitype/StillImage" /><dc:title></dc:title></cc:Work></rdf:RDF></metadata><defs
     id="defs47" /><sodipodi:namedview
     pagecolor="#ffffff"
     bordercolor="#666666"
     borderopacity="1"
     objecttolerance="10"
     gridtolerance="10"
     guidetolerance="10"
     inkscape:pageopacity="0"
     inkscape:pageshadow="2"
     inkscape:window-width="1920"
     inkscape:window-height="1017"
     id="namedview45"
     showgrid="false"
     fit-margin-top="0"
     fit-margin-left="0"
     fit-margin-right="0"
     fit-margin-bottom="0"
     inkscape:zoom="0.4609375"
     inkscape:cx="69.713425"
     inkscape:cy="-112.1566"
     inkscape:window-x="-8"
     inkscape:window-y="-8"
     inkscape:window-maximized="1"
     inkscape:current-layer="Layer_1" /><path
     style="fill:#6dc82a"
     d="m 251.66102,554 c -3.403,0 -6.804,-1.038 -9.707,-3.109 L 8.2150169,383.935 c -5.902,-4.217 -8.40799996,-11.772 -6.191,-18.685 2.213,-6.908 8.6420001,-11.598 15.8980001,-11.598 l 50.087,0 0,-294.956 c 0,-9.223 7.473,-16.696 16.695,-16.696 l 333.913003,0 c 9.223,0 16.696,7.473 16.696,16.696 l 0,294.957 50.087,0 c 7.256,0 13.685,4.69 15.896,11.598 2.217,6.913 -0.288,14.467 -6.191,18.685 l -233.738,166.955 c -2.902,2.07 -6.303,3.109 -9.706,3.109 z"
     id="path3"
     inkscape:connector-curvature="0" /><path
     style="fill:#61b325"
     d="m 485.40002,353.652 -50.087,0 0,-294.956 c 0,-9.223 -7.473,-16.696 -16.696,-16.696 l -166.956,0 0,512 0,0 c 3.403,0 6.804,-1.038 9.707,-3.109 l 233.739,-166.957 c 5.902,-4.217 8.408,-11.772 6.191,-18.685 -2.213,-6.907 -8.642,-11.597 -15.898,-11.597 z"
     id="path5"
     inkscape:connector-curvature="0" /><g
     id="g15"
     transform="translate(-4.3389831,0)" /><g
     id="g17"
     transform="translate(-4.3389831,0)" /><g
     id="g19"
     transform="translate(-4.3389831,0)" /><g
     id="g21"
     transform="translate(-4.3389831,0)" /><g
     id="g23"
     transform="translate(-4.3389831,0)" /><g
     id="g25"
     transform="translate(-4.3389831,0)" /><g
     id="g27"
     transform="translate(-4.3389831,0)" /><g
     id="g29"
     transform="translate(-4.3389831,0)" /><g
     id="g31"
     transform="translate(-4.3389831,0)" /><g
     id="g33"
     transform="translate(-4.3389831,0)" /><g
     id="g35"
     transform="translate(-4.3389831,0)" /><g
     id="g37"
     transform="translate(-4.3389831,0)" /><g
     id="g39"
     transform="translate(-4.3389831,0)" /><g
     id="g41"
     transform="translate(-4.3389831,0)" /><g
     id="g43"
     transform="translate(-4.3389831,0)" /><g
     transform="matrix(0.84790596,0,0,0.84790596,39.360896,-58.525752)"
     id="g3"
     inkscape:export-filename="D:\Клипарт\Иконки\Календарь бонусы скидки алмазы\png\001-scissors-1black.png"
     inkscape:export-xdpi="90"
     inkscape:export-ydpi="90"><path
       inkscape:connector-curvature="0"
       style="fill:#23282d;fill-opacity:1"
       d="m 475.405,433.898 -447.488,0 C 12.496,433.898 0,421.402 0,405.981 L 0,97.341 C 0,81.92 12.496,69.424 27.917,69.424 l 447.488,0 c 15.412,0 27.917,12.496 27.917,27.917 l 0,308.641 c 0,15.42 -12.505,27.916 -27.917,27.916"
       id="path5-0" /><g
       id="g7"><path
         inkscape:connector-curvature="0"
         style="fill:#24a584;fill-opacity:1"
         d="m 173.656,216.949 c -20.992,0 -36.873,14.926 -43.511,31.241 -6.63,-16.315 -22.502,-31.241 -43.503,-31.241 -43.511,0 -57.708,54.393 -26.277,86.606 11.698,12.002 66.569,66.864 69.875,69.597 3.827,-3.766 58.359,-57.439 69.693,-69.597 31.527,-33.8 17.234,-86.606 -26.277,-86.606"
         id="path9" /><path
         inkscape:connector-curvature="0"
         style="fill:#24a584;fill-opacity:1"
         d="m 475.405,69.424 -447.488,0 C 12.496,69.424 0,81.92 0,97.341 l 0,58.863 503.322,0 0,-58.863 c 0,-15.421 -12.505,-27.917 -27.917,-27.917"
         id="path11" /><path
         inkscape:connector-curvature="0"
         style="fill:#ffffff"
         d="m 329.761,234.305 c -9.572,0 -17.356,7.784 -17.356,17.356 0,9.572 7.784,17.356 17.356,17.356 9.572,0 17.356,-7.784 17.356,-17.356 0,-9.572 -7.784,-17.356 -17.356,-17.356 m 0,52.068 c -19.144,0 -34.712,-15.568 -34.712,-34.712 0,-19.144 15.568,-34.712 34.712,-34.712 19.144,0 34.712,15.568 34.712,34.712 0,19.144 -15.568,34.712 -34.712,34.712"
         id="path13" /><path
         inkscape:connector-curvature="0"
         style="fill:#ffffff"
         d="m 416.541,321.085 c -9.572,0 -17.356,7.784 -17.356,17.356 0,9.572 7.784,17.356 17.356,17.356 9.572,0 17.356,-7.784 17.356,-17.356 0,-9.572 -7.785,-17.356 -17.356,-17.356 m 0,52.068 c -19.144,0 -34.712,-15.568 -34.712,-34.712 0,-19.144 15.568,-34.712 34.712,-34.712 19.144,0 34.712,15.568 34.712,34.712 0,19.143 -15.569,34.712 -34.712,34.712"
         id="path15" /><path
         inkscape:connector-curvature="0"
         style="fill:#ffffff"
         d="m 321.074,373.153 c -1.805,0 -3.636,-0.564 -5.198,-1.736 -3.836,-2.872 -4.608,-8.314 -1.736,-12.149 L 418.276,220.42 c 2.881,-3.836 8.313,-4.617 12.149,-1.736 3.836,2.872 4.617,8.313 1.736,12.149 L 328.025,369.681 c -1.709,2.274 -4.313,3.472 -6.951,3.472"
         id="path17" /></g></g></svg>