<?xml version="1.0" encoding="UTF-8" standalone="no"?>
<!-- Creator: CorelDRAW X8 -->

<svg
   xmlns:dc="http://purl.org/dc/elements/1.1/"
   xmlns:cc="http://creativecommons.org/ns#"
   xmlns:rdf="http://www.w3.org/1999/02/22-rdf-syntax-ns#"
   xmlns:svg="http://www.w3.org/2000/svg"
   xmlns="http://www.w3.org/2000/svg"
   xmlns:sodipodi="http://sodipodi.sourceforge.net/DTD/sodipodi-0.dtd"
   xmlns:inkscape="http://www.inkscape.org/namespaces/inkscape"
   xml:space="preserve"
   width="330"
   height="350"
   version="1.1"
   style="clip-rule:evenodd;fill-rule:evenodd;image-rendering:optimizeQuality;shape-rendering:geometricPrecision;text-rendering:geometricPrecision"
   viewBox="0 0 9313.3331 9877.7779"
   id="svg2"
   inkscape:version="0.91 r13725"
   sodipodi:docname="coffee.svg"><metadata
     id="metadata26"><rdf:RDF><cc:Work
         rdf:about=""><dc:format>image/svg+xml</dc:format><dc:type
           rdf:resource="http://purl.org/dc/dcmitype/StillImage" /><dc:title /></cc:Work></rdf:RDF></metadata><sodipodi:namedview
     pagecolor="#ffffff"
     bordercolor="#666666"
     borderopacity="1"
     objecttolerance="10"
     gridtolerance="10"
     guidetolerance="10"
     inkscape:pageopacity="0"
     inkscape:pageshadow="2"
     inkscape:window-width="1920"
     inkscape:window-height="1017"
     id="namedview24"
     showgrid="false"
     fit-margin-top="0"
     fit-margin-left="0"
     fit-margin-right="0"
     fit-margin-bottom="0"
     units="px"
     inkscape:zoom="1.7941506"
     inkscape:cx="146.13611"
     inkscape:cy="179.06614"
     inkscape:window-x="-8"
     inkscape:window-y="-8"
     inkscape:window-maximized="1"
     inkscape:current-layer="svg2" /><defs
     id="defs4"><style
       type="text/css"
       id="style6"><![CDATA[
    .fil2 {fill:#683210}
    .fil3 {fill:#A46F3E}
    .fil0 {fill:#D1D4D6}
    .fil1 {fill:#F2F2F2}
   ]]></style></defs><g
     style="clip-rule:evenodd;fill-rule:evenodd;image-rendering:optimizeQuality;shape-rendering:geometricPrecision;text-rendering:geometricPrecision"
     id="g4193"
     transform="matrix(156.04191,0,0,156.04191,209.47206,812.45517)"><g
       id="g4143"><path
         id="path4145"
         d="m 48.198,48.309 c 0,0 -2.947,-2.929 -4.237,-4.193 -0.332,-0.325 -0.352,-0.842 -0.065,-1.207 6.138,-7.799 5.539,-19.17 -1.81,-26.264 C 34.754,9.566 22.905,9.344 15.33,16.162 c -8.433,7.59 -8.69,20.59 -0.77,28.51 6.538,6.538 16.537,7.501 24.098,2.894 0.419,-0.255 0.953,-0.201 1.29,0.156 1.295,1.365 4.36,4.476 4.36,4.476 1.07,1.07 2.82,1.07 3.889,0 1.07,-1.07 1.07,-2.82 10e-4,-3.889 z"
         style="fill:#f2f2f2"
         inkscape:connector-curvature="0" /><path
         id="path4147"
         d="M 44.281,11 C 48.647,11 52.187,8.538 52.187,5.5 52.187,2.462 48.648,0 44.281,0 42.214,0 40.334,0.553 38.927,1.457 36.508,3.012 33.769,4 30.893,4 L 10.375,4 C 9.619,4 9,4.619 9,5.375 l 0,0.25 C 9,6.381 9.619,7 10.375,7 l 20.518,0 c 2.876,0 5.615,0.988 8.034,2.543 1.407,0.904 3.287,1.457 5.354,1.457 z"
         style="fill:#e6e6e6"
         inkscape:connector-curvature="0" /><path
         id="path4149"
         d="m 43.961,44.116 c 1.203,1.179 3.849,3.807 4.197,4.153 C 52.41,43.569 55,37.337 55,30.5 55,22.691 51.621,15.672 46.246,10.822 45.617,10.934 44.961,11 44.281,11 42.214,11 40.334,10.447 38.927,9.543 36.508,7.988 33.769,7 30.893,7 L 16.256,7 C 7.786,11.422 2,20.283 2,30.5 2,45.135 13.865,57 28.5,57 c 5.816,0 11.19,-1.878 15.56,-5.055 -0.75,-0.763 -3.038,-3.092 -4.112,-4.224 -0.338,-0.356 -0.871,-0.411 -1.29,-0.156 -7.561,4.607 -17.56,3.645 -24.098,-2.894 -7.92,-7.92 -7.663,-20.92 0.771,-28.51 7.575,-6.818 19.424,-6.596 26.756,0.483 7.348,7.094 7.948,18.466 1.81,26.265 -0.288,0.365 -0.268,0.882 0.064,1.207 z"
         style="fill:#d2d5d7"
         inkscape:connector-curvature="0" /><circle
         id="circle4151"
         r="15.5"
         cy="30.783001"
         cx="28.448999"
         style="fill:#6a3311" /><path
         id="path4153"
         d="m 36.615,23.617 c -0.256,0 -0.512,-0.098 -0.707,-0.293 -0.804,-0.804 -1.724,-1.469 -2.731,-1.975 -0.494,-0.247 -0.693,-0.849 -0.445,-1.342 0.246,-0.493 0.848,-0.693 1.342,-0.445 1.2,0.602 2.293,1.392 3.249,2.348 0.391,0.391 0.391,1.023 0,1.414 -0.196,0.196 -0.452,0.293 -0.708,0.293 z"
         style="fill:#a46f3e"
         inkscape:connector-curvature="0" /><path
         id="path4155"
         d="m 20.284,23.617 c -0.256,0 -0.512,-0.098 -0.707,-0.293 -0.391,-0.391 -0.391,-1.023 0,-1.414 2.699,-2.7 6.426,-4.017 10.228,-3.603 0.549,0.06 0.946,0.553 0.887,1.102 -0.061,0.548 -0.549,0.942 -1.102,0.887 -3.192,-0.341 -6.329,0.758 -8.599,3.028 -0.195,0.196 -0.451,0.293 -0.707,0.293 z"
         style="fill:#a46f3e"
         inkscape:connector-curvature="0" /></g><g
       id="g4157" /><g
       id="g4159" /><g
       id="g4161" /><g
       id="g4163" /><g
       id="g4165" /><g
       id="g4167" /><g
       id="g4169" /><g
       id="g4171" /><g
       id="g4173" /><g
       id="g4175" /><g
       id="g4177" /><g
       id="g4179" /><g
       id="g4181" /><g
       id="g4183" /><g
       id="g4185" /></g></svg>