<?xml version="1.0" encoding="UTF-8" standalone="no"?>
<!-- Created with Inkscape (http://www.inkscape.org/) -->

<svg
   xmlns:dc="http://purl.org/dc/elements/1.1/"
   xmlns:cc="http://creativecommons.org/ns#"
   xmlns:rdf="http://www.w3.org/1999/02/22-rdf-syntax-ns#"
   xmlns:svg="http://www.w3.org/2000/svg"
   xmlns="http://www.w3.org/2000/svg"
   xmlns:sodipodi="http://sodipodi.sourceforge.net/DTD/sodipodi-0.dtd"
   xmlns:inkscape="http://www.inkscape.org/namespaces/inkscape"
   width="98.777771mm"
   height="98.777786mm"
   viewBox="0 0 349.99997 350.00003"
   id="svg4147"
   version="1.1"
   inkscape:version="0.91 r13725"
   sodipodi:docname="drinks.svg">
  <defs
     id="defs4149">
    <style
       id="style4138"
       type="text/css"><![CDATA[
    .fil5 {fill:#64DDE0}
    .fil2 {fill:#CACACD}
    .fil4 {fill:#EBEBEC}
    .fil0 {fill:#F7B934}
    .fil3 {fill:#FBD835}
    .fil1 {fill:#FD9602}
   ]]></style>
  </defs>
  <sodipodi:namedview
     id="base"
     pagecolor="#ffffff"
     bordercolor="#666666"
     borderopacity="1.0"
     inkscape:pageopacity="0.0"
     inkscape:pageshadow="2"
     inkscape:zoom="1.4"
     inkscape:cx="258.90057"
     inkscape:cy="118.89023"
     inkscape:document-units="px"
     inkscape:current-layer="layer1"
     showgrid="false"
     fit-margin-top="0"
     fit-margin-left="0"
     fit-margin-right="0"
     fit-margin-bottom="0"
     inkscape:window-width="1920"
     inkscape:window-height="1017"
     inkscape:window-x="-8"
     inkscape:window-y="-8"
     inkscape:window-maximized="1" />
  <metadata
     id="metadata4152">
    <rdf:RDF>
      <cc:Work
         rdf:about="">
        <dc:format>image/svg+xml</dc:format>
        <dc:type
           rdf:resource="http://purl.org/dc/dcmitype/StillImage" />
        <dc:title></dc:title>
      </cc:Work>
    </rdf:RDF>
  </metadata>
  <g
     inkscape:label="Layer 1"
     inkscape:groupmode="layer"
     id="layer1"
     transform="translate(-170.71427,-243.0765)">
    <g
       style="clip-rule:evenodd;fill-rule:evenodd;image-rendering:optimizeQuality;shape-rendering:geometricPrecision;text-rendering:geometricPrecision"
       id="g4172"
       transform="matrix(0.02834926,0,0,0.02851324,135.92973,152.03372)">
      <g
         id="Слой_x0020_1">
        <metadata
           id="CorelCorpID_0Corel-Layer" />
        <g
           id="_638113865248">
          <path
             id="path4143"
             d="m 2638,14240 2616,7 c -84,-431 39,-5897 -39,-6265 l -989,-4 -2082,12 c 0,226 35,559 61,750 l 224,3163 c 17,217 49,563 66,781 26,351 37,1106 116,1472 2,10 6,20 8,29 l 19,55 z"
             class="fil0"
             inkscape:connector-curvature="0"
             style="fill:#f7b934" />
          <path
             id="path4145"
             d="m 5254,14247 1407,-19 c -264,-344 -583,-711 -790,-1253 -213,-559 -309,-1089 -286,-1722 l 2485,-15 c 87,-384 130,-1969 191,-2387 43,-285 56,-561 56,-870 l -3102,1 c 78,368 -45,5834 39,6265 z"
             class="fil1"
             inkscape:connector-curvature="0"
             style="fill:#fd9602" />
          <polygon
             id="polygon4147"
             points="5022,7959 4242,7967 4226,7978 5215,7982 8317,7981 8564,4815 5241,4815 5248,7963 "
             class="fil2"
             style="fill:#cacacd" />
          <path
             id="path4149"
             d="m 7761,13634 c 282,-248 1384,-1453 1569,-1543 l 0,2211 c -531,-19 -1371,-375 -1569,-668 z m -361,-339 c -350,-482 -563,-805 -656,-1573 l 2222,18 c -162,112 -271,288 -381,399 -143,145 -251,259 -382,393 l -803,763 z m -2146,952 -2616,-7 c 238,124 3722,-53 4048,37 l 563,461 c 203,154 414,263 644,378 518,257 1073,352 1686,352 l 2,-4233 -1511,3 -2485,15 c -23,633 73,1163 286,1722 207,542 526,909 790,1253 l -1407,19 z"
             class="fil3"
             inkscape:connector-curvature="0"
             style="fill:#fbd835" />
          <path
             id="path4151"
             d="m 9818,14313 -1,-2220 1591,1587 c -204,96 -417,274 -699,405 -279,130 -564,185 -891,228 z m 1929,-1017 c -122,-86 -1498,-1456 -1564,-1574 l 2224,5 c -43,493 -336,1336 -660,1569 z m -2168,2172 c 828,0 1110,-119 1696,-358 215,-87 460,-241 646,-377 107,-79 173,-143 271,-222 l 388,-388 c 45,-55 72,-76 116,-131 246,-301 426,-603 580,-972 268,-642 297,-1065 297,-1785 -1331,0 -2661,0 -3992,0 l -2,4233 z"
             class="fil0"
             inkscape:connector-curvature="0"
             style="fill:#f7b934" />
          <path
             id="path4153"
             d="m 2144,7990 2082,-12 16,-11 c -8,-229 -775,-3022 -863,-3152 l -1446,0 156,2384 c 33,220 55,567 55,791 z"
             class="fil4"
             inkscape:connector-curvature="0"
             style="fill:#ebebec" />
          <path
             id="path4155"
             d="m 3379,4815 c 88,130 855,2923 863,3152 l 780,-8 -859,-3144 c -54,-294 -416,-1435 -431,-1622 -196,0 -1577,405 -1877,486 -196,54 -472,109 -628,184 l 177,706 1798,-494 c 22,259 156,491 177,740 z"
             class="fil5"
             inkscape:connector-curvature="0"
             style="fill:#64dde0" />
          <polygon
             id="polygon4157"
             points="5022,7959 5248,7963 5241,4815 4163,4815 "
             class="fil4"
             style="fill:#ebebec" />
          <path
             id="path4159"
             d="m 11747,13296 c 324,-233 617,-1076 660,-1569 l -2224,-5 c 66,118 1442,1488 1564,1574 z"
             class="fil1"
             inkscape:connector-curvature="0"
             style="fill:#fd9602" />
          <path
             id="path4161"
             d="m 7761,13634 c 198,293 1038,649 1569,668 l 0,-2211 c -185,90 -1287,1295 -1569,1543 z"
             class="fil0"
             inkscape:connector-curvature="0"
             style="fill:#f7b934" />
          <path
             id="path4163"
             d="m 7400,13295 803,-763 c 131,-134 239,-248 382,-393 110,-111 219,-287 381,-399 l -2222,-18 c 93,768 306,1091 656,1573 z"
             class="fil0"
             inkscape:connector-curvature="0"
             style="fill:#f7b934" />
          <path
             id="path4165"
             d="m 9818,14313 c 327,-43 612,-98 891,-228 282,-131 495,-309 699,-405 l -1591,-1587 1,2220 z"
             class="fil1"
             inkscape:connector-curvature="0"
             style="fill:#fd9602" />
        </g>
      </g>
    </g>
  </g>
</svg>
