<?xml version="1.0" encoding="UTF-8" standalone="no"?>
<!-- Created with Inkscape (http://www.inkscape.org/) -->

<svg
   xmlns:dc="http://purl.org/dc/elements/1.1/"
   xmlns:cc="http://creativecommons.org/ns#"
   xmlns:rdf="http://www.w3.org/1999/02/22-rdf-syntax-ns#"
   xmlns:svg="http://www.w3.org/2000/svg"
   xmlns="http://www.w3.org/2000/svg"
   xmlns:sodipodi="http://sodipodi.sourceforge.net/DTD/sodipodi-0.dtd"
   xmlns:inkscape="http://www.inkscape.org/namespaces/inkscape"
   width="352"
   height="350"
   viewBox="0 0 351.99999 350"
   id="svg4147"
   version="1.1"
   inkscape:version="0.91 r13725"
   sodipodi:docname="drinks.svg">
  <defs
     id="defs4149">
    <style
       id="style4138"
       type="text/css"><![CDATA[
    .fil5 {fill:#64DDE0}
    .fil2 {fill:#CACACD}
    .fil4 {fill:#EBEBEC}
    .fil0 {fill:#F7B934}
    .fil3 {fill:#FBD835}
    .fil1 {fill:#FD9602}
   ]]></style>
  </defs>
  <sodipodi:namedview
     id="base"
     pagecolor="#ffffff"
     bordercolor="#666666"
     borderopacity="1.0"
     inkscape:pageopacity="0.0"
     inkscape:pageshadow="2"
     inkscape:zoom="1.4"
     inkscape:cx="214.02371"
     inkscape:cy="55.026508"
     inkscape:document-units="px"
     inkscape:current-layer="layer1"
     showgrid="false"
     fit-margin-top="0"
     fit-margin-left="0"
     fit-margin-right="0"
     fit-margin-bottom="0"
     inkscape:window-width="1920"
     inkscape:window-height="1017"
     inkscape:window-x="-8"
     inkscape:window-y="-8"
     inkscape:window-maximized="1"
     units="px" />
  <metadata
     id="metadata4152">
    <rdf:RDF>
      <cc:Work
         rdf:about="">
        <dc:format>image/svg+xml</dc:format>
        <dc:type
           rdf:resource="http://purl.org/dc/dcmitype/StillImage" />
        <dc:title></dc:title>
      </cc:Work>
    </rdf:RDF>
  </metadata>
  <g
     inkscape:label="Layer 1"
     inkscape:groupmode="layer"
     id="layer1"
     transform="translate(-172.37256,-242.97848)">
    <g
       id="g4231"
       transform="translate(1.73279,0)"
       inkscape:export-xdpi="90"
       inkscape:export-ydpi="90">
      <polygon
         id="polygon3"
         points="274.711,459.336 57.719,459.336 29.135,69.291 303.293,69.291 "
         style="fill:#ebebec"
         transform="matrix(0.68658931,0,0,0.68651815,170.63977,242.22949)" />
      <polygon
         id="polygon5"
         points="274.711,459.336 166.214,459.336 166.214,69.291 303.293,69.291 "
         style="fill:#cacacd"
         transform="matrix(0.68658931,0,0,0.68651815,170.63977,242.22949)" />
      <polygon
         id="polygon7"
         points="0,29.263 102.882,1.091 160.433,211.011 131.435,218.961 81.832,38.03 7.942,58.264 "
         style="fill:#64dde0"
         transform="matrix(0.68658931,0,0,0.68651815,170.63977,242.22949)" />
      <polygon
         id="polygon9"
         points="293.716,199.952 274.711,459.336 57.719,459.336 38.711,199.952 "
         style="fill:#f7ba35"
         transform="matrix(0.68658931,0,0,0.68651815,170.63977,242.22949)" />
      <polygon
         id="polygon11"
         points="293.716,199.952 274.711,459.336 166.214,459.336 166.213,199.952 "
         style="fill:#fd9702"
         transform="matrix(0.68658931,0,0,0.68651815,170.63977,242.22949)" />
      <path
         id="path13"
         d="m 294.60691,472.32635 0,6.88028 c 0,62.73403 51.04311,113.77185 113.78364,113.77185 62.74052,0 113.78364,-51.03782 113.78364,-113.77185 l 0,-6.88028 -227.56728,0 z"
         style="fill:#fbda35"
         inkscape:connector-curvature="0" />
      <g
         id="g15"
         transform="matrix(0.68658931,0,0,0.68651815,170.63977,242.22949)">
        <path
           id="path17"
           d="M 346.277,510.91 C 437.657,510.91 512,436.567 512,345.187 l 0,-10.022 -165.723,0 c 0,0 0,124.14 0,175.745 z"
           style="fill:#f7ba35"
           inkscape:connector-curvature="0" />
        <path
           id="path19"
           d="m 256.157,421.135 c -15.306,-18.134 -25.249,-40.93 -27.363,-65.924 l 93.287,0 -65.924,65.924 z"
           style="fill:#f7ba35"
           inkscape:connector-curvature="0" />
        <path
           id="path21"
           d="m 336.255,369.384 0,93.287 c -24.995,-2.114 -47.79,-12.057 -65.924,-27.362 l 65.924,-65.925 z"
           style="fill:#f7ba35"
           inkscape:connector-curvature="0" />
      </g>
      <g
         id="g23"
         transform="matrix(0.68658931,0,0,0.68651815,170.63977,242.22949)">
        <path
           id="path25"
           d="m 356.3,369.384 65.925,65.924 c -18.134,15.306 -40.93,25.249 -65.925,27.363 l 0,-93.287 z"
           style="fill:#fd9702"
           inkscape:connector-curvature="0" />
        <path
           id="path27"
           d="m 436.398,421.135 -65.924,-65.924 93.287,0 c -2.113,24.994 -12.056,47.789 -27.363,65.924 z"
           style="fill:#fd9702"
           inkscape:connector-curvature="0" />
      </g>
    </g>
  </g>
</svg>
