<?xml version="1.0" encoding="UTF-8" standalone="no"?>
<!-- Created with Inkscape (http://www.inkscape.org/) -->

<svg
   xmlns:dc="http://purl.org/dc/elements/1.1/"
   xmlns:cc="http://creativecommons.org/ns#"
   xmlns:rdf="http://www.w3.org/1999/02/22-rdf-syntax-ns#"
   xmlns:svg="http://www.w3.org/2000/svg"
   xmlns="http://www.w3.org/2000/svg"
   xmlns:sodipodi="http://sodipodi.sourceforge.net/DTD/sodipodi-0.dtd"
   xmlns:inkscape="http://www.inkscape.org/namespaces/inkscape"
   width="352"
   height="350"
   viewBox="0 0 351.99999 350"
   id="svg4147"
   version="1.1"
   inkscape:version="0.91 r13725"
   sodipodi:docname="coins.svg"
   inkscape:export-filename="D:\OpenServer\domains\cscl-reporter\wp-content\plugins\mv-web-reporter\reports\150-golden-invoice\img\cons.png"
   inkscape:export-xdpi="90"
   inkscape:export-ydpi="90">
  <defs
     id="defs4149">
    <style
       id="style4138"
       type="text/css"><![CDATA[
    .fil5 {fill:#64DDE0}
    .fil2 {fill:#CACACD}
    .fil4 {fill:#EBEBEC}
    .fil0 {fill:#F7B934}
    .fil3 {fill:#FBD835}
    .fil1 {fill:#FD9602}
   ]]></style>
  </defs>
  <sodipodi:namedview
     id="base"
     pagecolor="#ffffff"
     bordercolor="#666666"
     borderopacity="1.0"
     inkscape:pageopacity="0.0"
     inkscape:pageshadow="2"
     inkscape:zoom="1.4"
     inkscape:cx="-43.119148"
     inkscape:cy="226.45508"
     inkscape:document-units="px"
     inkscape:current-layer="layer1"
     showgrid="false"
     fit-margin-top="0"
     fit-margin-left="0"
     fit-margin-right="0"
     fit-margin-bottom="0"
     inkscape:window-width="1920"
     inkscape:window-height="1017"
     inkscape:window-x="-8"
     inkscape:window-y="-8"
     inkscape:window-maximized="1"
     units="px" />
  <metadata
     id="metadata4152">
    <rdf:RDF>
      <cc:Work
         rdf:about="">
        <dc:format>image/svg+xml</dc:format>
        <dc:type
           rdf:resource="http://purl.org/dc/dcmitype/StillImage" />
        <dc:title></dc:title>
      </cc:Work>
    </rdf:RDF>
  </metadata>
  <g
     inkscape:label="Layer 1"
     inkscape:groupmode="layer"
     id="layer1"
     transform="translate(-172.37256,-242.97848)">
    <g
       transform="matrix(3.8571429,0,0,3.8571429,236.50384,328.97498)"
       id="XMLID_22_">
      <path
         inkscape:connector-curvature="0"
         id="XMLID_143_"
         style="fill:#fcc62d"
         d="m 52.003,29.211 0,1.238 C 52.003,37.381 40.362,43 26.003,43 18.077,43 10.984,41.286 6.215,38.586 7.823,44.831 18.751,50 32.003,50 c 14.359,0 26,-6.068 26,-13 0,-3.048 -2.256,-5.734 -6,-7.789" />
      <path
         inkscape:connector-curvature="0"
         id="XMLID_142_"
         style="fill:#e4af18"
         d="m 32.003,50 c -14.359,0 -26,-6.068 -26,-13 l 0,8.448 c 0,6.932 11.641,12.552 26,12.552 14.359,0 26,-5.62 26,-12.552 l 0,-8.448 c 0,6.932 -11.641,13 -26,13" />
      <path
         inkscape:connector-curvature="0"
         id="XMLID_141_"
         style="fill:#ce9912"
         d="m 9.003,51.349 c 0.59,0.539 1.259,1.055 2,1.545 l 0,-8.291 c -0.741,-0.51 -1.41,-1.045 -2,-1.603 l 0,8.349 z" />
      <path
         inkscape:connector-curvature="0"
         id="XMLID_140_"
         style="fill:#ce9912"
         d="m 53.003,44.603 0,8.291 c 0.741,-0.489 1.41,-1.006 2,-1.545 l 0,-8.349 c -0.589,0.558 -1.258,1.093 -2,1.603" />
      <path
         inkscape:connector-curvature="0"
         id="XMLID_139_"
         style="fill:#ce9912"
         d="m 13.003,54.06 c 0.632,0.327 1.3,0.636 2,0.929 l 0,-8.193 c -0.7,-0.308 -1.368,-0.633 -2,-0.975 l 0,8.239 z" />
      <path
         inkscape:connector-curvature="0"
         id="XMLID_138_"
         style="fill:#ce9912"
         d="m 49.003,54.988 c 0.7,-0.292 1.368,-0.602 2,-0.929 l 0,-8.239 c -0.632,0.342 -1.3,0.668 -2,0.975 l 0,8.193 z" />
      <path
         inkscape:connector-curvature="0"
         id="XMLID_137_"
         style="fill:#ce9912"
         d="m 17.003,55.745 c 0.646,0.221 1.313,0.427 2,0.619 l 0,-8.114 c -0.687,-0.204 -1.354,-0.423 -2,-0.656 l 0,8.151 z" />
      <path
         inkscape:connector-curvature="0"
         id="XMLID_136_"
         style="fill:#ce9912"
         d="m 45.003,56.364 c 0.687,-0.192 1.354,-0.398 2,-0.619 l 0,-8.151 c -0.646,0.233 -1.313,0.452 -2,0.656 l 0,8.114 z" />
      <path
         inkscape:connector-curvature="0"
         id="XMLID_135_"
         style="fill:#ce9912"
         d="m 22.003,57.084 c 0.653,0.132 1.321,0.25 2,0.355 l 0,-8.044 c -0.679,-0.113 -1.347,-0.239 -2,-0.379 l 0,8.068 z" />
      <path
         inkscape:connector-curvature="0"
         id="XMLID_134_"
         style="fill:#ce9912"
         d="m 40.003,57.439 c 0.679,-0.106 1.347,-0.224 2,-0.355 l 0,-8.069 c -0.653,0.14 -1.321,0.266 -2,0.38 l 0,8.044 z" />
      <path
         inkscape:connector-curvature="0"
         id="XMLID_133_"
         style="fill:#ce9912"
         d="m 28.003,57.899 c 0.658,0.049 1.326,0.083 2,0.107 l 0,-8.003 c -0.674,-0.026 -1.342,-0.062 -2,-0.115 l 0,8.011 z" />
      <path
         inkscape:connector-curvature="0"
         id="XMLID_132_"
         style="fill:#ce9912"
         d="m 34.003,58.007 c 0.674,-0.025 1.342,-0.058 2,-0.107 l 0,-8.012 c -0.658,0.053 -1.326,0.089 -2,0.116 l 0,8.003 z" />
      <path
         inkscape:connector-curvature="0"
         id="XMLID_131_"
         style="fill:#e4af18"
         d="m 26.003,34.993 c -14.359,0 -26,-6.068 -26,-13 l 0,8.448 c 0,6.932 11.641,12.552 26,12.552 14.359,0 26,-5.62 26,-12.552 l 0,-8.448 c 0,6.932 -11.641,13 -26,13" />
      <path
         inkscape:connector-curvature="0"
         id="XMLID_130_"
         style="fill:#ce9912"
         d="m 3.003,36.342 c 0.59,0.539 1.259,1.055 2,1.545 l 0,-8.291 c -0.741,-0.51 -1.41,-1.045 -2,-1.602 l 0,8.348 z" />
      <path
         inkscape:connector-curvature="0"
         id="XMLID_129_"
         style="fill:#ce9912"
         d="m 47.003,29.596 0,8.291 c 0.741,-0.489 1.41,-1.006 2,-1.545 l 0,-8.349 c -0.589,0.558 -1.258,1.093 -2,1.603" />
      <path
         inkscape:connector-curvature="0"
         id="XMLID_128_"
         style="fill:#ce9912"
         d="m 7.003,39.053 c 0.632,0.327 1.3,0.636 2,0.929 l 0,-8.193 c -0.7,-0.308 -1.368,-0.633 -2,-0.975 l 0,8.239 z" />
      <path
         inkscape:connector-curvature="0"
         id="XMLID_127_"
         style="fill:#ce9912"
         d="m 43.003,39.981 c 0.7,-0.292 1.368,-0.601 2,-0.929 l 0,-8.239 c -0.632,0.342 -1.3,0.668 -2,0.975 l 0,8.193 z" />
      <path
         inkscape:connector-curvature="0"
         id="XMLID_126_"
         style="fill:#ce9912"
         d="m 11.003,40.738 c 0.646,0.221 1.313,0.427 2,0.619 l 0,-8.114 c -0.687,-0.204 -1.354,-0.423 -2,-0.656 l 0,8.151 z" />
      <path
         inkscape:connector-curvature="0"
         id="XMLID_125_"
         style="fill:#ce9912"
         d="m 39.003,41.357 c 0.687,-0.192 1.354,-0.398 2,-0.619 l 0,-8.151 c -0.646,0.233 -1.313,0.452 -2,0.656 l 0,8.114 z" />
      <path
         inkscape:connector-curvature="0"
         id="XMLID_124_"
         style="fill:#ce9912"
         d="m 16.003,42.077 c 0.653,0.132 1.321,0.25 2,0.355 l 0,-8.044 c -0.679,-0.113 -1.347,-0.239 -2,-0.379 l 0,8.068 z" />
      <path
         inkscape:connector-curvature="0"
         id="XMLID_123_"
         style="fill:#ce9912"
         d="m 34.003,42.433 c 0.679,-0.106 1.347,-0.224 2,-0.355 l 0,-8.069 c -0.653,0.14 -1.321,0.266 -2,0.38 l 0,8.044 z" />
      <path
         inkscape:connector-curvature="0"
         id="XMLID_122_"
         style="fill:#ce9912"
         d="m 22.003,42.893 c 0.658,0.049 1.326,0.083 2,0.107 l 0,-8.003 c -0.674,-0.026 -1.342,-0.062 -2,-0.115 l 0,8.011 z" />
      <path
         inkscape:connector-curvature="0"
         id="XMLID_121_"
         style="fill:#ce9912"
         d="m 28.003,43 c 0.674,-0.025 1.342,-0.058 2,-0.107 l 0,-8.012 c -0.658,0.053 -1.326,0.089 -2,0.116 l 0,8.003 z" />
      <path
         inkscape:connector-curvature="0"
         id="XMLID_120_"
         style="fill:#ffd949"
         d="M 51.32,33.302 C 48.643,38.858 38.329,43 26.003,43 c -4.604,0 -8.926,-0.58 -12.677,-1.593 3.628,2.463 10.085,4.559 18.677,4.559 13.682,0 22,-5.311 22,-8.966 0,-1.22 -0.939,-2.514 -2.683,-3.698" />
      <path
         inkscape:connector-curvature="0"
         id="XMLID_119_"
         style="fill:#ffd949"
         d="m 31.003,33 c -14.359,0 -26,-5.62 -26,-12.552 l 0,-5.652 c -3.141,1.969 -5,4.438 -5,7.204 0,6.932 11.641,13 26,13 6.914,0 13.192,-1.409 17.849,-3.642 C 40.061,32.401 35.678,33 31.003,33" />
      <path
         inkscape:connector-curvature="0"
         id="XMLID_118_"
         style="fill:#e4af18"
         d="m 31.003,24.993 c -14.359,0 -26,-6.068 -26,-13 l 0,8.448 c 0,6.932 11.641,12.552 26,12.552 14.359,0 26,-5.62 26,-12.552 l 0,-8.448 c 0,6.932 -11.641,13 -26,13" />
      <path
         inkscape:connector-curvature="0"
         id="XMLID_117_"
         style="fill:#ce9912"
         d="m 8.003,26.342 c 0.59,0.539 1.259,1.055 2,1.545 l 0,-8.291 c -0.741,-0.51 -1.41,-1.045 -2,-1.602 l 0,8.348 z" />
      <path
         inkscape:connector-curvature="0"
         id="XMLID_116_"
         style="fill:#ce9912"
         d="m 52.003,19.596 0,8.291 c 0.741,-0.489 1.41,-1.006 2,-1.545 l 0,-8.349 c -0.589,0.558 -1.258,1.093 -2,1.603" />
      <path
         inkscape:connector-curvature="0"
         id="XMLID_115_"
         style="fill:#ce9912"
         d="m 12.003,29.053 c 0.632,0.327 1.3,0.636 2,0.929 l 0,-8.193 c -0.7,-0.308 -1.368,-0.633 -2,-0.975 l 0,8.239 z" />
      <path
         inkscape:connector-curvature="0"
         id="XMLID_114_"
         style="fill:#ce9912"
         d="m 48.003,29.981 c 0.7,-0.292 1.368,-0.601 2,-0.929 l 0,-8.239 c -0.632,0.342 -1.3,0.668 -2,0.975 l 0,8.193 z" />
      <path
         inkscape:connector-curvature="0"
         id="XMLID_113_"
         style="fill:#ce9912"
         d="m 16.003,30.738 c 0.646,0.221 1.313,0.427 2,0.619 l 0,-8.114 c -0.687,-0.204 -1.354,-0.423 -2,-0.656 l 0,8.151 z" />
      <path
         inkscape:connector-curvature="0"
         id="XMLID_112_"
         style="fill:#ce9912"
         d="m 44.003,31.357 c 0.687,-0.192 1.354,-0.398 2,-0.619 l 0,-8.151 c -0.646,0.233 -1.313,0.452 -2,0.656 l 0,8.114 z" />
      <path
         inkscape:connector-curvature="0"
         id="XMLID_111_"
         style="fill:#ce9912"
         d="m 21.003,32.077 c 0.653,0.132 1.321,0.25 2,0.355 l 0,-8.044 c -0.679,-0.113 -1.347,-0.239 -2,-0.379 l 0,8.068 z" />
      <path
         inkscape:connector-curvature="0"
         id="XMLID_110_"
         style="fill:#ce9912"
         d="m 39.003,32.433 c 0.679,-0.106 1.347,-0.224 2,-0.355 l 0,-8.069 c -0.653,0.14 -1.321,0.266 -2,0.38 l 0,8.044 z" />
      <path
         inkscape:connector-curvature="0"
         id="XMLID_109_"
         style="fill:#ce9912"
         d="m 27.003,32.893 c 0.658,0.049 1.326,0.083 2,0.107 l 0,-8.003 c -0.674,-0.026 -1.342,-0.062 -2,-0.115 l 0,8.011 z" />
      <path
         inkscape:connector-curvature="0"
         id="XMLID_108_"
         style="fill:#ce9912"
         d="m 33.003,33 c 0.674,-0.025 1.342,-0.058 2,-0.107 l 0,-8.012 c -0.658,0.053 -1.326,0.089 -2,0.116 l 0,8.003 z" />
      <path
         inkscape:connector-curvature="0"
         id="XMLID_107_"
         style="fill:#fcc62d"
         d="m 57.003,12 c 0,6.932 -11.641,13 -26,13 -14.359,0 -26,-6.068 -26,-13 0,-6.932 11.641,-12 26,-12 14.359,0 26,5.068 26,12" />
      <path
         inkscape:connector-curvature="0"
         id="XMLID_106_"
         style="fill:#ffd949"
         d="m 31.003,20.966 c -13.682,0 -22,-5.31 -22,-8.966 0,-3.655 8.318,-9 22,-9 13.682,0 22,5.345 22,9 0,3.656 -8.318,8.966 -22,8.966" />
      <path
         inkscape:connector-curvature="0"
         id="XMLID_105_"
         style="fill:#f0c41b"
         d="m 37.784,13.359 c 0.82,-0.174 1.301,-0.68 1.124,-1.257 l -0.19,-0.616 C 38.579,11.033 38.038,10.655 37.375,10.467 36.473,8.54 34.173,7.842 30.757,7.842 c -0.162,0 -0.32,0.004 -0.476,0.01 C 29.115,7.9 27.952,7.788 27.045,7.456 26.675,7.321 26.374,7.18 26.175,7.033 c -0.09,-0.066 -0.308,-0.024 -0.308,0.06 0,0.146 0.011,0.319 0.043,0.511 0.124,0.747 -0.024,0.635 -0.762,1.38 -0.428,0.434 -0.769,0.934 -1.016,1.486 -0.659,0.189 -1.197,0.566 -1.336,1.017 l -0.19,0.616 c -0.177,0.577 0.304,1.083 1.124,1.257 0.234,1.476 1.237,2.772 3.424,3.486 l -0.12,1.037 c -0.032,0.277 -0.271,0.533 -0.619,0.659 l -4.411,1.592 c 2.576,0.54 5.512,0.866 8.753,0.866 3.196,0 6.095,-0.317 8.645,-0.842 L 35.087,18.545 C 34.746,18.417 34.512,18.163 34.481,17.891 L 34.36,16.846 c 2.187,-0.714 3.19,-2.011 3.424,-3.487" />
    </g>
  </g>
</svg>
