<?xml version="1.0" encoding="UTF-8" standalone="no"?>
<!-- Creator: CorelDRAW X8 -->

<svg
   xmlns:dc="http://purl.org/dc/elements/1.1/"
   xmlns:cc="http://creativecommons.org/ns#"
   xmlns:rdf="http://www.w3.org/1999/02/22-rdf-syntax-ns#"
   xmlns:svg="http://www.w3.org/2000/svg"
   xmlns="http://www.w3.org/2000/svg"
   xmlns:sodipodi="http://sodipodi.sourceforge.net/DTD/sodipodi-0.dtd"
   xmlns:inkscape="http://www.inkscape.org/namespaces/inkscape"
   xml:space="preserve"
   width="400"
   height="350"
   version="1.1"
   style="clip-rule:evenodd;fill-rule:evenodd;image-rendering:optimizeQuality;shape-rendering:geometricPrecision;text-rendering:geometricPrecision"
   viewBox="0 0 11288.889 9877.778"
   id="svg2"
   inkscape:version="0.91 r13725"
   sodipodi:docname="food2.svg"
   inkscape:export-filename="D:\OpenServer\domains\cscl-reporter\wp-content\plugins\mv-web-reporter\reports\150-golden-invoice\img\food2.png"
   inkscape:export-xdpi="90"
   inkscape:export-ydpi="90"><metadata
     id="metadata119"><rdf:RDF><cc:Work
         rdf:about=""><dc:format>image/svg+xml</dc:format><dc:type
           rdf:resource="http://purl.org/dc/dcmitype/StillImage" /><dc:title></dc:title></cc:Work></rdf:RDF></metadata><sodipodi:namedview
     pagecolor="#ffffff"
     bordercolor="#666666"
     borderopacity="1"
     objecttolerance="10"
     gridtolerance="10"
     guidetolerance="10"
     inkscape:pageopacity="0"
     inkscape:pageshadow="2"
     inkscape:window-width="1920"
     inkscape:window-height="1017"
     id="namedview117"
     showgrid="false"
     units="px"
     inkscape:zoom="1.7940591"
     inkscape:cx="284.97393"
     inkscape:cy="162.89477"
     inkscape:window-x="-8"
     inkscape:window-y="-8"
     inkscape:window-maximized="1"
     inkscape:current-layer="svg2" /><defs
     id="defs4"><style
       type="text/css"
       id="style6"><![CDATA[
    .fil20 {fill:#018736}
    .fil21 {fill:#04A22C}
    .fil24 {fill:#0A8A2F}
    .fil6 {fill:#35A927}
    .fil0 {fill:#6EB112}
    .fil27 {fill:#B70507}
    .fil2 {fill:#E60102}
    .fil11 {fill:#EA4A2A}
    .fil28 {fill:#EB1511}
    .fil23 {fill:#F2F0F2}
    .fil31 {fill:#F3B429}
    .fil25 {fill:#F7AD35}
    .fil19 {fill:#F7B539}
    .fil22 {fill:#F7F9FA}
    .fil14 {fill:#F8BC47}
    .fil16 {fill:#F9B806}
    .fil12 {fill:#FAC34B}
    .fil8 {fill:#FAC432}
    .fil30 {fill:#FAF7C8}
    .fil3 {fill:#FBBE15}
    .fil7 {fill:#FBCD49}
    .fil29 {fill:#FBFDFC}
    .fil26 {fill:#FC0001}
    .fil1 {fill:#FCCB54}
    .fil13 {fill:#FCE49C}
    .fil10 {fill:#FCE4A4}
    .fil5 {fill:#FDD460}
    .fil15 {fill:#FDEC9C}
    .fil18 {fill:#FDECCB}
    .fil17 {fill:#FDF3A8}
    .fil9 {fill:#FEE298}
    .fil4 {fill:#FEFBDA}
   ]]></style></defs><g
     id="Слой_x0020_1"
     transform="matrix(0.85291488,0,0,0.85291488,-3307.3238,-5416.5259)"><metadata
       id="CorelCorpID_0Corel-Layer" /><g
       id="_440172133536"><path
         class="fil0"
         d="m 4319,15320 c 95,89 201,199 276,266 l 258,-1 c -135,-264 -487,-557 -647,-865 -96,99 -97,101 -82,269 18,215 11,69 -10,318 l 205,13 z"
         id="path11"
         inkscape:connector-curvature="0"
         style="fill:#6eb112" /><path
         class="fil1"
         d="m 4444,15802 -176,330 c -133,123 403,522 750,604 942,422 2157,399 3435,306 l 3188,-641 c 520,-117 1007,-254 1509,-379 777,-194 2166,-561 2870,-1010 374,-239 1128,-831 641,-1377 -105,-118 -119,-80 -243,-209 -7382.4606,1759.541 -9513.901,2095.741 -11974,2376 z"
         id="path13"
         inkscape:connector-curvature="0"
         style="fill:#fccb54"
         sodipodi:nodetypes="cccccccccc" /><path
         class="fil2"
         d="m 8140,16162 c -271,427 -166,362 -238,524 l 353,96 c 577,-126 925,-177 1576,-354 l 674,-267 102,-46 c 169,-118 358,-190 502,-298 208,-156 193,-248 467,-374 l 9,-51 -221,-10 c -1658,612 -1813,615 -3224,780 z"
         id="path15"
         inkscape:connector-curvature="0"
         style="fill:#e60102" /><path
         class="fil3"
         d="m 13681,15688 c 639,-186 1240,-327 1810,-644 282,-156 538,-282 750,-474 143,-129 482,-576 280,-848 -266,-420 -860,839 -1641,1210 -479,227 -1402,281 -1792,206 -302,-58 288,355 593,550 z"
         id="path17"
         inkscape:connector-curvature="0"
         style="fill:#fbbe15" /><path
         class="fil4"
         d="m 4319,15546 533,240 -247,31 -83,1 102,91 c 245,158 1109,1191 2855,769 215,-52 524,-68 679,-422 -143,-109 -2980,-728 -3158,-727 -75,-67 -586,-120 -681,-209 -23,245 -77,78 0,226 z"
         id="path19"
         inkscape:connector-curvature="0"
         style="fill:#fefbda" /><path
         class="fil4"
         d="m 15201,14326 c -768,-18 -813,55 -1842,247 l -74,467 c 942,358 2075,-175 2458,-652 l -58.787,-130.437 z"
         id="path21"
         inkscape:connector-curvature="0"
         style="fill:#fefbda"
         sodipodi:nodetypes="cccccc" /><path
         class="fil17"
         d="m 13285,15040 c -82,-13 -145,-34 -223,-48 -42,-7 -29,-30 -103,-10 -220,60 -29,-4 -118,100 l 3,9 826,159 c 420,22 819,-32 1211,-153 492,-153 666,-387 846,-619 20,-114 55,-206 -23,-252 -479,813 -1502,902 -2419,814 z"
         id="path51"
         inkscape:connector-curvature="0"
         style="fill:#fdf3a8" /><path
         class="fil28"
         d="m 15142,14267 59,59 612,-88 c 92,-132 30,-65 156,-113 55,-113 94,-128 90,-300 -397.178,216.378 -535.558,319.315 -917,442 z"
         id="path89"
         inkscape:connector-curvature="0"
         style="fill:#eb1511"
         sodipodi:nodetypes="cccccc" /><path
         class="fil24"
         d="m 16033,13692 26,133 c 4,172 -35,187 -90,300 68,-16 155,-25 207,-83 68,-77 13,4 32,-91 l 313,-229 c -29,-281 -87,-53 -103,-296 7.31,-463.167 -396.078,112.72 -385,266 z"
         id="path73"
         inkscape:connector-curvature="0"
         style="fill:#0a8a2f"
         sodipodi:nodetypes="cccccccc" /><path
         class="fil6"
         d="m 14316,14180 -2803,805 c -96,52 -587,177 -798,216 -512,100 -980,308 -1510,390 -1084,169 -3275,286 -4270,-238 -306,-162 -332,-216 -506,-454 -72,-26 -21,-5 -90,-68 -98,-90 5,-28 -133,-111 6,387 74,-24 58,533 200,16 301,25 414,280 l 175,52 133,13 c 81,208 -35,279 202,313 102,15 371,-17 498,-17 l 91,183 249,-23 c 662,-155 744,216 1060,86 195,-80 -55,-21 224,-92 75,124 130,211 224,317 235,26 307,-6 513,-57 l 93,-146 207,-2 c 448,-127 600,82 745,-270 l 332,82 165,-183 c 1056,150 248,-124 958,-7 l 159,-104 c 85,46 20,30 49,73 l 209,-4 c 97,-90 116,-124 192,-190 97,-85 109,-78 208,-175 l 221,10 c 63,-32 57,-41 94,-73 3,-3 56,-41 60,-55 5,-20 22,-20 37,-44 l 523,130 c 115,-116 440,-253 542,-268 89,-104 -102,-40 118,-100 74,-20 61,3 103,10 78,14 141,35 223,48 l 66,-247 c 64,12 197,46 257,41 163,-13 47,-40 170,-56 50,-6 245,52 422,43 l 139,-211 c 166,-26 284,34 398,-13 153,-63 109,-133 199,-307 l 206,-23 207,-48 c -24,-173 -78,-226 145,-260 122,-18 325,-13 475,-33 l -58,-111 c -3,-20 -11,-27 -28,-59 l 150,-64 180,-45 c 83,-118 55,-63 141,-104 -60,-198 62,-317 64,-117 134,-52 172,-79 306,-110 l 0,-104 c -122,-166 13,-54 -161,-150 -14,-231 -18,-51 59,-123 l 255,-134 c -120,-178 -82,-175 -306,-185 -196,202 -1844,1191 -2255,1560 z"
         id="path25"
         inkscape:connector-curvature="0"
         style="fill:#35a927" /><path
         class="fil7"
         d="m 14325,11734 c -1797.098,991.351 -7560.079,3000.606 -9896,3165 174,238 200,292 506,454 995,524 3186,407 4270,238 530,-82 998,-290 1510,-390 l 798,-216 2803,-805 1342,-602 c 622,-325 668,-446 913,-958 l 61,-169 c -46,-53 -16,5 -66,-100 -147,-305 -384,-489 -716,-612 -214,-79 -313,-94 -576,-138 l -643,-123 c -100,149 -104,69 -153,256 z"
         id="path27"
         inkscape:connector-curvature="0"
         style="fill:#fbcd49"
         sodipodi:nodetypes="cccccccccccccccc" /><path
         class="fil8"
         d="m 5713,15327 c 1221,243 2300,199 3524,-4 224,-37 170,-70 390,-98 899,-115 2573,-580 3423,-887 l 1257,-474 c 401,-156 1483,-574 1748,-858 311,-334 162,-51 440,-480 -357,-237 -143,-600 -1074,-720 687,1005 -216,1112 -1425,1594 -1129,450 -3952,1280 -5208,1629 -944,262 -2611,185 -3075,298 z"
         id="path29"
         inkscape:connector-curvature="0"
         style="fill:#fac432" /><path
         class="fil3"
         d="m 11650,15727 c -253,77 -1482,568 -1647,708 l 101,54 c 288,-72 594,-140 902,-176 l 2451,-598 c 217,-120 93,-369 -97,-480 -201,85 -1580,450 -1710,492 z"
         id="path35"
         inkscape:connector-curvature="0"
         style="fill:#fbbe15" /><path
         class="fil11"
         d="m 8347,16160 c 36,33 29,46 90,77 411,207 1858,2 2318,-486 -29,-43 36,-27 -49,-73 l -159,104 c -710,-117 98,157 -958,7 l -165,183 -332,-82 c -145,352 -297,143 -745,270 z"
         id="path37"
         inkscape:connector-curvature="0"
         style="fill:#ea4a2a" /><path
         class="fil15"
         d="m 5172,16363 14,53 c 113,118 207,145 349,221 266,40 546,223 951,270 373,44 738,68 1094,-75 l 322,-146 c 126,-59 167,-191 238,-316 l -79,-51 c -63,114 31,42 -259,224 -121,76 -187,102 -323,135 -910,220 -1549,-78 -2277,-400 l -30,85 z"
         id="path47"
         inkscape:connector-curvature="0"
         style="fill:#fdec9c" /><path
         class="fil16"
         d="m 6026,16054 c 75,230 323,432 629,484 366,63 623,-65 879,-173 -94,-106 -149,-193 -224,-317 -279,71 -29,12 -224,92 -316,130 -398,-241 -1060,-86 z"
         id="path49"
         inkscape:connector-curvature="0"
         style="fill:#f9b806" /><path
         class="fil18"
         d="m 4615,16249 23,321 c 0,-7 -9,19 -13,28 99,120 183,245 357,292 l 36,-154 c -80,-144 -118,-212 15,-335 l 139,-38 30,-85 c -106,-185 -169,-183 -271,-405 l -307,36 -102,-91 -49,159 154,96 -12,176 z"
         id="path53"
         inkscape:connector-curvature="0"
         style="fill:#fdeccb" /><path
         class="fil20"
         d="m 11750,15630 29,110 c 447,5 224,223 785,-48 467,-225 116,-228 724,-197 l 32,-123 80,-92 215,29 c 74,-3 55,16 55,-59 l -826,-159 18,-10 c -29,522 -595,616 -1112,549 z"
         id="path57"
         inkscape:connector-curvature="0"
         style="fill:#018736" /><path
         class="fil21"
         d="m 14316,14180 c 19,11 301,45 366,59 182,-160 420,-224 612,-395 l 253,46 c 48,-52 108,-87 145,-121 119,-111 21,-68 144,-174 171,-146 476,-192 697,-718 20,-48 24,-73 43,-114 35,-76 43,-78 61,-107 -90,76 6,43 -66,-36 -245,512 -291,633 -913,958 l -1342,602 z"
         id="path59"
         inkscape:connector-curvature="0"
         style="fill:#04a22c" /><path
         class="fil22"
         d="m 11585,15392 -9,51 c 262,90 439,178 758,69 396,-135 367,-260 528,-431 l -18,10 -3,-9 c -102,15 -427,152 -542,268 l -523,-130 c -15,24 -32,24 -37,44 -4,14 -57,52 -60,55 -37,32 -31,41 -94,73 z"
         id="path63"
         inkscape:connector-curvature="0"
         style="fill:#f7f9fa" /><path
         class="fil24"
         d="m 10607,16115 -102,46 -60,117 c 92,28 484,-13 640,-72 194,-74 151,-81 274,-188 150,-130 204.997,-97.444 404.997,-158.444 -43,-124 -91.11,-162.665 -142.11,-244.665 -544.404,-32.601 -423.665,401.121 -1014.887,500.109 z"
         id="path67"
         inkscape:connector-curvature="0"
         style="fill:#0a8a2f"
         sodipodi:nodetypes="cccccccc" /><path
         class="fil23"
         d="m 10607,16115 c 246,-44 393,11 578,-120 226,-160 53,-301 400,-334 51,82 53,93 96,217 l 235,78 c 11,-171 19,-178 -137,-216 l -29,-110 -146,-70 -28,-117 c -274,126 -259,218 -467,374 -144,108 -333,180 -502,298 z"
         id="path65"
         inkscape:connector-curvature="0"
         style="fill:#f2f0f2" /><path
         class="fil16"
         d="m 14200,14821 c 216,13 428,-19 614,-99 222,-96 315,-183 387,-396 l -59,-59 -206,23 c -90,174 -46,244 -199,307 -114,47 -232,-13 -398,13 l -139,211 z"
         id="path69"
         inkscape:connector-curvature="0"
         style="fill:#f9b806" /><path
         class="fil26"
         d="m 11576,15443 28,117 146,70 c 517,67 1083,-27 1112,-549 -161,171 -132,296 -528,431 -319,109 -496,21 -758,-69 z"
         id="path75"
         inkscape:connector-curvature="0"
         style="fill:#fc0001" /><path
         class="fil22"
         d="m 7979,16650 c 316,45 478,52 737,-139 l -576,-141 -137,240 c -6,10 -16,27 -24,40 z"
         id="path77"
         inkscape:connector-curvature="0"
         style="fill:#f7f9fa" /><path
         class="fil20"
         d="m 7580,16832 c 72,142 90,184 341,145 221,-36 259,-75 334,-195 l -353,-96 -322,146 z"
         id="path79"
         inkscape:connector-curvature="0"
         style="fill:#018736" /><path
         class="fil24"
         d="m 4268,16132 c 122,-21 74,-28 183,11 167,59 -31,-5 164,106 l 12,-176 -154,-96 49,-159 83,-1 -286,-183 -112,123 c 132,242 82,106 61,375 z"
         id="path81"
         inkscape:connector-curvature="0"
         style="fill:#0a8a2f" /><path
         class="fil27"
         d="m 13320,15372 c 105,101 33,-9 56,146 24,169 -28,79 81,197 l 224,-27 c 33,-227 -3,-169 -66,-379 l -215,-29 -80,92 z"
         id="path85"
         inkscape:connector-curvature="0"
         style="fill:#b70507" /><path
         class="fil21"
         d="m 10715,15201 c 60,123 156,268 332,102 215,-203 107,-153 393,-172 l 73,-146 -798,216 z"
         id="path87"
         inkscape:connector-curvature="0"
         style="fill:#04a22c" /><path
         class="fil22"
         d="m 15349,14219 c 168,-6 213,-5 366,-73 187,-83 184,-79 254,-220 -150,20 -353,15 -475,33 -223,34 -169,87 -145,260 z"
         id="path83"
         inkscape:connector-curvature="0"
         style="fill:#f7f9fa" /><path
         class="fil22"
         d="m 9831,16428 90,130 c 49,-29 155,-77 174,-87 32,-52 -9,-27 65,-76 61,-40 50,-20 109,-44 72,-29 104,-42 176,-73 l 60,-117 -674,267 z"
         id="path91"
         inkscape:connector-curvature="0"
         style="fill:#f7f9fa" /><path
         class="fil20"
         d="m 8677,16690 c 188,73 425,-10 522,-167 -322,-9 -330,-20 -522,167 z"
         id="path93"
         inkscape:connector-curvature="0"
         style="fill:#018736" /><path
         class="fil21"
         d="m 7841,16067 c 95,-93 113,-87 124,-274 l -293,22 c 120,175 -9,158 169,252 z"
         id="path95"
         inkscape:connector-curvature="0"
         style="fill:#04a22c" /><polygon
         class="fil28"
         points="4319,15634 4605,15817 4852,15786 4319,15546 "
         id="polygon97"
         style="fill:#eb1511" /><path
         class="fil24"
         d="m 5535,16637 c -142,-76 -236,-103 -349,-221 l 5,216 c 139,41 202,75 344,5 z"
         id="path99"
         inkscape:connector-curvature="0"
         style="fill:#0a8a2f" /><path
         class="fil23"
         d="m 15969,13926 90,-101 -26,-133 -150,64 c 17,32 25,39 28,59 l 58,111 z"
         id="path101"
         inkscape:connector-curvature="0"
         style="fill:#f2f0f2" /><path
         class="fil29"
         d="m 16724,13212 c -18,-209 -11,-104 -102,-273 -77,72 -73,-108 -59,123 174,96 39,-16 161,150 z"
         id="path103"
         inkscape:connector-curvature="0"
         style="fill:#fbfdfc" /><path
         class="fil30"
         d="m 10170,11529 c 20,16 -51,67 119,54 156,-12 10,45 108,-54 l -103,-59 -124,59 z"
         id="path105"
         inkscape:connector-curvature="0"
         style="fill:#faf7c8" /><path
         class="fil14"
         d="m 12921,11679 c 161,-96 132,5 154,-173 -175,98 -113,120 -154,173 z"
         id="path107"
         inkscape:connector-curvature="0"
         style="fill:#f8bc47" /><path
         class="fil31"
         d="m 9778,12370 c 93,-76 113,-96 191,-192 -86,54 -54,12 -119,82 -61,66 -31,25 -72,110 z"
         id="path109"
         inkscape:connector-curvature="0"
         style="fill:#f3b429" /><path
         class="fil29"
         d="m 9237,12739 c 302,-52 75,28 167,-116 l -167,116 z"
         id="path111"
         inkscape:connector-curvature="0"
         style="fill:#fbfdfc" /><path
         class="fil4"
         d="m 14751,11861 c 122,98 96,83 173,26 l -173,-26 z"
         id="path113"
         inkscape:connector-curvature="0"
         style="fill:#fefbda" /><path
         class="fil14"
         d="m 11138,11835 -16,-106 c -19,19 -86,-64 -31,66 39,93 -109,107 47,40 z"
         id="path115"
         inkscape:connector-curvature="0"
         style="fill:#f8bc47" /><path
         class="fil5"
         d="m 12537,11478 -152,56 c 3,3 63,196 -199,-5 -89,100 -202,140 -381,153 -309.795,82.3 -125.737,-26.805 -254,-153 -168,-111 -299,-2 -543,2 -201,3 -409,-2 -611,-2 -98,99 48,42 -108,54 -170,13 -99,-38 -119,-54 -295,181 -31,-128 -786,419 -358.2199,207.438 -282.6615,228.744 -666,-22 6,-22 19,-26 29,-39 -368,23 -1189,304 -1506,574 -776.2261,957.832 -193.8909,-286.867 -1600,646 -252,171 -333,177 -741,484 -199,150 -677,600 -735,797 5,218 41,166 41,332 138,83 35,21 133,111 69,63 18,42 90,68 705,318 1567,224 2352,117 712,-97 1547,-343 2132,-433 118,-166 55,-58 115,-246 l 53,98 c 15,38 32,103 36,120 1039,-348 3150,-732 4043,-1332 603,-406 591,-867 765,-1088 26,-146 164,-323 217,-470 74,-114 24,-53 131,-135 -653,-296 -932,-316 -1565,-134 -141,40 -105,9 -171,82 z"
         id="path23"
         inkscape:connector-curvature="0"
         style="fill:#fdd460"
         sodipodi:nodetypes="cccccccccccccccccccccccccccccc" /><path
         class="fil9"
         d="m 9850,12260 c 65,-70 33,-28 119,-82 -78,96 -98,116 -191,192 41,-85 11,-44 72,-110 z m 1288,-425 c -156,67 -8,53 -47,-40 -55,-130 12,-47 31,-66 l 16,106 z m -1901,779 c 232,-44 554,-210 842,-286 1056,-278 710,237 1274,-738 -1366,40 -1819,58 -2116,1024 z"
         id="path31"
         inkscape:connector-curvature="0"
         style="fill:#fee298" /><path
         class="fil10"
         d="m 4857,14766 c -372,-1116 896,-777 1304,-990 l 59,-461 -257,-10 c 151,-111 89,-12 195,-84 110,-74 94,-167 101,-225 -451,53 -1506,798 -1662,1162 -135,317 75,535 260,608 z"
         id="path33"
         inkscape:connector-curvature="0"
         style="fill:#fce4a4" /><path
         class="fil13"
         d="m 12921,11679 c 41,-53 -21,-75 154,-173 -22,178 7,77 -154,173 z m -384,-201 -351,51 188,145 c -275,45 -479,294 -608,526 750,-278 1356,-719 2150,-368 l 77,-123 c 31,-61 32,-75 56,-129 -599,-105 -764,-392 -1432,-20 -394,220 -142,51 -232,-26 l 152,-56 z"
         id="path41"
         inkscape:connector-curvature="0"
         style="fill:#fce49c" /><path
         class="fil13"
         d="m 7025,13061 c 405,-151 1,55 161,-92 14,-13 53,-68 66,-81 14,-15 26,-29 38,-42 12,-13 25,-28 40,-40 -164,640 -234,-24 -333,529 461,-242 378,-437 963,-607 249,-73 165,-23 406,-623 -337,36 -888,246 -1102,526 -156,205 -137,189 -239,430 z"
         id="path43"
         inkscape:connector-curvature="0"
         style="fill:#fce49c" /><path
         class="fil14"
         d="m 11805,11682 c -101,-87 -110,-103 -254,-153 -185,356 -484,795 -572,1043 -48,134 -119,700 -75,838 142,-137 335,-661 460,-858 156,-245 445,-605 441,-870 z"
         id="path45"
         inkscape:connector-curvature="0"
         style="fill:#f8bc47" /><path
         class="fil19"
         d="m 13925,12135 -4,875 c 184,-97 28,-59 215,-176 -60,-443 169,-674 315,-1015 -243,58 -45,-3 -126,-85 10,-115 45,-17 -52,-204 -107,82 -57,21 -131,135 -23,35 -48,98 -87,164 -86,147 -99,129 -130,306 z"
         id="path55"
         inkscape:connector-curvature="0"
         style="fill:#f7b539" /><path
         class="fil12"
         d="m 9117,12142 c -101,-39 4,-68 -204,0 -37.4361,-130.103 -163.5542,-259.711 -166,-255 -10,13 -23,17 -29,39 l -104,122 c -106,87 -47,44 -172,85 51,390 -40,162 -155,463 -116,307 8,275 -52,847 -5,53 -32,-14 4,98 42,136 74,6 91,178 18,178 -150,106 146,293 -30,-634 91,-1035 503,-1497 l 285,-412 c 8,-14 18,-34 27,-51 z"
         id="path39"
         inkscape:connector-curvature="0"
         style="fill:#fac34b"
         sodipodi:nodetypes="ccccccccccccccc" /><path
         class="fil25"
         d="m 9007.5241,12178.887 c 11,-117 -54.3887,-12.585 -181.3887,-193.585 -114,37 -119.1354,25.698 -202.1354,122.698 l -216,824 c 8,175 -50.4984,225.215 24.5016,325.215 43,-121 120.5241,-516.523 267.6367,-729.832 C 8778.7843,12413.348 9014,12255 9014,12255 Z"
         id="path71"
         inkscape:connector-curvature="0"
         style="fill:#f7ad35"
         sodipodi:nodetypes="cccccacc" /><path
         class="fil12"
         d="m 6558,12806 -73,161 c -10,0 -1,3 2,16 l 95,129 c -180,281 -171,341 -36,579 l 121,203 c 125,-226 33,-298 125,-554 155,-431 67,-366 225,-433 -109,-105 37,-42 -146,-51 -183,-78 -189,-99 -313,-50 z"
         id="path61"
         inkscape:connector-curvature="0"
         style="fill:#fac34b" /></g></g></svg>