<?xml version="1.0" encoding="UTF-8" standalone="no"?>
<!-- Created with Inkscape (http://www.inkscape.org/) -->

<svg
   xmlns:dc="http://purl.org/dc/elements/1.1/"
   xmlns:cc="http://creativecommons.org/ns#"
   xmlns:rdf="http://www.w3.org/1999/02/22-rdf-syntax-ns#"
   xmlns:svg="http://www.w3.org/2000/svg"
   xmlns="http://www.w3.org/2000/svg"
   xmlns:sodipodi="http://sodipodi.sourceforge.net/DTD/sodipodi-0.dtd"
   xmlns:inkscape="http://www.inkscape.org/namespaces/inkscape"
   width="103.01111mm"
   height="98.777779mm"
   viewBox="0 0 364.99999 350"
   id="svg4166"
   version="1.1"
   inkscape:version="0.91 r13725"
   sodipodi:docname="food.svg">
  <defs
     id="defs4168">
    <style
       id="style4138"
       type="text/css"><![CDATA[
    .fil3 {fill:#EEAF4B}
    .fil1 {fill:#F1B501}
    .fil0 {fill:#F2F2F2}
    .fil2 {fill:#F4C44E}
   ]]></style>
  </defs>
  <sodipodi:namedview
     id="base"
     pagecolor="#ffffff"
     bordercolor="#666666"
     borderopacity="1.0"
     inkscape:pageopacity="0.0"
     inkscape:pageshadow="2"
     inkscape:zoom="1.4"
     inkscape:cx="25.00621"
     inkscape:cy="138.80314"
     inkscape:document-units="px"
     inkscape:current-layer="layer1"
     showgrid="false"
     fit-margin-top="0"
     fit-margin-left="0"
     fit-margin-right="0"
     fit-margin-bottom="0"
     inkscape:window-width="1920"
     inkscape:window-height="1017"
     inkscape:window-x="-8"
     inkscape:window-y="-8"
     inkscape:window-maximized="1" />
  <metadata
     id="metadata4171">
    <rdf:RDF>
      <cc:Work
         rdf:about="">
        <dc:format>image/svg+xml</dc:format>
        <dc:type
           rdf:resource="http://purl.org/dc/dcmitype/StillImage" />
        <dc:title />
      </cc:Work>
    </rdf:RDF>
  </metadata>
  <g
     inkscape:label="Layer 1"
     inkscape:groupmode="layer"
     id="layer1"
     transform="translate(-120.35712,-183.07652)">
    <g
       style="clip-rule:evenodd;fill-rule:evenodd;image-rendering:optimizeQuality;shape-rendering:geometricPrecision;text-rendering:geometricPrecision"
       id="g4160"
       transform="matrix(0.02840692,0,0,0.02840692,91.610984,60.02058)">
      <g
         id="Слой_x0020_1">
        <metadata
           id="CorelCorpID_0Corel-Layer" />
        <g
           id="_639441435936">
          <path
             id="path4143"
             d="m 10297,6980 c 2891,1990 3389,3823 3148,4983 -286,1378 -1939,1904 -3308,2814 C 8315,15987 6489,17127 4873,16451 3200,15751 2486,14643 2055,11399 1667,8479 615,6813 2307,5495 4113,4088 8318,5617 10297,6980 Z"
             class="fil0"
             inkscape:connector-curvature="0"
             style="fill:#f2f2f2" />
          <g
             id="g4145">
            <path
               id="path4147"
               d="m 2111,12844 c 0,0 155,346 657,333 503,-14 1592,-419 1592,-419 0,0 1945,-618 2474,-653 529,-35 794,-53 1147,-18 353,36 3281,900 3616,1006 335,106 811,159 1058,-177 247,-335 459,-723 -53,-1640 -511,-917 -741,-1094 -1287,-1605 -547,-512 -1905,-1200 -4040,-1182 -2134,18 -3122,670 -3422,917 -300,247 -1164,953 -1517,1588 -352,635 -652,1235 -225,1850 z"
               class="fil1"
               inkscape:connector-curvature="0"
               style="fill:#f1b501" />
            <path
               id="path4149"
               d="m 5767,8114 c -476,-35 -1270,80 -1931,490 -542,336 -1000,938 -547,1675 137,224 1199,1641 1693,2047 494,405 736,591 997,662 260,70 511,36 635,-34 123,-71 238,-196 392,-214 155,-18 490,-84 631,-18 141,67 207,181 313,221 106,40 321,107 642,54 322,-53 1162,-676 1708,-1329 547,-652 993,-1220 1112,-1508 119,-288 185,-749 -71,-1058 -256,-309 -761,-657 -1438,-856 -676,-198 -845,-145 -1189,-101 -344,44 -1933,49 -1933,49 l -1014,-80 z"
               class="fil2"
               inkscape:connector-curvature="0"
               style="fill:#f4c44e" />
            <path
               id="path4151"
               d="m 6511,7690 c 353,0 1471,-3 1718,0 247,2 716,255 761,582 44,326 -203,1120 -203,1120 0,0 -739,2827 -838,3157 -99,331 -254,627 -629,627 -374,0 -571,-151 -685,-636 -115,-485 -882,-3307 -962,-3695 -79,-388 -81,-719 160,-937 242,-218 500,-225 678,-218 z"
               class="fil3"
               inkscape:connector-curvature="0"
               style="fill:#eeaf4b" />
            <path
               id="path4153"
               d="m 6360,7691 1875,0 c -264,596 -159,1699 -949,1684 -732,-13 -692,-1073 -926,-1684 z"
               class="fil2"
               inkscape:connector-curvature="0"
               style="fill:#f4c44e" />
          </g>
        </g>
      </g>
    </g>
  </g>
</svg>
