<?xml version="1.0" encoding="UTF-8" standalone="no"?>
<!-- Created with Inkscape (http://www.inkscape.org/) -->

<svg
   xmlns:dc="http://purl.org/dc/elements/1.1/"
   xmlns:cc="http://creativecommons.org/ns#"
   xmlns:rdf="http://www.w3.org/1999/02/22-rdf-syntax-ns#"
   xmlns:svg="http://www.w3.org/2000/svg"
   xmlns="http://www.w3.org/2000/svg"
   xmlns:sodipodi="http://sodipodi.sourceforge.net/DTD/sodipodi-0.dtd"
   xmlns:inkscape="http://www.inkscape.org/namespaces/inkscape"
   width="352"
   height="350"
   viewBox="0 0 351.99999 350"
   id="svg4147"
   version="1.1"
   inkscape:version="0.91 r13725"
   sodipodi:docname="rate4.svg"
   inkscape:export-filename="D:\OpenServer\domains\cscl-reporter\wp-content\plugins\mv-web-reporter\reports\150-golden-invoice\img\rate3.png"
   inkscape:export-xdpi="90"
   inkscape:export-ydpi="90">
  <defs
     id="defs4149">
    <style
       id="style4138"
       type="text/css"><![CDATA[
    .fil5 {fill:#64DDE0}
    .fil2 {fill:#CACACD}
    .fil4 {fill:#EBEBEC}
    .fil0 {fill:#F7B934}
    .fil3 {fill:#FBD835}
    .fil1 {fill:#FD9602}
   ]]></style>
  </defs>
  <sodipodi:namedview
     id="base"
     pagecolor="#ffffff"
     bordercolor="#666666"
     borderopacity="1.0"
     inkscape:pageopacity="0.0"
     inkscape:pageshadow="2"
     inkscape:zoom="1.28"
     inkscape:cx="156.62844"
     inkscape:cy="190.83819"
     inkscape:document-units="px"
     inkscape:current-layer="layer1"
     showgrid="false"
     fit-margin-top="0"
     fit-margin-left="0"
     fit-margin-right="0"
     fit-margin-bottom="0"
     inkscape:window-width="1920"
     inkscape:window-height="1017"
     inkscape:window-x="-8"
     inkscape:window-y="-8"
     inkscape:window-maximized="1"
     units="px"
     showguides="true"
     inkscape:guide-bbox="true" />
  <metadata
     id="metadata4152">
    <rdf:RDF>
      <cc:Work
         rdf:about="">
        <dc:format>image/svg+xml</dc:format>
        <dc:type
           rdf:resource="http://purl.org/dc/dcmitype/StillImage" />
        <dc:title></dc:title>
      </cc:Work>
    </rdf:RDF>
  </metadata>
  <g
     inkscape:label="Layer 1"
     inkscape:groupmode="layer"
     id="layer1"
     transform="translate(-172.37256,-242.97848)">
    <g
       id="g4316"
       transform="translate(1.9854293,-0.21686055)"
       inkscape:export-xdpi="90"
       inkscape:export-ydpi="90">
      <g
         transform="matrix(1.0946787,0,0,1.0946787,70.460775,131.10024)"
         id="g5">
        <polygon
           id="polygon7"
           points="141.391,332.406 141.391,406.449 131.938,406.449 131.938,417.477 169.748,417.477 169.748,406.449 160.689,406.449 160.689,332.406 "
           style="fill:#2b3b4e" />
        <polygon
           id="polygon9"
           points="369.428,332.406 350.129,332.406 350.129,406.449 340.677,406.449 340.677,417.477 378.486,417.477 378.486,406.449 369.428,406.449 "
           style="fill:#2b3b4e" />
      </g>
      <polygon
         transform="matrix(1.0946787,0,0,1.0946787,70.460775,131.10024)"
         id="polygon11-9"
         points="397.785,120.123 252.062,120.123 106.338,120.123 106.338,315.077 252.062,315.077 397.785,315.077 "
         style="fill:#ffffff" />
      <g
         transform="matrix(1.0946787,0,0,1.0946787,70.460775,131.10024)"
         id="g13">
        <rect
           id="rect15"
           height="17.723"
           width="315.077"
           style="fill:#324a5e"
           y="102.4"
           x="94.523003" />
        <rect
           id="rect17"
           height="17.723"
           width="315.077"
           style="fill:#324a5e"
           y="315.077"
           x="94.523003" />
      </g>
      <path
         inkscape:connector-curvature="0"
         id="path19"
         d="m 266.62719,328.99077 c -36.64655,0 -65.96314,29.74789 -65.96314,65.96315 l 65.96314,0 0,-65.96315 z"
         style="fill:#2c9984" />
      <path
         inkscape:connector-curvature="0"
         id="path21"
         d="m 200.66405,395.38631 c 0,36.64656 29.74789,65.96315 65.96314,65.96315 l 0,-65.96315 -65.96314,0 z"
         style="fill:#ffd05b" />
      <rect
         id="rect23"
         height="46.131947"
         width="32.765923"
         style="fill:#2c9984"
         y="415.21866"
         x="359.32132" />
      <rect
         id="rect25"
         height="89.244774"
         width="32.765923"
         style="fill:#ffd05b"
         y="372.10471"
         x="403.72803" />
      <g
         transform="matrix(1.0946787,0,0,1.0946787,70.460775,131.10024)"
         id="g27">
        <rect
           id="rect29"
           height="120.911"
           width="29.931999"
           style="fill:#54c0eb"
           y="180.77499"
           x="345.009" />
        <rect
           id="rect31"
           height="12.209"
           width="67.741997"
           style="fill:#54c0eb"
           y="126.818"
           x="218.19099" />
      </g>
      <rect
         id="rect33"
         height="7.3288736"
         width="268.16562"
         style="fill:#acb3ba"
         y="298.81155"
         x="212.30377" />
      <path
         inkscape:connector-curvature="0"
         id="path35"
         d="m 332.59034,395.38631 c 0,-36.64655 -29.74789,-65.96314 -65.96315,-65.96314 l 0,65.96314 53.46083,38.80198 c 7.76017,-11.20951 12.50232,-24.57444 12.50232,-38.80198 z"
         style="fill:#324a5e" />
      <path
         inkscape:connector-curvature="0"
         id="path37"
         d="m 266.62719,395.38631 0,65.96315 c 21.98772,0 41.38871,-10.7782 53.46083,-27.16117 l -53.46083,-38.80198 z"
         style="fill:#ff7058" />
    </g>
  </g>
</svg>
