<?xml version="1.0" encoding="UTF-8" standalone="no"?>
<!-- Generator: Adobe Illustrator 19.0.0, SVG Export Plug-In . SVG Version: 6.00 Build 0)  -->

<svg
   xmlns:dc="http://purl.org/dc/elements/1.1/"
   xmlns:cc="http://creativecommons.org/ns#"
   xmlns:rdf="http://www.w3.org/1999/02/22-rdf-syntax-ns#"
   xmlns:svg="http://www.w3.org/2000/svg"
   xmlns="http://www.w3.org/2000/svg"
   xmlns:sodipodi="http://sodipodi.sourceforge.net/DTD/sodipodi-0.dtd"
   xmlns:inkscape="http://www.inkscape.org/namespaces/inkscape"
   version="1.1"
   id="Layer_1"
   x="0px"
   y="0px"
   viewBox="0 0 35 35"
   xml:space="preserve"
   inkscape:version="0.91 r13725"
   sodipodi:docname="receipt.svg"
   width="35"
   height="35"><metadata
     id="metadata57"><rdf:RDF><cc:Work
         rdf:about=""><dc:format>image/svg+xml</dc:format><dc:type
           rdf:resource="http://purl.org/dc/dcmitype/StillImage" /><dc:title></dc:title></cc:Work></rdf:RDF></metadata><defs
     id="defs55" /><sodipodi:namedview
     pagecolor="#ffffff"
     bordercolor="#666666"
     borderopacity="1"
     objecttolerance="10"
     gridtolerance="10"
     guidetolerance="10"
     inkscape:pageopacity="0"
     inkscape:pageshadow="2"
     inkscape:window-width="1920"
     inkscape:window-height="1017"
     id="namedview53"
     showgrid="false"
     inkscape:zoom="20.85965"
     inkscape:cx="24.126417"
     inkscape:cy="15.765965"
     inkscape:window-x="-8"
     inkscape:window-y="-8"
     inkscape:window-maximized="1"
     inkscape:current-layer="Layer_1" /><g
     id="g4185"
     transform="translate(-66.578775,0)"><path
       inkscape:connector-curvature="0"
       id="path3"
       d="m 94.410967,9.98e-4 c 0,0.63601439 -0.517479,1.1534255 -1.153425,1.1534255 -0.635947,0 -1.153358,-0.51741111 -1.153358,-1.1534255 l -2.282583,0 c 0,0.63601439 -0.517411,1.1534255 -1.153357,1.1534255 -0.635946,0 -1.153494,-0.51741111 -1.153494,-1.1534255 l -2.282583,0 c 0,0.63601439 -0.51748,1.1534255 -1.153426,1.1534255 -0.635946,0 -1.153425,-0.51741111 -1.153425,-1.1534255 l -2.282584,0 c 0,0.63601439 -0.517479,1.1534255 -1.153425,1.1534255 -0.635946,0 -1.153426,-0.51741111 -1.153426,-1.1534255 l -2.282515,0 c 0,0.63601439 -0.517479,1.1534255 -1.153425,1.1534255 -0.635946,0 -1.153358,-0.51741111 -1.153358,-1.1534255 l -2.282583,0 0,34.999932 2.282583,0 c 0,-0.636015 0.51748,-1.153426 1.153426,-1.153426 0.635946,0 1.153357,0.517411 1.153357,1.153426 l 2.282583,0 c 0,-0.636015 0.517412,-1.153426 1.153358,-1.153426 0.635946,0 1.153425,0.517411 1.153425,1.153426 l 2.282584,0 c 0,-0.636015 0.517479,-1.153426 1.153425,-1.153426 0.635946,0 1.153426,0.517411 1.153426,1.153426 l 2.282583,0 c 0,-0.636015 0.517479,-1.153426 1.153425,-1.153426 0.635946,0 1.153289,0.517411 1.153289,1.153426 l 2.282584,0 c 0,-0.636015 0.517479,-1.153426 1.153425,-1.153426 0.635946,0 1.153426,0.517411 1.153426,1.153426 l 2.282583,0 0,-34.999932 -2.282515,0 z"
       style="fill:#ededee" /><path
       inkscape:connector-curvature="0"
       id="path5"
       d="m 94.410967,9.98e-4 c 0,0.63601439 -0.517479,1.1534255 -1.153425,1.1534255 -0.635947,0 -1.153358,-0.51741111 -1.153358,-1.1534255 l -2.282583,0 c 0,0.63601439 -0.517411,1.1534255 -1.153357,1.1534255 -0.635946,0 -1.153494,-0.51741111 -1.153494,-1.1534255 l -2.282583,0 c 0,0.63601439 -0.51748,1.1534255 -1.153426,1.1534255 l 0,32.6931495 c 0.635946,0 1.153426,0.517411 1.153426,1.153425 l 2.282583,0 c 0,-0.636014 0.517479,-1.153425 1.153425,-1.153425 0.635946,0 1.153289,0.517411 1.153289,1.153425 l 2.282652,0 c 0,-0.636014 0.517479,-1.153425 1.153426,-1.153425 0.635946,0 1.153425,0.517411 1.153425,1.153425 l 2.282583,0 0,-35 -2.282583,0 z"
       style="fill:#dddcdf" /><g
       transform="matrix(0.06835924,0,0,0.06835924,66.578775,9.98e-4)"
       id="g7"><rect
         id="rect9"
         height="33.390999"
         width="134.278"
         style="fill:#7f7f83"
         y="102.378"
         x="149.894" /><rect
         id="rect11"
         height="33.390999"
         width="44.363998"
         style="fill:#7f7f83"
         y="102.378"
         x="317.741" /><rect
         id="rect13"
         height="33.390999"
         width="134.278"
         style="fill:#7f7f83"
         y="176.79601"
         x="149.894" /><rect
         id="rect15"
         height="33.390999"
         width="44.363998"
         style="fill:#7f7f83"
         y="176.79601"
         x="317.741" /><rect
         id="rect17"
         height="33.390999"
         width="134.278"
         style="fill:#7f7f83"
         y="251.214"
         x="149.894" /><rect
         id="rect19"
         height="33.390999"
         width="44.363998"
         style="fill:#7f7f83"
         y="251.214"
         x="317.741" /></g><rect
       id="rect21"
       height="2.2825835"
       width="9.5481453"
       style="fill:#e3744e"
       y="25.429199"
       x="81.783989" /></g><g
     id="g23"
     transform="translate(0,-477)" /><g
     id="g25"
     transform="translate(0,-477)" /><g
     id="g27"
     transform="translate(0,-477)" /><g
     id="g29"
     transform="translate(0,-477)" /><g
     id="g31"
     transform="translate(0,-477)" /><g
     id="g33"
     transform="translate(0,-477)" /><g
     id="g35"
     transform="translate(0,-477)" /><g
     id="g37"
     transform="translate(0,-477)" /><g
     id="g39"
     transform="translate(0,-477)" /><g
     id="g41"
     transform="translate(0,-477)" /><g
     id="g43"
     transform="translate(0,-477)" /><g
     id="g45"
     transform="translate(0,-477)" /><g
     id="g47"
     transform="translate(0,-477)" /><g
     id="g49"
     transform="translate(0,-477)" /><g
     id="g51"
     transform="translate(0,-477)" /></svg>