<?xml version="1.0" encoding="iso-8859-1"?>
<!-- Generator: Adobe Illustrator 19.0.0, SVG Export Plug-In . SVG Version: 6.00 Build 0)  -->
<svg version="1.1" id="Layer_1" xmlns="http://www.w3.org/2000/svg" xmlns:xlink="http://www.w3.org/1999/xlink" x="0px" y="0px"
	 viewBox="0 0 512 512" style="enable-background:new 0 0 512 512;" xml:space="preserve">
<g>
	<rect style="fill:#CC722E;" width="512" height="227.516"/>
	<rect y="227.516" style="fill:#CC722E;" width="512" height="284.484"/>
</g>
<rect x="49.66" y="44.136" style="fill:#B25719;" width="412.682" height="183.38"/>
<path style="fill:#FFD41D;" d="M46.567,227.511l36.84-16.162l0.014-0.063c5.131-23.495,24.571-41.166,48.447-44.04l0.063-0.007
	l0.002-0.004c11.734-21.023,35.503-32.302,59.209-28.094h0.002l0.022-0.022c17.359-16.664,43.366-20.506,64.801-9.572l0.036,0.018
	l0.033-0.017c21.436-10.934,47.445-7.092,64.802,9.573l0.021,0.02l0,0c23.707-4.207,47.476,7.072,59.209,28.097l0.001,0.002
	l0.06,0.007c23.876,2.875,43.316,20.547,48.447,44.042l0.013,0.06l36.839,16.161"/>
<path style="fill:#EFC71D;" d="M162.833,211.286c5.132-23.493,24.571-41.166,48.447-44.04l0.063-0.007l0.002-0.004
	c11.734-21.023,35.504-32.302,59.209-28.094h0.002l0.022-0.022c7.201-6.913,15.893-11.612,25.128-13.972
	c-13.024-3.328-27.129-1.997-39.67,4.4l-0.033,0.017l-0.036-0.018c-21.435-10.934-47.444-7.092-64.801,9.572l-0.022,0.022h-0.002
	c-23.707-4.207-47.475,7.071-59.209,28.094l-0.002,0.004l-0.063,0.007c-23.876,2.875-43.315,20.546-48.447,44.04l-0.014,0.063
	l-36.84,16.162h79.412l36.84-16.162L162.833,211.286z"/>
<polyline style="fill:#FFA91F;" points="438.589,478.562 476.884,478.562 476.884,260.941 438.589,260.941 73.418,260.941 
	35.112,260.941 35.112,478.562 73.418,478.562 "/>
<g>
	<rect x="73.415" y="227.516" style="fill:#C3D1D8;" width="67.396" height="284.484"/>
	<rect x="371.19" y="227.516" style="fill:#C3D1D8;" width="67.396" height="284.484"/>
	<path style="fill:#C3D1D8;" d="M304.904,332.611v20.208c0,2.121,0.857,4.033,2.247,5.423c1.39,1.39,3.312,2.247,5.433,2.247
		c4.232,0,7.67,3.438,7.67,7.68v25.391c0,4.242-3.438,7.68-7.67,7.68h-26.008c-2.111,0-4.033,0.857-5.423,2.247
		c-1.39,1.39-2.247,3.302-2.247,5.423c0,12.476-10.104,22.58-22.58,22.58h-0.658c-6.238,0-11.88-2.529-15.966-6.614
		c-4.086-4.086-6.614-9.728-6.614-15.966c0-4.232-3.438-7.67-7.67-7.67h-26.008c-4.232,0-7.67-3.438-7.67-7.68v-25.391
		c0-2.121,0.857-4.044,2.247-5.433c1.39-1.39,3.312-2.247,5.423-2.247c4.242,0,7.68-3.438,7.68-7.67v-20.208
		c0-2.121-0.857-4.033-2.247-5.423c-1.39-1.39-3.312-2.247-5.433-2.247c-4.232,0-7.67-3.438-7.67-7.68V291.86
		c0-4.232,3.438-7.67,7.67-7.67h113.173c4.232,0,7.67,3.438,7.67,7.67v25.401c0,2.121-0.857,4.044-2.247,5.434
		c-1.39,1.39-3.302,2.247-5.423,2.247C308.342,324.941,304.904,328.379,304.904,332.611z"/>
</g>
<path style="fill:#D9E3E8;" d="M304.904,332.611v20.208c0,2.121,0.857,4.033,2.247,5.423c1.39,1.39,3.312,2.247,5.433,2.247
	c4.232,0,7.67,3.438,7.67,7.68v25.391c0,4.242-3.438,7.68-7.67,7.68h-26.008c-2.111,0-4.033,0.857-5.423,2.247
	c-1.39,1.39-2.247,3.302-2.247,5.423c0,12.476-10.104,22.58-22.58,22.58h-0.658c-6.238,0-11.88-2.529-15.966-6.614
	c-4.086-4.086-6.614-9.728-6.614-15.966c0-4.232-3.438-7.67-7.67-7.67h-21.17l87.437-117.049h20.898c4.232,0,7.67,3.438,7.67,7.67
	v25.401c0,2.121-0.857,4.044-2.247,5.434c-1.39,1.39-3.302,2.247-5.423,2.247C308.342,324.941,304.904,328.379,304.904,332.611z"/>
<path style="fill:#333333;" d="M278.723,339.827c0-12.55-10.174-22.725-22.725-22.725c-12.551,0-22.725,10.174-22.725,22.725
	c0,7.781,3.913,14.646,9.876,18.742v19.343c0,4.768,3.865,8.632,8.632,8.632h8.434c4.767,0,8.632-3.864,8.632-8.632v-19.343
	C274.81,354.473,278.723,347.608,278.723,339.827z"/>
<g>
	<polygon style="fill:#D9E3E8;" points="438.589,329.925 438.589,511.999 371.193,511.999 371.193,420.142 	"/>
	<polygon style="fill:#D9E3E8;" points="140.806,329.925 140.806,511.999 73.41,511.999 73.41,420.142 	"/>
</g>
<g>
</g>
<g>
</g>
<g>
</g>
<g>
</g>
<g>
</g>
<g>
</g>
<g>
</g>
<g>
</g>
<g>
</g>
<g>
</g>
<g>
</g>
<g>
</g>
<g>
</g>
<g>
</g>
<g>
</g>
</svg>
