<?xml version="1.0" encoding="iso-8859-1"?>
<!-- Generator: Adobe Illustrator 19.0.0, SVG Export Plug-In . SVG Version: 6.00 Build 0)  -->
<svg version="1.1" id="Layer_1" xmlns="http://www.w3.org/2000/svg" xmlns:xlink="http://www.w3.org/1999/xlink" x="0px" y="0px"
	 viewBox="0 0 512 512" style="enable-background:new 0 0 512 512;" xml:space="preserve">
<rect y="481.067" style="fill:#ACB3BA;" width="512" height="30.933"/>
<path style="fill:#F2F2F2;" d="M356.267,512H21.333V21.333C21.333,9.6,30.933,0,42.667,0h292.267c11.733,0,21.333,9.6,21.333,21.333
	V512z"/>
<rect x="117.333" y="365.867" style="fill:#40596B;" width="142.933" height="146.133"/>
<g>
	<rect x="48" y="26.667" style="fill:#54C0EB;" width="69.333" height="69.333"/>
	<rect x="260.267" y="26.667" style="fill:#54C0EB;" width="69.333" height="69.333"/>
	<rect x="153.6" y="26.667" style="fill:#54C0EB;" width="69.333" height="69.333"/>
	<rect x="48" y="132.267" style="fill:#54C0EB;" width="69.333" height="69.333"/>
	<rect x="260.267" y="132.267" style="fill:#54C0EB;" width="69.333" height="69.333"/>
	<rect x="153.6" y="132.267" style="fill:#54C0EB;" width="69.333" height="69.333"/>
	<rect x="48" y="238.933" style="fill:#54C0EB;" width="69.333" height="69.333"/>
	<rect x="260.267" y="238.933" style="fill:#54C0EB;" width="69.333" height="69.333"/>
	<rect x="153.6" y="238.933" style="fill:#54C0EB;" width="69.333" height="69.333"/>
</g>
<rect x="356.267" y="157.867" style="fill:#CDD6E0;" width="134.4" height="354.133"/>
<rect x="388.267" y="194.133" style="fill:#54C0EB;" width="69.333" height="69.333"/>
<rect x="356.267" y="157.867" style="opacity:0.15;fill:#231F20;enable-background:new    ;" width="11.733" height="354.133"/>
<g>
	<rect x="388.267" y="299.733" style="fill:#54C0EB;" width="69.333" height="69.333"/>
	<rect x="388.267" y="406.4" style="fill:#54C0EB;" width="69.333" height="69.333"/>
</g>
<g>
</g>
<g>
</g>
<g>
</g>
<g>
</g>
<g>
</g>
<g>
</g>
<g>
</g>
<g>
</g>
<g>
</g>
<g>
</g>
<g>
</g>
<g>
</g>
<g>
</g>
<g>
</g>
<g>
</g>
</svg>
