<?xml version="1.0" encoding="UTF-8" standalone="no"?>
<!-- Generator: Adobe Illustrator 19.0.0, SVG Export Plug-In . SVG Version: 6.00 Build 0)  -->

<svg
   xmlns:dc="http://purl.org/dc/elements/1.1/"
   xmlns:cc="http://creativecommons.org/ns#"
   xmlns:rdf="http://www.w3.org/1999/02/22-rdf-syntax-ns#"
   xmlns:svg="http://www.w3.org/2000/svg"
   xmlns="http://www.w3.org/2000/svg"
   xmlns:sodipodi="http://sodipodi.sourceforge.net/DTD/sodipodi-0.dtd"
   xmlns:inkscape="http://www.inkscape.org/namespaces/inkscape"
   version="1.1"
   id="Layer_1"
   x="0px"
   y="0px"
   viewBox="0 0 366.565 366.565"
   style="enable-background:new 0 0 366.565 366.565;"
   xml:space="preserve"
   width="512"
   height="512"
   inkscape:version="0.91 r13725"
   sodipodi:docname="031-building-12.svg"><metadata
     id="metadata89"><rdf:RDF><cc:Work
         rdf:about=""><dc:format>image/svg+xml</dc:format><dc:type
           rdf:resource="http://purl.org/dc/dcmitype/StillImage" /><dc:title></dc:title></cc:Work></rdf:RDF></metadata><defs
     id="defs87" /><sodipodi:namedview
     pagecolor="#ffffff"
     bordercolor="#666666"
     borderopacity="1"
     objecttolerance="10"
     gridtolerance="10"
     guidetolerance="10"
     inkscape:pageopacity="0"
     inkscape:pageshadow="2"
     inkscape:window-width="1920"
     inkscape:window-height="1017"
     id="namedview85"
     showgrid="false"
     inkscape:zoom="0.057617188"
     inkscape:cx="-1062.2696"
     inkscape:cy="-766.59188"
     inkscape:window-x="-8"
     inkscape:window-y="-8"
     inkscape:window-maximized="1"
     inkscape:current-layer="Layer_1" /><g
     id="g3"><path
       style="fill:#F79F4B;"
       d="M285.781,366.565H80.784c-4.418,0-8-3.582-8-8V8c0-4.418,3.582-8,8-8h204.997c4.418,0,8,3.582,8,8   v350.565C293.781,362.984,290.199,366.565,285.781,366.565z"
       id="path5" /><path
       style="fill:#d45500"
       d="M184.283,366.565H80.784c-4.418,0-8-3.582-8-8V8c0-4.418,3.582-8,8-8h103.498V366.565z"
       id="path7" /><g
       id="g9"><g
         id="g11"><g
           id="g13"><path
             style="fill:#80e5ff"
             d="M128.283,102.971c-8.284,0-15-6.716-15-15v-19c0-8.284,6.716-15,15-15s15,6.716,15,15v19      C143.283,96.255,136.567,102.971,128.283,102.971z"
             id="path15" /></g><g
           id="g17"><path
             style="fill:#C6E5E4;"
             d="M184.283,102.281c-8.284,0-15-6.716-15-15v-19c0-8.284,6.716-15,15-15s15,6.716,15,15v19      C199.283,95.565,192.567,102.281,184.283,102.281z"
             id="path19" /></g><g
           id="g21"><g
             id="g23"><g
               id="g25"><path
                 style="fill:#80e5ff"
                 d="M184.004,102.278c-8.156-0.149-14.721-6.806-14.721-14.997v-19        c0-8.236,6.637-14.921,14.855-14.999L184.004,102.278z"
                 id="path27" /></g></g></g><g
           id="g29"><path
             style="fill:#C6E5E4;"
             d="M240.283,102.281c-8.284,0-15-6.716-15-15v-19c0-8.284,6.716-15,15-15s15,6.716,15,15v19      C255.283,95.565,248.567,102.281,240.283,102.281z"
             id="path31" /></g></g></g><g
       id="g33"><g
         id="g35"><g
           id="g37"><path
             style="fill:#80e5ff"
             d="M128.283,179.637c-8.284,0-15-6.716-15-15v-19c0-8.284,6.716-15,15-15s15,6.716,15,15v19      C143.283,172.922,136.567,179.637,128.283,179.637z"
             id="path39" /></g><g
           id="g41"><path
             style="fill:#C6E5E4;"
             d="M184.283,178.947c-8.284,0-15-6.716-15-15v-19c0-8.284,6.716-15,15-15s15,6.716,15,15v19      C199.283,172.232,192.567,178.947,184.283,178.947z"
             id="path43" /></g><g
           id="g45"><g
             id="g47"><g
               id="g49"><path
                 style="fill:#80e5ff"
                 d="M184.004,178.945c-8.156-0.149-14.721-6.806-14.721-14.997v-19        c0-8.236,6.637-14.921,14.855-14.999L184.004,178.945z"
                 id="path51" /></g></g></g><g
           id="g53"><path
             style="fill:#C6E5E4;"
             d="M240.283,178.947c-8.284,0-15-6.716-15-15v-19c0-8.284,6.716-15,15-15s15,6.716,15,15v19      C255.283,172.232,248.567,178.947,240.283,178.947z"
             id="path55" /></g></g></g><g
       id="g57"><g
         id="g59"><g
           id="g61"><path
             style="fill:#80e5ff"
             d="M128.283,256.304c-8.284,0-15-6.716-15-15v-19c0-8.284,6.716-15,15-15s15,6.716,15,15v19      C143.283,249.588,136.567,256.304,128.283,256.304z"
             id="path63" /></g><g
           id="g65"><path
             style="fill:#C6E5E4;"
             d="M184.283,255.614c-8.284,0-15-6.716-15-15v-19c0-8.284,6.716-15,15-15s15,6.716,15,15v19      C199.283,248.898,192.567,255.614,184.283,255.614z"
             id="path67" /></g><g
           id="g69"><g
             id="g71"><g
               id="g73"><path
                 style="fill:#80e5ff"
                 d="M184.004,255.612c-8.156-0.148-14.721-6.806-14.721-14.997v-19        c0-8.236,6.637-14.921,14.855-14.999L184.004,255.612z"
                 id="path75" /></g></g></g><g
           id="g77"><path
             style="fill:#C6E5E4;"
             d="M240.283,255.614c-8.284,0-15-6.716-15-15v-19c0-8.284,6.716-15,15-15s15,6.716,15,15v19      C255.283,248.898,248.567,255.614,240.283,255.614z"
             id="path79" /></g></g></g><path
       style="fill:#387F9E;"
       d="M158.93,366.565V329.08c0-13.922,11.286-25.207,25.207-25.207h0   c13.922,0,25.207,11.286,25.207,25.207v37.486H158.93z"
       id="path81" /><path
       style="fill:#29556E;"
       d="M158.93,366.565V329.08c0-13.922,11.286-25.207,25.207-25.207h0l0.145,62.693H158.93z"
       id="path83" /></g></svg>