<?xml version="1.0" encoding="UTF-8" standalone="no"?>
<!-- Created with Inkscape (http://www.inkscape.org/) -->

<svg
   xmlns:dc="http://purl.org/dc/elements/1.1/"
   xmlns:cc="http://creativecommons.org/ns#"
   xmlns:rdf="http://www.w3.org/1999/02/22-rdf-syntax-ns#"
   xmlns:svg="http://www.w3.org/2000/svg"
   xmlns="http://www.w3.org/2000/svg"
   xmlns:sodipodi="http://sodipodi.sourceforge.net/DTD/sodipodi-0.dtd"
   xmlns:inkscape="http://www.inkscape.org/namespaces/inkscape"
   width="352"
   height="350"
   viewBox="0 0 351.99999 350"
   id="svg4147"
   version="1.1"
   inkscape:version="0.91 r13725"
   sodipodi:docname="coffee csc.svg"
   inkscape:export-filename="D:\OpenServer\domains\cscl-reporter\wp-content\plugins\mv-web-reporter\reports\160-sales-mix\img\coffee csc.png"
   inkscape:export-xdpi="90"
   inkscape:export-ydpi="90">
  <defs
     id="defs4149">
    <style
       id="style4138"
       type="text/css"><![CDATA[
    .fil5 {fill:#64DDE0}
    .fil2 {fill:#CACACD}
    .fil4 {fill:#EBEBEC}
    .fil0 {fill:#F7B934}
    .fil3 {fill:#FBD835}
    .fil1 {fill:#FD9602}
   ]]></style>
  </defs>
  <sodipodi:namedview
     id="base"
     pagecolor="#ffffff"
     bordercolor="#666666"
     borderopacity="1.0"
     inkscape:pageopacity="0.0"
     inkscape:pageshadow="2"
     inkscape:zoom="1.4"
     inkscape:cx="85.452281"
     inkscape:cy="226.45508"
     inkscape:document-units="px"
     inkscape:current-layer="layer1"
     showgrid="false"
     fit-margin-top="0"
     fit-margin-left="0"
     fit-margin-right="0"
     fit-margin-bottom="0"
     inkscape:window-width="1920"
     inkscape:window-height="1017"
     inkscape:window-x="-8"
     inkscape:window-y="-8"
     inkscape:window-maximized="1"
     units="px" />
  <metadata
     id="metadata4152">
    <rdf:RDF>
      <cc:Work
         rdf:about="">
        <dc:format>image/svg+xml</dc:format>
        <dc:type
           rdf:resource="http://purl.org/dc/dcmitype/StillImage" />
        <dc:title></dc:title>
      </cc:Work>
    </rdf:RDF>
  </metadata>
  <g
     inkscape:label="Layer 1"
     inkscape:groupmode="layer"
     id="layer1"
     transform="translate(-172.37256,-242.97848)">
    <g
       style="clip-rule:evenodd;fill-rule:evenodd;image-rendering:optimizeQuality;shape-rendering:geometricPrecision;text-rendering:geometricPrecision"
       id="g4220"
       transform="matrix(0.04484755,0,0,0.04484755,-165.78218,-210.29576)">
      <g
         id="Слой_x0020_1">
        <metadata
           id="CorelCorpID_0Corel-Layer" />
        <g
           id="_405421350208">
          <path
             id="path4145"
             d="m 11330,11249 2126,0 c 0,-261 -77,-449 -77,-744 l -2049,0 0,744 z"
             class="fil0"
             inkscape:connector-curvature="0"
             style="fill:#773c39" />
          <path
             id="path4147"
             d="m 9397,11249 1973,0 0,-744 -1897,0 c 0,281 -76,463 -76,744 z"
             class="fil1"
             inkscape:connector-curvature="0"
             style="fill:#8b4b42" />
          <path
             id="path4149"
             d="m 11275,11947 2317,0 471,0 c -6,-254 -118,-452 -118,-721 l -510,0 -2160,0 0,721 z"
             class="fil1"
             inkscape:connector-curvature="0"
             style="fill:#8b4b42" />
          <path
             id="path4151"
             d="m 9245,11947 2125,0 0,-721 -1973,0 -417,0 c -5,235 -108,474 -114,721 l 379,0 z"
             class="fil2"
             inkscape:connector-curvature="0"
             style="fill:#9f5a4c" />
          <polygon
             id="polygon4153"
             points="9739,17561 9245,11947 13608,11947 12963,17561 "
             class="fil3"
             style="fill:#ece0dc" />
          <polygon
             id="polygon4155"
             points="11370,17561 11370,11947 13608,11947 12963,17561 "
             class="fil4"
             style="fill:#cacacd" />
          <polygon
             id="polygon4157"
             points="9289,12896 9539,15626 13228,15626 13532,12887 "
             class="fil5"
             style="fill:#534741" />
          <g
             id="g4159">
            <path
               id="path4161"
               d="m 11640,15174 c 109,30 101,76 168,165 l -123,66 c -86,35 8,7 -86,31 l 41,-262 z m -125,33 c 32,63 53,-88 30,91 -14,107 -4,33 -67,92 l -49,38 c -6,4 -21,26 -25,18 -5,-7 -17,13 -31,18 l 22,-263 120,6 z m -499,198 c 10,-114 33,-176 121,-246 l 47,123 130,-84 -79,197 c -81,-51 91,20 -69,-1 -87,-11 -2,-57 -150,11 z m -250,-272 c 208,-179 299,26 218,141 -78,110 -247,37 -218,-141 z m 1236,-113 c 28,139 9,72 92,205 -77,40 -49,33 -194,-2 61,131 50,42 23,125 -44,-31 -25,25 -97,-102 -21,-36 -29,-74 -36,-133 l 181,51 c -23,-70 -4,-53 -48,-130 l 79,-14 z m 0,0 170,-155 c 25,181 48,104 98,265 -156,-46 -91,-65 -268,-110 z m -1324,158 c -334,-95 62,-471 141,-138 -90,-30 -77,-43 -189,-44 l 48,182 z m 537,-1749 c 258,-84 461,-1 673,122 552,320 538,1315 -256,1535 -757,211 -1362,-630 -934,-1312 119,-191 240,-256 517,-345 z m 956,279 c 88,-86 106,-122 226,-137 71,109 54,28 47,167 -85,34 -188,6 -273,-30 z m -1535,-33 c -43,262 -283,169 -259,2 15,-104 37,-74 70,-102 99,170 -67,-37 34,177 154,-28 41,7 155,-77 z m 151,-119 c -201,181 -338,-5 -192,-180 143,0 185,40 192,180 z m 1313,68 c -103,-128 -111,-168 13,-269 l 126,7 c 70,149 75,227 -139,262 z m -332,-219 c 26,-111 48,-147 117,-239 35,77 61,-123 23,127 121,-49 41,-31 154,-46 -39,92 -61,167 -152,217 l 18,-135 c -144,41 -25,11 -160,76 z m -911,81 c -78,-184 -195,-194 13,-271 l -32,98 c 146,-33 50,-5 84,18 -51,131 27,37 -65,155 z m 193,-366 c 38,86 -4,-2 -1,53 l 18,61 c 9,40 7,110 -17,159 -90,-72 -44,-38 -114,-225 l 114,-48 z m 641,137 c -106,-53 -97,28 -53,-147 l 136,-2 c -29,87 -24,43 -75,69 52,58 56,42 54,130 -176,140 -166,-5 -173,-16 l 111,-34 z m -305,-198 120,3 -9,112 c -2,39 18,18 -45,62 l 82,85 -147,-2 -1,-260 z m -184,278 c -70,-154 -112,-261 89,-256 -126,153 51,97 -13,256 l -76,0 z m -757,31 c -751,874 -169,2136 870,2193 1546,85 1955,-2023 503,-2542 -455,-164 -1048,-30 -1373,349 z"
               class="fil6"
               inkscape:connector-curvature="0"
               style="fill:#13754a" />
            <path
               id="path4163"
               d="m 10939,13672 c -593,561 -170,1442 602,1323 146,-22 316,-75 415,-192 328,-385 263,-908 -141,-1204 -245,-179 -688,-105 -876,73 z"
               class="fil7"
               inkscape:connector-curvature="0"
               style="fill:#8d8328" />
            <path
               id="path4165"
               d="m 11005,13575 c 174,-150 627,-148 824,-13 176,99 341,302 376,581 18,139 5,290 -45,408 -161,380 -548,584 -955,484 -339,-84 -602,-436 -594,-796 8,-342 180,-540 394,-664 z m 210,-146 c -277,89 -398,154 -517,345 -428,682 177,1523 934,1312 794,-220 808,-1215 256,-1535 -212,-123 -415,-206 -673,-122 z"
               class="fil8"
               inkscape:connector-curvature="0"
               style="fill:#110e0e" />
            <path
               id="path4167"
               d="m 11457,14061 c 257,389 436,217 102,741 205,-71 521,-290 386,-585 -153,-332 -439,-142 -464,-586 -28,16 -53,46 -73,93 -53,124 -17,236 49,337 z"
               class="fil9"
               inkscape:connector-curvature="0"
               style="fill:#fefefe" />
            <path
               id="path4169"
               d="m 11553,14714 c 178,-731 -488,-411 -253,-1047 -141,55 -186,87 -256,224 -255,497 302,287 492,792 4,8 11,21 17,31 z"
               class="fil9"
               inkscape:connector-curvature="0"
               style="fill:#fefefe" />
            <path
               id="path4171"
               d="m 11303,14768 c 8,1 43,10 59,-8 24,-152 -154,-354 -321,-235 -27,37 254,242 262,243 z"
               class="fil10"
               inkscape:connector-curvature="0"
               style="fill:#e22625" />
            <path
               id="path4173"
               d="m 11297,14786 c -101,-74 -187,-156 -285,-228 -142,132 55,332 191,318 131,-17 89,-96 94,-90 z"
               class="fil11"
               inkscape:connector-curvature="0"
               style="fill:#191d20" />
            <path
               id="path4175"
               d="m 12002,15020 -79,14 c 44,77 25,60 48,130 l -181,-51 c 7,59 15,97 36,133 72,127 53,71 97,102 27,-83 38,6 -23,-125 145,35 117,42 194,2 -83,-133 -64,-66 -92,-205 z"
               class="fil12"
               inkscape:connector-curvature="0"
               style="fill:#f2f0f2" />
            <path
               id="path4177"
               d="m 12214,13480 c -57,90 -11,94 -132,43 54,-128 11,-148 132,-43 z m -114,144 c 214,-35 209,-113 139,-262 l -126,-7 c -124,101 -116,141 -13,269 z"
               class="fil13"
               inkscape:connector-curvature="0"
               style="fill:#f7f9fa" />
            <path
               id="path4179"
               d="m 10899,15128 c 98,129 53,87 -51,130 -51,-134 -32,-87 51,-130 z m -133,5 c -29,178 140,251 218,141 81,-115 -10,-320 -218,-141 z"
               class="fil13"
               inkscape:connector-curvature="0"
               style="fill:#f7f9fa" />
            <path
               id="path4181"
               d="m 10610,13458 c 173,-15 60,-29 118,60 -44,23 55,92 -82,26 -73,-34 -28,-2 -36,-86 z m 177,98 c -7,-140 -49,-180 -192,-180 -146,175 -9,361 192,180 z"
               class="fil13"
               inkscape:connector-curvature="0"
               style="fill:#f7f9fa" />
            <path
               id="path4183"
               d="m 11016,15405 c 148,-68 63,-22 150,-11 160,21 -12,-50 69,1 l 79,-197 -130,84 -47,-123 c -88,70 -111,132 -121,246 z"
               class="fil12"
               inkscape:connector-curvature="0"
               style="fill:#f2f0f2" />
            <path
               id="path4185"
               d="m 11768,13405 c 135,-65 16,-35 160,-76 l -18,135 c 91,-50 113,-125 152,-217 -113,15 -33,-3 -154,46 38,-250 12,-50 -23,-127 -69,92 -91,128 -117,239 z"
               class="fil13"
               inkscape:connector-curvature="0"
               style="fill:#f7f9fa" />
            <path
               id="path4187"
               d="m 12171,13708 c 85,36 188,64 273,30 7,-139 24,-58 -47,-167 -120,15 -138,51 -226,137 z"
               class="fil14"
               inkscape:connector-curvature="0"
               style="fill:#d8eae3" />
            <path
               id="path4189"
               d="m 10678,15178 -48,-182 c 112,1 99,14 189,44 -79,-333 -475,43 -141,138 z"
               class="fil13"
               inkscape:connector-curvature="0"
               style="fill:#f7f9fa" />
            <path
               id="path4191"
               d="m 11373,15464 c 14,-5 26,-25 31,-18 4,8 19,-14 25,-18 l 49,-38 c 63,-59 53,15 67,-92 23,-179 2,-28 -30,-91 l -120,-6 -22,263 z"
               class="fil12"
               inkscape:connector-curvature="0"
               style="fill:#f2f0f2" />
            <path
               id="path4193"
               d="m 10636,13675 c -114,84 -1,49 -155,77 -101,-214 65,-7 -34,-177 -33,28 -55,-2 -70,102 -24,167 216,260 259,-2 z"
               class="fil13"
               inkscape:connector-curvature="0"
               style="fill:#f7f9fa" />
            <path
               id="path4195"
               d="m 11691,13257 -111,34 c 7,11 -3,156 173,16 2,-88 -2,-72 -54,-130 51,-26 46,18 75,-69 l -136,2 c -44,175 -53,94 53,147 z"
               class="fil12"
               inkscape:connector-curvature="0"
               style="fill:#f2f0f2" />
            <path
               id="path4197"
               d="m 11599,15436 c 94,-24 0,4 86,-31 l 123,-66 c -67,-89 -59,-135 -168,-165 l -41,262 z"
               class="fil12"
               inkscape:connector-curvature="0"
               style="fill:#f2f0f2" />
            <path
               id="path4199"
               d="m 11387,13319 147,2 -82,-85 c 63,-44 43,-23 45,-62 l 9,-112 -120,-3 1,260 z"
               class="fil13"
               inkscape:connector-curvature="0"
               style="fill:#f7f9fa" />
            <path
               id="path4201"
               d="m 12002,15020 c 177,45 112,64 268,110 -50,-161 -73,-84 -98,-265 l -170,155 z"
               class="fil12"
               inkscape:connector-curvature="0"
               style="fill:#f2f0f2" />
            <path
               id="path4203"
               d="m 11202,13337 76,0 c 64,-159 -113,-103 13,-256 -201,-5 -159,102 -89,256 z"
               class="fil13"
               inkscape:connector-curvature="0"
               style="fill:#f7f9fa" />
            <path
               id="path4205"
               d="m 10857,13486 c 92,-118 14,-24 65,-155 -34,-23 62,-51 -84,-18 l 32,-98 c -208,77 -91,87 -13,271 z"
               class="fil13"
               inkscape:connector-curvature="0"
               style="fill:#f7f9fa" />
            <path
               id="path4207"
               d="m 10936,13168 c 70,187 24,153 114,225 24,-49 26,-119 17,-159 l -18,-61 c -3,-55 39,33 1,-53 l -114,48 z"
               class="fil12"
               inkscape:connector-curvature="0"
               style="fill:#f2f0f2" />
            <path
               id="path4209"
               d="m 12214,13480 c -121,-105 -78,-85 -132,43 121,51 75,47 132,-43 z"
               class="fil15"
               inkscape:connector-curvature="0"
               style="fill:#006333" />
            <path
               id="path4211"
               d="m 10848,15258 c 104,-43 149,-1 51,-130 -83,43 -102,-4 -51,130 z"
               class="fil15"
               inkscape:connector-curvature="0"
               style="fill:#006333" />
            <path
               id="path4213"
               d="m 10728,13518 c -58,-89 55,-75 -118,-60 8,84 -37,52 36,86 137,66 38,-3 82,-26 z"
               class="fil15"
               inkscape:connector-curvature="0"
               style="fill:#006333" />
          </g>
        </g>
      </g>
    </g>
  </g>
</svg>
