<?xml version="1.0" encoding="UTF-8" standalone="no"?>
<!-- Generator: Adobe Illustrator 19.0.0, SVG Export Plug-In . SVG Version: 6.00 Build 0)  -->

<svg
   xmlns:dc="http://purl.org/dc/elements/1.1/"
   xmlns:cc="http://creativecommons.org/ns#"
   xmlns:rdf="http://www.w3.org/1999/02/22-rdf-syntax-ns#"
   xmlns:svg="http://www.w3.org/2000/svg"
   xmlns="http://www.w3.org/2000/svg"
   xmlns:sodipodi="http://sodipodi.sourceforge.net/DTD/sodipodi-0.dtd"
   xmlns:inkscape="http://www.inkscape.org/namespaces/inkscape"
   version="1.1"
   id="Layer_1"
   x="0px"
   y="0px"
   viewBox="0 0 309.268 309.268"
   style="enable-background:new 0 0 309.268 309.268;"
   xml:space="preserve"
   inkscape:version="0.91 r13725"
   sodipodi:docname="inbox_green.svg"
   inkscape:export-filename="D:\03 Программирование\IDE\cscl-reporter\wp-content\plugins\mv-web-reporter\reports\119-cscl-cards-info\img\inbox_green.png"
   inkscape:export-xdpi="90"
   inkscape:export-ydpi="90"><metadata
     id="metadata47"><rdf:RDF><cc:Work
         rdf:about=""><dc:format>image/svg+xml</dc:format><dc:type
           rdf:resource="http://purl.org/dc/dcmitype/StillImage" /><dc:title /></cc:Work></rdf:RDF></metadata><defs
     id="defs45" /><sodipodi:namedview
     pagecolor="#ffffff"
     bordercolor="#666666"
     borderopacity="1"
     objecttolerance="10"
     gridtolerance="10"
     guidetolerance="10"
     inkscape:pageopacity="0"
     inkscape:pageshadow="2"
     inkscape:window-width="1920"
     inkscape:window-height="1017"
     id="namedview43"
     showgrid="false"
     inkscape:zoom="0.19077305"
     inkscape:cx="-684.28615"
     inkscape:cy="566.33591"
     inkscape:window-x="-8"
     inkscape:window-y="-8"
     inkscape:window-maximized="1"
     inkscape:current-layer="Layer_1" /><g
     id="g3"
     inkscape:export-xdpi="90"
     inkscape:export-ydpi="90"><path
       style="fill:#F4B459;"
       d="M57.988,106.312H251.28l57.988,57.988H0L57.988,106.312z"
       id="path5" /><path
       style="fill:#D07C40;"
       d="M67.652,125.641h173.963l48.323,48.323c0,0-3.866,48.323-10.631,48.323H28.027   c-5.799,0-8.698-48.323-8.698-48.323L67.652,125.641z"
       id="path7" /><path
       style="fill:#F4B459;"
       d="M212.621,164.299v19.329c0,10.631-8.698,19.329-19.329,19.329h-77.317   c-10.631,0-19.329-8.698-19.329-19.329v-19.329H0v115.975c0,10.631,8.698,19.329,19.329,19.329h270.609   c10.631,0,19.329-8.698,19.329-19.329V164.299H212.621z"
       id="path9" /><path
       style="fill:#61b325;fill-opacity:1"
       d="M210.688,77.318h-27.061V19.33c0-5.799-3.866-9.665-9.665-9.665h-38.658   c-5.799,0-9.665,3.866-9.665,9.665v57.988h-27.06c-10.631,0-14.497,6.765-9.665,15.463l56.055,55.088   c4.832,8.698,13.53,8.698,19.329,0l56.055-55.088C225.185,84.083,221.319,77.318,210.688,77.318z"
       id="path11" /></g><g
     id="g13" /><g
     id="g15" /><g
     id="g17" /><g
     id="g19" /><g
     id="g21" /><g
     id="g23" /><g
     id="g25" /><g
     id="g27" /><g
     id="g29" /><g
     id="g31" /><g
     id="g33" /><g
     id="g35" /><g
     id="g37" /><g
     id="g39" /><g
     id="g41" /></svg>