<?xml version="1.0" encoding="UTF-8" standalone="no"?>
<!-- Generator: Adobe Illustrator 19.0.0, SVG Export Plug-In . SVG Version: 6.00 Build 0)  -->

<svg
   xmlns:dc="http://purl.org/dc/elements/1.1/"
   xmlns:cc="http://creativecommons.org/ns#"
   xmlns:rdf="http://www.w3.org/1999/02/22-rdf-syntax-ns#"
   xmlns:svg="http://www.w3.org/2000/svg"
   xmlns="http://www.w3.org/2000/svg"
   xmlns:sodipodi="http://sodipodi.sourceforge.net/DTD/sodipodi-0.dtd"
   xmlns:inkscape="http://www.inkscape.org/namespaces/inkscape"
   version="1.1"
   id="Layer_1"
   x="0px"
   y="0px"
   viewBox="0 0 512 423.724"
   xml:space="preserve"
   inkscape:version="0.91 r13725"
   sodipodi:docname="jewels.svg"
   width="512"
   height="423.724"
   inkscape:export-filename="D:\Клипарт\Иконки\Reporter CSCL\jewels.png"
   inkscape:export-xdpi="90"
   inkscape:export-ydpi="90"><metadata
     id="metadata65"><rdf:RDF><cc:Work
         rdf:about=""><dc:format>image/svg+xml</dc:format><dc:type
           rdf:resource="http://purl.org/dc/dcmitype/StillImage" /><dc:title /></cc:Work></rdf:RDF></metadata><defs
     id="defs63" /><sodipodi:namedview
     pagecolor="#ffffff"
     bordercolor="#666666"
     borderopacity="1"
     objecttolerance="10"
     gridtolerance="10"
     guidetolerance="10"
     inkscape:pageopacity="0"
     inkscape:pageshadow="2"
     inkscape:window-width="1920"
     inkscape:window-height="1017"
     id="namedview61"
     showgrid="false"
     fit-margin-top="0"
     fit-margin-left="0"
     fit-margin-right="0"
     fit-margin-bottom="0"
     inkscape:zoom="0.4609375"
     inkscape:cx="-525.01694"
     inkscape:cy="211.862"
     inkscape:window-x="-8"
     inkscape:window-y="-8"
     inkscape:window-maximized="1"
     inkscape:current-layer="Layer_1" /><g
     id="g4161"
     transform="translate(35.389842,-4)"><g
       transform="matrix(0.86175843,0,0,0.86175843,0,20.539978)"
       id="g3"><polygon
         id="polygon5"
         points="256,44.138 105.931,44.138 143.448,150.069 368.552,150.069 406.069,44.138 "
         style="fill:#00d2ff" /><polygon
         id="polygon7"
         points="512,150.069 256,467.862 256,150.069 "
         style="fill:#00d2ff" /></g><g
       transform="matrix(0.86175843,0,0,0.86175843,0,20.539978)"
       id="g9"><polygon
         id="polygon11"
         points="105.931,44.138 256,44.138 256,150.069 0,150.069 "
         style="fill:#18bdf6" /><polygon
         id="polygon13"
         points="0,150.069 256,467.862 256,150.069 "
         style="fill:#18bdf6" /><polygon
         id="polygon15"
         points="406.069,44.138 256,44.138 256,150.069 512,150.069 "
         style="fill:#18bdf6" /></g><polygon
       transform="matrix(0.86175843,0,0,0.86175843,0,20.539978)"
       id="polygon17"
       points="368.527,150.069 256,44.138 143.473,150.069 256,150.069 "
       style="fill:#00d2ff" /><polygon
       transform="matrix(0.86175843,0,0,0.86175843,0,20.539978)"
       id="polygon19"
       points="256,467.862 368.552,150.069 143.448,150.069 "
       style="fill:#28aff0" /><polygon
       transform="matrix(0.86175843,0,0,0.86175843,0,20.539978)"
       id="polygon21"
       points="368.552,150.069 512,150.069 406.069,44.138 "
       style="fill:#59e2ff" /><polygon
       transform="matrix(0.86175843,0,0,0.86175843,0,20.539978)"
       id="polygon23"
       points="143.448,150.069 0,150.069 105.931,44.138 "
       style="fill:#28aff0" /><g
       transform="matrix(0.86175843,0,0,0.86175843,0,20.539978)"
       id="g25"><path
         inkscape:connector-curvature="0"
         id="path27"
         d="M 426.244,93.358 C 411.008,89.884 399.013,77.89 395.539,62.652 c -0.262,-1.148 -1.781,-1.148 -2.042,0 -3.474,15.236 -15.468,27.231 -30.705,30.706 -1.148,0.262 -1.148,1.781 0,2.042 15.236,3.474 27.231,15.467 30.705,30.705 0.262,1.148 1.781,1.148 2.042,0 3.474,-15.238 15.468,-27.231 30.705,-30.705 1.147,-0.261 1.147,-1.78 0,-2.042 z"
         style="fill:#ffffff" /><path
         inkscape:connector-curvature="0"
         id="path29"
         d="m 386.731,157.426 c -11.789,-3.053 -21.07,-12.335 -24.124,-24.124 -0.307,-1.184 -1.839,-1.184 -2.146,0 -3.053,11.789 -12.335,21.07 -24.124,24.124 -1.184,0.307 -1.184,1.839 0,2.146 11.789,3.053 21.07,12.334 24.124,24.124 0.307,1.184 1.839,1.184 2.146,0 3.053,-11.789 12.335,-21.07 24.124,-24.124 1.184,-0.307 1.184,-1.84 0,-2.146 z"
         style="fill:#ffffff" /></g></g><g
     id="g31"
     transform="translate(0,-44.138)" /><g
     id="g33"
     transform="translate(0,-44.138)" /><g
     id="g35"
     transform="translate(0,-44.138)" /><g
     id="g37"
     transform="translate(0,-44.138)" /><g
     id="g39"
     transform="translate(0,-44.138)" /><g
     id="g41"
     transform="translate(0,-44.138)" /><g
     id="g43"
     transform="translate(0,-44.138)" /><g
     id="g45"
     transform="translate(0,-44.138)" /><g
     id="g47"
     transform="translate(0,-44.138)" /><g
     id="g49"
     transform="translate(0,-44.138)" /><g
     id="g51"
     transform="translate(0,-44.138)" /><g
     id="g53"
     transform="translate(0,-44.138)" /><g
     id="g55"
     transform="translate(0,-44.138)" /><g
     id="g57"
     transform="translate(0,-44.138)" /><g
     id="g59"
     transform="translate(0,-44.138)" /></svg>