<?xml version="1.0" encoding="UTF-8" standalone="no"?>
<!-- Generator: Adobe Illustrator 19.0.0, SVG Export Plug-In . SVG Version: 6.00 Build 0)  -->

<svg
   xmlns:dc="http://purl.org/dc/elements/1.1/"
   xmlns:cc="http://creativecommons.org/ns#"
   xmlns:rdf="http://www.w3.org/1999/02/22-rdf-syntax-ns#"
   xmlns:svg="http://www.w3.org/2000/svg"
   xmlns="http://www.w3.org/2000/svg"
   xmlns:sodipodi="http://sodipodi.sourceforge.net/DTD/sodipodi-0.dtd"
   xmlns:inkscape="http://www.inkscape.org/namespaces/inkscape"
   version="1.1"
   id="Layer_1"
   x="0px"
   y="0px"
   viewBox="0 0 505.49152 553.55933"
   xml:space="preserve"
   inkscape:version="0.91 r13725"
   sodipodi:docname="outgo.svg"
   width="505.49152"
   height="553.55933"
   inkscape:export-filename="D:\Клипарт\Иконки\Reporter CSCL\outgo.png"
   inkscape:export-xdpi="90"
   inkscape:export-ydpi="90"><metadata
     id="metadata49"><rdf:RDF><cc:Work
         rdf:about=""><dc:format>image/svg+xml</dc:format><dc:type
           rdf:resource="http://purl.org/dc/dcmitype/StillImage" /><dc:title /></cc:Work></rdf:RDF></metadata><defs
     id="defs47" /><sodipodi:namedview
     pagecolor="#ffffff"
     bordercolor="#666666"
     borderopacity="1"
     objecttolerance="10"
     gridtolerance="10"
     guidetolerance="10"
     inkscape:pageopacity="0"
     inkscape:pageshadow="2"
     inkscape:window-width="1920"
     inkscape:window-height="1017"
     id="namedview45"
     showgrid="false"
     fit-margin-top="0"
     fit-margin-left="0"
     fit-margin-right="0"
     fit-margin-bottom="0"
     inkscape:zoom="0.4609375"
     inkscape:cx="69.713425"
     inkscape:cy="-112.1566"
     inkscape:window-x="-8"
     inkscape:window-y="-8"
     inkscape:window-maximized="1"
     inkscape:current-layer="Layer_1" /><path
     style="fill:#ff2a2a"
     d="m 251.66102,0 c -3.403,0 -6.804,1.038 -9.707,3.109 L 8.2150169,170.065 c -5.902,4.217 -8.40799996,11.772 -6.191,18.685 2.213,6.908 8.6420001,11.598 15.8980001,11.598 l 50.087,0 0,294.956 c 0,9.223 7.473,16.696 16.695,16.696 l 333.913003,0 c 9.223,0 16.696,-7.473 16.696,-16.696 l 0,-294.957 50.087,0 c 7.256,0 13.685,-4.69 15.896,-11.598 2.217,-6.913 -0.288,-14.467 -6.191,-18.685 L 261.36702,3.109 C 258.46502,1.039 255.06402,0 251.66102,0 Z"
     id="path3"
     inkscape:connector-curvature="0"
     inkscape:export-xdpi="90"
     inkscape:export-ydpi="90" /><path
     style="fill:#aa0000;fill-opacity:1"
     d="m 485.40002,200.348 -50.087,0 0,294.956 c 0,9.223 -7.473,16.696 -16.696,16.696 l -166.956,0 0,-512 0,0 c 3.403,0 6.804,1.038 9.707,3.109 l 233.739,166.957 c 5.902,4.217 8.408,11.772 6.191,18.685 -2.213,6.907 -8.642,11.597 -15.898,11.597 z"
     id="path5"
     inkscape:connector-curvature="0"
     inkscape:export-xdpi="90"
     inkscape:export-ydpi="90" /><g
     id="g15"
     transform="translate(-4.3389831,0)" /><g
     id="g17"
     transform="translate(-4.3389831,0)" /><g
     id="g19"
     transform="translate(-4.3389831,0)" /><g
     id="g21"
     transform="translate(-4.3389831,0)" /><g
     id="g23"
     transform="translate(-4.3389831,0)" /><g
     id="g25"
     transform="translate(-4.3389831,0)" /><g
     id="g27"
     transform="translate(-4.3389831,0)" /><g
     id="g29"
     transform="translate(-4.3389831,0)" /><g
     id="g31"
     transform="translate(-4.3389831,0)" /><g
     id="g33"
     transform="translate(-4.3389831,0)" /><g
     id="g35"
     transform="translate(-4.3389831,0)" /><g
     id="g37"
     transform="translate(-4.3389831,0)" /><g
     id="g39"
     transform="translate(-4.3389831,0)" /><g
     id="g41"
     transform="translate(-4.3389831,0)" /><g
     id="g43"
     transform="translate(-4.3389831,0)" /><rect
     style="opacity:1;fill:#ff0000;fill-opacity:1;stroke:none;stroke-width:0.1;stroke-opacity:1"
     id="rect4177"
     width="505.49152"
     height="34.711864"
     x="0"
     y="518.84747"
     ry="3"
     rx="3"
     inkscape:export-xdpi="90"
     inkscape:export-ydpi="90" /><rect
     style="opacity:1;fill:#aa0000;fill-opacity:1;stroke:none;stroke-width:0.1;stroke-opacity:1"
     id="rect4177-7"
     width="254.91524"
     height="34.711864"
     x="250.57626"
     y="518.84747"
     ry="3"
     rx="1.5128756"
     inkscape:export-xdpi="90"
     inkscape:export-ydpi="90" /></svg>