<?xml version="1.0" encoding="UTF-8" standalone="no"?>
<!-- Created with Inkscape (http://www.inkscape.org/) -->

<svg
   xmlns:dc="http://purl.org/dc/elements/1.1/"
   xmlns:cc="http://creativecommons.org/ns#"
   xmlns:rdf="http://www.w3.org/1999/02/22-rdf-syntax-ns#"
   xmlns:svg="http://www.w3.org/2000/svg"
   xmlns="http://www.w3.org/2000/svg"
   xmlns:sodipodi="http://sodipodi.sourceforge.net/DTD/sodipodi-0.dtd"
   xmlns:inkscape="http://www.inkscape.org/namespaces/inkscape"
   width="352"
   height="350"
   viewBox="0 0 351.99999 350"
   id="svg4147"
   version="1.1"
   inkscape:version="0.91 r13725"
   sodipodi:docname="rate2.svg"
   inkscape:export-filename="D:\OpenServer\domains\cscl-reporter\wp-content\plugins\mv-web-reporter\reports\150-golden-invoice\img\rate2.png"
   inkscape:export-xdpi="90"
   inkscape:export-ydpi="90">
  <defs
     id="defs4149">
    <style
       id="style4138"
       type="text/css"><![CDATA[
    .fil5 {fill:#64DDE0}
    .fil2 {fill:#CACACD}
    .fil4 {fill:#EBEBEC}
    .fil0 {fill:#F7B934}
    .fil3 {fill:#FBD835}
    .fil1 {fill:#FD9602}
   ]]></style>
  </defs>
  <sodipodi:namedview
     id="base"
     pagecolor="#ffffff"
     bordercolor="#666666"
     borderopacity="1.0"
     inkscape:pageopacity="0.0"
     inkscape:pageshadow="2"
     inkscape:zoom="1.979899"
     inkscape:cx="18.251872"
     inkscape:cy="171.70256"
     inkscape:document-units="px"
     inkscape:current-layer="layer1"
     showgrid="false"
     fit-margin-top="0"
     fit-margin-left="0"
     fit-margin-right="0"
     fit-margin-bottom="0"
     inkscape:window-width="1920"
     inkscape:window-height="1017"
     inkscape:window-x="-8"
     inkscape:window-y="-8"
     inkscape:window-maximized="1"
     units="px"
     showguides="true"
     inkscape:guide-bbox="true">
    <sodipodi:guide
       position="177.28177,196.47467"
       orientation="1,0"
       id="guide4228" />
  </sodipodi:namedview>
  <metadata
     id="metadata4152">
    <rdf:RDF>
      <cc:Work
         rdf:about="">
        <dc:format>image/svg+xml</dc:format>
        <dc:type
           rdf:resource="http://purl.org/dc/dcmitype/StillImage" />
        <dc:title />
      </cc:Work>
    </rdf:RDF>
  </metadata>
  <g
     inkscape:label="Layer 1"
     inkscape:groupmode="layer"
     id="layer1"
     transform="translate(-172.37256,-242.97848)">
    <g
       transform="matrix(1.1249277,0,0,1.2280702,-17.587074,-55.253116)"
       style="font-style:normal;font-weight:normal;font-size:332.5px;line-height:125%;font-family:sans-serif;letter-spacing:0px;word-spacing:0px;fill:#fdd460;fill-opacity:1;stroke:none;stroke-width:1px;stroke-linecap:butt;stroke-linejoin:miter;stroke-opacity:1"
       id="flowRoot4148-1">
      <path
         d="m 255.92383,382.35156 q -13.73047,-30.05859 -13.73047,-68.83789 l -47.5,0 0,17.8125 q 0,14.47266 17.44141,30.0586 17.62695,15.58593 43.78906,20.96679 z m 200.01953,-51.02539 0,-17.8125 -47.5,0 q 0,38.7793 -13.73047,68.83789 26.16211,-5.38086 43.60352,-20.96679 17.62695,-15.58594 17.62695,-30.0586 z m 23.75,-23.75 0,23.75 q 0,13.17383 -7.79297,26.5332 -7.60742,13.35938 -20.78125,24.1211 -12.98828,10.76172 -32.09961,18.18359 -18.92578,7.23633 -39.89258,8.16406 -7.79297,10.01954 -17.62695,17.62696 -7.05078,6.30859 -9.83398,13.54492 -2.59766,7.05078 -2.59766,16.51367 0,10.01953 5.56641,16.88477 5.75195,6.86523 18.18359,6.86523 13.91601,0 24.67773,8.53516 10.94727,8.34961 10.94727,21.15234 l 0,11.875 q 0,2.59766 -1.66992,4.26758 -1.66992,1.66992 -4.26758,1.66992 l -154.375,0 q -2.59766,0 -4.26758,-1.66992 -1.66992,-1.66992 -1.66992,-4.26758 l 0,-11.875 q 0,-12.80273 10.76172,-21.15234 10.94726,-8.53516 24.86328,-8.53516 12.43164,0 17.99805,-6.86523 5.75195,-6.86524 5.75195,-16.88477 0,-9.46289 -2.7832,-16.51367 -2.59766,-7.23633 -9.64844,-13.54492 -9.83399,-7.60742 -17.62695,-17.62696 -20.9668,-0.92773 -40.07813,-8.16406 -18.92578,-7.42187 -32.09961,-18.18359 -12.98828,-10.76172 -20.78125,-24.1211 -7.60742,-13.35937 -7.60742,-26.5332 l 0,-23.75 q 0,-7.42187 5.19531,-12.61719 5.19531,-5.19531 12.61719,-5.19531 l 53.4375,0 0,-17.8125 q 0,-12.24609 8.7207,-20.96679 8.72071,-8.72071 20.9668,-8.72071 l 106.875,0 q 12.24609,0 20.9668,8.72071 8.7207,8.7207 8.7207,20.96679 l 0,17.8125 53.4375,0 q 7.42187,0 12.61719,5.19531 5.19531,5.19532 5.19531,12.61719 z"
         id="path4226"
         style="" />
    </g>
    <g
       transform="matrix(1.1249277,0,0,1.2280702,-17.587074,-55.253116)"
       style="font-style:normal;font-weight:normal;font-size:332.5px;line-height:125%;font-family:sans-serif;letter-spacing:0px;word-spacing:0px;fill:#fbcb43;fill-opacity:1;stroke:none;stroke-width:1px;stroke-linecap:butt;stroke-linejoin:miter;stroke-opacity:1"
       id="flowRoot4148">
      <path
         d="m 455.94336,331.32617 0,-17.8125 -47.5,0 c 0,25.85287 -4.57682,48.79883 -13.73047,68.83789 17.44141,-3.58724 31.97591,-10.57617 43.60352,-20.96679 11.7513,-10.39063 17.62695,-20.41016 17.62695,-30.0586 z m 23.75,-23.75 0,23.75 c 0,8.78255 -2.59766,17.62695 -7.79297,26.5332 -5.07161,8.90625 -11.9987,16.94662 -20.78125,24.1211 -8.65885,7.17448 -19.35872,13.23568 -32.09961,18.18359 -12.61719,4.82422 -25.91471,7.54557 -39.89258,8.16406 -5.19531,6.67969 -11.07096,12.55535 -17.62695,17.62696 -4.70052,4.20573 -7.97851,8.7207 -9.83398,13.54492 -1.73177,4.70052 -2.59766,10.20508 -2.59766,16.51367 0,6.67969 1.85547,12.30794 5.56641,16.88477 3.83463,4.57682 9.89583,6.86523 18.18359,6.86523 9.27734,0 17.50325,2.84505 24.67773,8.53516 7.29818,5.56641 10.94727,12.61719 10.94727,21.15234 l 0,11.875 c 0,1.73177 -0.55664,3.1543 -1.66992,4.26758 -1.11328,1.11328 -2.53581,1.66992 -4.26758,1.66992 l -76.04807,0 -0.44899,-285 52.74706,0 c 8.16406,0 15.15299,2.9069 20.9668,8.72071 5.8138,5.8138 8.7207,12.80273 8.7207,20.96679 l 0,17.8125 53.4375,0 c 4.94791,0 9.15364,1.73177 12.61719,5.19531 3.46354,3.46355 5.19531,7.66928 5.19531,12.61719 z"
         id="path4240"
         inkscape:connector-curvature="0"
         sodipodi:nodetypes="sccccsssccccccscscssssccssscsss" />
    </g>
    <g
       transform="scale(0.99999611,1.0000039)"
       style="font-style:normal;font-weight:normal;font-size:104.87998199px;line-height:125%;font-family:sans-serif;letter-spacing:0px;word-spacing:0px;fill:#e9a719;fill-opacity:1;stroke:none;stroke-width:1px;stroke-linecap:butt;stroke-linejoin:miter;stroke-opacity:1"
       id="text4204">
      <path
         d="m 358.68394,331.52398 q 4.38951,4.38951 4.38951,10.59335 0,6.20383 -4.38951,10.59334 -4.38951,4.38951 -10.59335,4.38951 -6.20384,0 -10.59334,-4.38951 -4.38951,-4.38951 -4.38951,-10.59334 0,-6.20384 4.38951,-10.59335 4.3895,-4.38951 10.59334,-4.38951 6.20384,0 10.59335,4.38951 z m 5.26741,26.51263 q 6.61352,-6.61353 6.61352,-15.91928 0,-9.30576 -6.61352,-15.86076 -6.555,-6.61353 -15.86076,-6.61353 -9.30575,0 -15.91928,6.61353 -6.555,6.555 -6.555,15.86076 0,9.30575 6.555,15.91928 6.61353,6.555 15.91928,6.555 9.30576,0 15.86076,-6.555 z m 5.32594,-37.10598 q 8.77901,8.77902 8.77901,21.1867 0,12.40767 -8.77901,21.18669 -8.77902,8.77902 -21.1867,8.77902 -12.40767,0 -21.18669,-8.77902 -8.77902,-8.77902 -8.77902,-21.18669 0,-12.40768 8.77902,-21.1867 8.77902,-8.77901 21.18669,-8.77901 12.40768,0 21.1867,8.77901 z m 13.28557,35.75986 q 2.98487,-6.96468 2.98487,-14.57316 0,-7.60848 -2.98487,-14.51464 -2.98486,-6.96469 -8.01816,-11.93947 -4.97478,-5.0333 -11.93947,-8.01816 -6.90616,-2.98487 -14.51464,-2.98487 -7.60848,0 -14.57316,2.98487 -6.90616,2.98486 -11.93947,8.01816 -4.97477,4.97478 -7.95964,11.93947 -2.98486,6.90616 -2.98486,14.51464 0,7.60848 2.98486,14.57316 2.98487,6.90616 7.95964,11.93947 5.03331,4.97477 11.93947,7.95964 6.96468,2.98486 14.57316,2.98486 7.60848,0 14.51464,-2.98486 6.96469,-2.98487 11.93947,-7.95964 5.0333,-5.03331 8.01816,-11.93947 z m 4.44804,-37.10597 q 6.02826,10.30071 6.02826,22.53281 0,12.23209 -6.02826,22.59133 -6.02826,10.30071 -16.3875,16.32897 -10.30071,6.02826 -22.53281,6.02826 -12.23209,0 -22.59133,-6.02826 -10.30072,-6.02826 -16.32897,-16.32897 -6.02826,-10.35924 -6.02826,-22.59133 0,-12.2321 6.02826,-22.53281 6.02825,-10.35924 16.32897,-16.3875 10.35924,-6.02826 22.59133,-6.02826 12.2321,0 22.53281,6.02826 10.35924,6.02826 16.3875,16.3875 z"
         style=""
         id="path4144" />
    </g>
    <path
       sodipodi:type="star"
       style="opacity:1;fill:#ffffff;fill-opacity:1;stroke:none;stroke-width:0.1;stroke-opacity:1"
       id="path4208"
       sodipodi:sides="4"
       sodipodi:cx="245.98604"
       sodipodi:cy="550.53613"
       sodipodi:r1="9.9568586"
       sodipodi:r2="13.656626"
       sodipodi:arg1="-0.56810463"
       sodipodi:arg2="0.6521412"
       inkscape:flatsided="false"
       inkscape:rounded="-6.33"
       inkscape:randomized="0"
       d="m 254.3789,545.17899 c -11.65747,-86.99036 -16.45552,99.35038 2.46124,13.64521 7.50093,-33.98409 -39.99066,4.72725 -5.49696,0.10479 86.99036,-11.65746 -99.35038,-16.45552 -13.64521,2.46124 33.9841,7.50093 -4.72724,-39.99066 -0.10479,-5.49696 11.65746,86.99037 16.45552,-99.35037 -2.46124,-13.6452 -7.50093,33.98409 39.99066,-4.72725 5.49696,-0.1048 -86.99037,11.65747 99.35037,16.45552 13.6452,-2.46123 -33.98409,-7.50094 4.72725,39.99065 0.1048,5.49695 z"
       transform="matrix(0.75278463,-0.54216515,0.53747035,0.74626599,-230.28709,275.58018)" />
    <path
       sodipodi:type="star"
       style="opacity:1;fill:#ffffff;fill-opacity:1;stroke:none;stroke-width:0.1;stroke-opacity:1"
       id="path4208-9"
       sodipodi:sides="4"
       sodipodi:cx="245.98604"
       sodipodi:cy="550.53613"
       sodipodi:r1="9.9568586"
       sodipodi:r2="13.656626"
       sodipodi:arg1="-0.56810463"
       sodipodi:arg2="0.6521412"
       inkscape:flatsided="false"
       inkscape:rounded="-6.33"
       inkscape:randomized="0"
       d="m 254.3789,545.17899 c -11.65747,-86.99036 -16.45552,99.35038 2.46124,13.64521 7.50093,-33.98409 -39.99066,4.72725 -5.49696,0.10479 86.99036,-11.65746 -99.35038,-16.45552 -13.64521,2.46124 33.9841,7.50093 -4.72724,-39.99066 -0.10479,-5.49696 11.65746,86.99037 16.45552,-99.35037 -2.46124,-13.6452 -7.50093,33.98409 39.99066,-4.72725 5.49696,-0.1048 -86.99037,11.65747 99.35037,16.45552 13.6452,-2.46123 -33.98409,-7.50094 4.72725,39.99065 0.1048,5.49695 z"
       transform="matrix(0.61757283,-0.42314864,0.40056896,0.62897896,63.832935,140.17469)" />
  </g>
</svg>
