<?xml version="1.0" encoding="UTF-8" standalone="no"?>
<!-- Creator: CorelDRAW X8 -->

<svg
   xmlns:dc="http://purl.org/dc/elements/1.1/"
   xmlns:cc="http://creativecommons.org/ns#"
   xmlns:rdf="http://www.w3.org/1999/02/22-rdf-syntax-ns#"
   xmlns:svg="http://www.w3.org/2000/svg"
   xmlns="http://www.w3.org/2000/svg"
   xmlns:sodipodi="http://sodipodi.sourceforge.net/DTD/sodipodi-0.dtd"
   xmlns:inkscape="http://www.inkscape.org/namespaces/inkscape"
   xml:space="preserve"
   width="89.999992mm"
   height="89.999992mm"
   version="1.1"
   style="clip-rule:evenodd;fill-rule:evenodd;image-rendering:optimizeQuality;shape-rendering:geometricPrecision;text-rendering:geometricPrecision"
   viewBox="0 0 8999.9992 8999.9992"
   id="svg2"
   inkscape:version="0.91 r13725"
   sodipodi:docname="receipt-green.svg"
   inkscape:export-filename="D:\Клипарт\Иконки\Reporter CSCL\receipt-green"
   inkscape:export-xdpi="90"
   inkscape:export-ydpi="90"><metadata
     id="metadata25"><rdf:RDF><cc:Work
         rdf:about=""><dc:format>image/svg+xml</dc:format><dc:type
           rdf:resource="http://purl.org/dc/dcmitype/StillImage" /><dc:title /></cc:Work></rdf:RDF></metadata><sodipodi:namedview
     pagecolor="#ffffff"
     bordercolor="#666666"
     borderopacity="1"
     objecttolerance="10"
     gridtolerance="10"
     guidetolerance="10"
     inkscape:pageopacity="0"
     inkscape:pageshadow="2"
     inkscape:window-width="1920"
     inkscape:window-height="1017"
     id="namedview23"
     showgrid="false"
     fit-margin-top="0"
     fit-margin-left="0"
     fit-margin-right="0"
     fit-margin-bottom="0"
     inkscape:zoom="1.7940591"
     inkscape:cx="70.302307"
     inkscape:cy="171.35419"
     inkscape:window-x="-8"
     inkscape:window-y="-8"
     inkscape:window-maximized="1"
     inkscape:current-layer="svg2" /><defs
     id="defs4"><style
       type="text/css"
       id="style6"><![CDATA[
    .fil1 {fill:#FEFEFE}
    .fil2 {fill:#B9B9B1}
    .fil0 {fill:#DF742C}
   ]]></style></defs><g
     id="Слой_x0020_1"
     transform="translate(-6000,-10350)"
     inkscape:export-xdpi="90"
     inkscape:export-ydpi="90"><metadata
       id="CorelCorpID_0Corel-Layer" /><g
       id="_94081247504"><circle
         class="fil0"
         cx="10500"
         cy="14850"
         r="4500"
         id="circle11"
         style="fill:#29b28f;fill-opacity:1" /><path
         class="fil1"
         d="m 8519,11834 510,0 c 0,198 161,360 360,360 198,0 360,-162 360,-360 l 391,0 c 0,198 161,360 360,360 199,0 360,-162 360,-360 l 386,0 c 0,198 161,360 360,360 199,0 360,-162 360,-360 l 515,0 c 16,0 30,13 30,30 l 0,6459 c 0,17 -14,30 -30,30 l -515,0 c 0,-199 -161,-360 -360,-360 -199,0 -360,161 -360,360 l -386,0 c 0,-199 -161,-360 -360,-360 -199,0 -360,161 -360,360 l -391,0 c 0,-199 -162,-360 -360,-360 -199,0 -360,161 -360,360 l -510,0 c -16,0 -30,-13 -30,-30 l 0,-6459 c 0,-17 14,-30 30,-30 z"
         id="path13"
         inkscape:connector-curvature="0"
         style="fill:#fefefe" /><rect
         class="fil2"
         x="8991.4619"
         y="13038.848"
         width="3080"
         height="302"
         id="rect15"
         style="fill:#b9b9b1" /><rect
         class="fil2"
         x="8991.4619"
         y="13940.848"
         width="3080"
         height="302"
         id="rect17"
         style="fill:#b9b9b1" /><rect
         class="fil2"
         x="8991.4619"
         y="14967.848"
         width="3080"
         height="302"
         id="rect19"
         style="fill:#b9b9b1" /><rect
         class="fil2"
         x="11005"
         y="16546"
         width="1035"
         height="302"
         id="rect21"
         style="fill:#b9b9b1" /></g></g></svg>