<?xml version="1.0" encoding="UTF-8" standalone="no"?>
<!-- Generator: Adobe Illustrator 19.0.0, SVG Export Plug-In . SVG Version: 6.00 Build 0)  -->

<svg
   xmlns:dc="http://purl.org/dc/elements/1.1/"
   xmlns:cc="http://creativecommons.org/ns#"
   xmlns:rdf="http://www.w3.org/1999/02/22-rdf-syntax-ns#"
   xmlns:svg="http://www.w3.org/2000/svg"
   xmlns="http://www.w3.org/2000/svg"
   xmlns:sodipodi="http://sodipodi.sourceforge.net/DTD/sodipodi-0.dtd"
   xmlns:inkscape="http://www.inkscape.org/namespaces/inkscape"
   version="1.1"
   id="Layer_1"
   x="0px"
   y="0px"
   viewBox="0 0 317.987 317.987"
   style="enable-background:new 0 0 317.987 317.987;"
   xml:space="preserve"
   inkscape:version="0.91 r13725"
   sodipodi:docname="user.svg"
   inkscape:export-filename="D:\Клипарт\Иконки\Reporter CSCL\user.png"
   inkscape:export-xdpi="90"
   inkscape:export-ydpi="90"><metadata
     id="metadata193"><rdf:RDF><cc:Work
         rdf:about=""><dc:format>image/svg+xml</dc:format><dc:type
           rdf:resource="http://purl.org/dc/dcmitype/StillImage" /></cc:Work></rdf:RDF></metadata><defs
     id="defs191" /><sodipodi:namedview
     pagecolor="#ffffff"
     bordercolor="#666666"
     borderopacity="1"
     objecttolerance="10"
     gridtolerance="10"
     guidetolerance="10"
     inkscape:pageopacity="0"
     inkscape:pageshadow="2"
     inkscape:window-width="1920"
     inkscape:window-height="1017"
     id="namedview189"
     showgrid="false"
     inkscape:zoom="0.74216871"
     inkscape:cx="158.9935"
     inkscape:cy="158.9935"
     inkscape:window-x="-8"
     inkscape:window-y="-8"
     inkscape:window-maximized="1"
     inkscape:current-layer="Layer_1" /><g
     id="g3"><g
       id="g5"><path
         style="fill:#C65044;"
         d="M303.184,252.54c-11.151-37.754-67.121-33.566-91.279-44.408    c-24.157-10.842-20.386-47.219-23.449-53.548h-58.932c-3.058,6.329,0.714,42.711-23.449,53.548    c-24.157,10.842-80.133,6.655-91.279,44.408c-6.149,20.824-5.857,27.193-7.554,50.26c0,0,76.8,15.187,150.014,15.187    S310.745,302.8,310.745,302.8C309.041,279.727,309.333,273.364,303.184,252.54z"
         id="path7" /><g
         id="g9"><path
           style="fill:#EAE5DC;"
           d="M87.544,213.46c-1.838,0.382-3.721,0.753-5.643,1.124c0.646,0.41,1.411,0.658,2.237,0.658     C85.549,215.241,86.791,214.533,87.544,213.46z"
           id="path11" /><path
           style="fill:#EAE5DC;"
           d="M104.928,211.082c0,2.299,1.86,4.159,4.159,4.159s4.159-1.86,4.159-4.159s-1.86-4.159-4.159-4.159     c-0.253,0-0.5,0.028-0.742,0.067c-0.674,0.377-1.377,0.725-2.096,1.057C105.434,208.811,104.928,209.885,104.928,211.082z"
           id="path13" /><circle
           style="fill:#EAE5DC;"
           cx="134.038"
           cy="211.082"
           r="4.159"
           id="circle15" /><circle
           style="fill:#EAE5DC;"
           cx="158.982"
           cy="211.082"
           r="4.159"
           id="circle17" /><circle
           style="fill:#EAE5DC;"
           cx="183.932"
           cy="211.082"
           r="4.159"
           id="circle19" /><path
           style="fill:#EAE5DC;"
           d="M204.722,211.082c0,2.299,1.86,4.159,4.159,4.159s4.159-1.86,4.159-4.159     c0-1.203-0.517-2.288-1.332-3.046c-0.708-0.326-1.4-0.669-2.063-1.04c-0.247-0.045-0.5-0.073-0.764-0.073     C206.583,206.923,204.722,208.783,204.722,211.082z"
           id="path21" /><path
           style="fill:#EAE5DC;"
           d="M233.826,215.241c0.826,0,1.591-0.242,2.237-0.658c-1.922-0.371-3.805-0.742-5.649-1.124     C231.167,214.533,232.415,215.241,233.826,215.241z"
           id="path23" /><circle
           style="fill:#EAE5DC;"
           cx="34.244"
           cy="236.026"
           r="4.159"
           id="circle25" /><circle
           style="fill:#EAE5DC;"
           cx="59.188"
           cy="236.026"
           r="4.159"
           id="circle27" /><circle
           style="fill:#EAE5DC;"
           cx="84.138"
           cy="236.026"
           r="4.159"
           id="circle29" /><circle
           style="fill:#EAE5DC;"
           cx="109.088"
           cy="236.026"
           r="4.159"
           id="circle31" /><circle
           style="fill:#EAE5DC;"
           cx="134.038"
           cy="236.026"
           r="4.159"
           id="circle33" /><circle
           style="fill:#EAE5DC;"
           cx="158.982"
           cy="236.026"
           r="4.159"
           id="circle35" /><circle
           style="fill:#EAE5DC;"
           cx="183.932"
           cy="236.026"
           r="4.159"
           id="circle37" /><circle
           style="fill:#EAE5DC;"
           cx="208.882"
           cy="236.026"
           r="4.159"
           id="circle39" /><circle
           style="fill:#EAE5DC;"
           cx="233.826"
           cy="236.026"
           r="4.159"
           id="circle41" /><circle
           style="fill:#EAE5DC;"
           cx="258.776"
           cy="236.026"
           r="4.159"
           id="circle43" /><circle
           style="fill:#EAE5DC;"
           cx="283.727"
           cy="236.026"
           r="4.159"
           id="circle45" /><path
           style="fill:#EAE5DC;"
           d="M13.453,260.976c0-0.708-0.18-1.371-0.489-1.95c-0.511,1.917-0.961,3.71-1.36,5.413     C12.717,263.691,13.453,262.421,13.453,260.976z"
           id="path47" /><circle
           style="fill:#EAE5DC;"
           cx="34.244"
           cy="260.976"
           r="4.159"
           id="circle49" /><circle
           style="fill:#EAE5DC;"
           cx="59.188"
           cy="260.976"
           r="4.159"
           id="circle51" /><circle
           style="fill:#EAE5DC;"
           cx="84.138"
           cy="260.976"
           r="4.159"
           id="circle53" /><circle
           style="fill:#EAE5DC;"
           cx="109.088"
           cy="260.976"
           r="4.159"
           id="circle55" /><circle
           style="fill:#EAE5DC;"
           cx="134.038"
           cy="260.976"
           r="4.159"
           id="circle57" /><circle
           style="fill:#EAE5DC;"
           cx="158.982"
           cy="260.976"
           r="4.159"
           id="circle59" /><circle
           style="fill:#EAE5DC;"
           cx="183.932"
           cy="260.976"
           r="4.159"
           id="circle61" /><circle
           style="fill:#EAE5DC;"
           cx="208.882"
           cy="260.976"
           r="4.159"
           id="circle63" /><circle
           style="fill:#EAE5DC;"
           cx="233.826"
           cy="260.976"
           r="4.159"
           id="circle65" /><circle
           style="fill:#EAE5DC;"
           cx="258.776"
           cy="260.976"
           r="4.159"
           id="circle67" /><circle
           style="fill:#EAE5DC;"
           cx="283.727"
           cy="260.976"
           r="4.159"
           id="circle69" /><path
           style="fill:#EAE5DC;"
           d="M306.383,264.444c-0.399-1.714-0.854-3.513-1.371-5.441c-0.315,0.585-0.5,1.259-0.5,1.973     C304.516,262.427,305.258,263.702,306.383,264.444z"
           id="path71" /><path
           style="fill:#EAE5DC;"
           d="M13.453,285.926c0-2.299-1.86-4.159-4.159-4.159c-0.169,0-0.332,0.011-0.495,0.034     c-0.242,2.518-0.444,5.177-0.652,8.116c0.365,0.107,0.748,0.163,1.147,0.163C11.593,290.086,13.453,288.219,13.453,285.926z"
           id="path73" /><circle
           style="fill:#EAE5DC;"
           cx="34.244"
           cy="285.926"
           r="4.159"
           id="circle75" /><circle
           style="fill:#EAE5DC;"
           cx="59.188"
           cy="285.926"
           r="4.159"
           id="circle77" /><circle
           style="fill:#EAE5DC;"
           cx="84.138"
           cy="285.926"
           r="4.159"
           id="circle79" /><circle
           style="fill:#EAE5DC;"
           cx="109.088"
           cy="285.926"
           r="4.159"
           id="circle81" /><circle
           style="fill:#EAE5DC;"
           cx="134.038"
           cy="285.926"
           r="4.159"
           id="circle83" /><circle
           style="fill:#EAE5DC;"
           cx="158.982"
           cy="285.926"
           r="4.159"
           id="circle85" /><circle
           style="fill:#EAE5DC;"
           cx="183.932"
           cy="285.926"
           r="4.159"
           id="circle87" /><circle
           style="fill:#EAE5DC;"
           cx="208.882"
           cy="285.926"
           r="4.159"
           id="circle89" /><circle
           style="fill:#EAE5DC;"
           cx="233.826"
           cy="285.926"
           r="4.159"
           id="circle91" /><circle
           style="fill:#EAE5DC;"
           cx="258.776"
           cy="285.926"
           r="4.159"
           id="circle93" /><circle
           style="fill:#EAE5DC;"
           cx="283.727"
           cy="285.926"
           r="4.159"
           id="circle95" /><path
           style="fill:#EAE5DC;"
           d="M308.671,281.767c-2.299,0-4.159,1.86-4.159,4.159s1.86,4.159,4.159,4.159     c0.405,0,0.793-0.062,1.163-0.169c-0.208-2.94-0.416-5.598-0.652-8.116C309.013,281.784,308.844,281.767,308.671,281.767z"
           id="path97" /><path
           style="fill:#EAE5DC;"
           d="M32.423,307.138c1.506,0.236,3.069,0.478,4.682,0.725c-0.748-0.708-1.754-1.147-2.861-1.147     C33.586,306.717,32.973,306.869,32.423,307.138z"
           id="path99" /><path
           style="fill:#EAE5DC;"
           d="M59.188,306.717c-2.147,0-3.912,1.624-4.131,3.71c2.67,0.354,5.418,0.714,8.24,1.068     c0.028-0.202,0.051-0.41,0.051-0.618C63.347,308.577,61.487,306.717,59.188,306.717z"
           id="path101" /><path
           style="fill:#EAE5DC;"
           d="M88.297,310.876c0-2.299-1.86-4.159-4.159-4.159s-4.159,1.86-4.159,4.159     c0,1.017,0.365,1.945,0.972,2.67c1.9,0.202,3.816,0.399,5.761,0.596C87.673,313.377,88.297,312.197,88.297,310.876z"
           id="path103" /><circle
           style="fill:#EAE5DC;"
           cx="109.088"
           cy="310.876"
           r="4.159"
           id="circle105" /><circle
           style="fill:#EAE5DC;"
           cx="134.038"
           cy="310.876"
           r="4.159"
           id="circle107" /><circle
           style="fill:#EAE5DC;"
           cx="158.982"
           cy="310.876"
           r="4.159"
           id="circle109" /><circle
           style="fill:#EAE5DC;"
           cx="183.932"
           cy="310.876"
           r="4.159"
           id="circle111" /><circle
           style="fill:#EAE5DC;"
           cx="208.882"
           cy="310.876"
           r="4.159"
           id="circle113" /><path
           style="fill:#EAE5DC;"
           d="M233.826,306.717c-2.299,0-4.159,1.86-4.159,4.159c0,1.197,0.511,2.276,1.321,3.035     c2.102-0.214,4.182-0.427,6.239-0.646c0.478-0.674,0.759-1.501,0.759-2.389C237.985,308.577,236.125,306.717,233.826,306.717z"
           id="path115" /><path
           style="fill:#EAE5DC;"
           d="M258.776,306.717c-2.299,0-4.159,1.86-4.159,4.159c0,0.129,0.006,0.259,0.017,0.382     c2.822-0.348,5.57-0.697,8.24-1.051C262.553,308.229,260.844,306.717,258.776,306.717z"
           id="path117" /><path
           style="fill:#EAE5DC;"
           d="M281.085,307.661c1.45-0.214,2.855-0.427,4.221-0.635c-0.489-0.202-1.017-0.315-1.579-0.315     C282.72,306.717,281.804,307.071,281.085,307.661z"
           id="path119" /></g><path
         style="opacity:0.25;fill:#A02D2A;enable-background:new    ;"
         d="M303.184,252.54    c-11.151-37.754-67.121-33.566-91.279-44.408c-24.157-10.842-20.386-47.219-23.449-53.548H157.25c0,0-0.719,51.024,23.438,61.866    s80.133,6.655,91.279,44.408c5.857,19.83,5.868,26.552,7.324,47.073c19.234-2.816,31.442-5.126,31.442-5.126    C309.041,279.727,309.333,273.364,303.184,252.54z"
         id="path121" /><g
         id="g123"><polygon
           style="opacity:0.25;fill:#A02D2A;enable-background:new    ;"
           points="208.668,206.428 175.619,235.144      158.931,207.193    "
           id="polygon125" /><polygon
           style="opacity:0.25;fill:#A02D2A;enable-background:new    ;"
           points="108.745,206.766 142.328,235.144      158.931,207.193    "
           id="polygon127" /><path
           style="fill:#C65044;"
           d="M158.931,207.193l-38.344-16.637c0,0-3.389,4.817-11.843,16.21l31.723,22.853L158.931,207.193z"
           id="path129" /><path
           style="fill:#C65044;"
           d="M158.931,207.193l37.422-16.637c0,0,3.861,4.48,12.315,15.873l-32.195,23.191L158.931,207.193z"
           id="path131" /><path
           style="fill:#BA443E;"
           d="M196.353,190.556l-28.867,12.832c3.26,5.778,7.548,10.516,13.208,13.057     c2.799,1.253,6.02,2.31,9.555,3.249l18.419-13.265C200.215,195.035,196.353,190.556,196.353,190.556z"
           id="path133" /></g><g
         id="g135"><circle
           style="fill:#4C3626;"
           cx="158.931"
           cy="246.531"
           r="6.346"
           id="circle137" /><circle
           style="fill:#4C3626;"
           cx="158.931"
           cy="278.299"
           r="6.346"
           id="circle139" /><circle
           style="fill:#4C3626;"
           cx="158.931"
           cy="310.067"
           r="6.346"
           id="circle141" /></g><path
         style="fill:#C69E7F;"
         d="M121.594,192.18c9.78,7.959,21.24,15.85,37.338,18.132c16.137-2.288,27.569-10.342,37.36-18.334    c-8.144-14.973-5.626-32.83-7.83-37.4h-58.938C127.31,159.153,129.777,177.201,121.594,192.18z"
         id="path143" /><g
         id="g145"><path
           style="fill:#393C3D;"
           d="M91.647,125.289c0,0-28.176-36.793-9.083-58.921c0,0-2.827-66.368,77.182-66.368     c35.949,0,45.544,23.056,45.544,23.056s-0.916-6.874,4.092-7.588c0,0-1.832,4.615,0,7.796c0,0,6.363-4.851,11.775,0.635     c0,0-8.037-0.399-9.072,5.727c0,0,51.637,16.57,14.394,92.043L91.647,125.289z"
           id="path147" /><ellipse
           transform="matrix(-0.177 0.9842 -0.9842 -0.177 384.1178 -86.041)"
           style="fill:#DDB58E;"
           cx="228.033"
           cy="117.579"
           rx="21.386"
           ry="11.629"
           id="ellipse149" /><ellipse
           transform="matrix(-0.9842 0.177 -0.177 -0.9842 198.947 217.4267)"
           style="fill:#E8C59E;"
           cx="89.776"
           cy="117.587"
           rx="11.629"
           ry="21.386"
           id="ellipse151" /><path
           style="fill:#E8C59E;"
           d="M206.47,46.162c0,0-8.487,29.789-39.316,40.35c-19.076,6.537-44.763,1.731-61.574-2.878     c-8.583-2.355-17.047,3.631-17.328,12.433c0,0.124,0,0.242,0,0.36c0,44.184,8.302,101.924,70.674,110.76     c61.214-8.667,71.607-66.739,70.426-110.631C212.934,90.498,207.707,67.335,206.47,46.162z"
           id="path153" /><path
           style="fill:#DDB58E;"
           d="M229.358,96.562c-16.423-6.059-21.651-29.227-22.887-50.4c0,0-8.487,29.789-39.316,40.35     c-19.076,6.537-44.763,1.731-61.574-2.878c-8.583-2.355-17.047,3.631-17.328,12.433c0,0.062,0,0.124,0,0.185     c1.827-7.144,9.325-11.584,16.912-9.504c16.806,4.615,42.492,9.415,61.574,2.878c30.829-10.567,38.181-33.223,38.181-33.223     c1.237,21.173,7.593,37.208,24.017,43.273c0.163-0.067,0.315-0.141,0.478-0.214C229.403,98.496,229.386,97.523,229.358,96.562z"
           id="path155" /><path
           style="fill:#DDB58E;"
           d="M209.77,69.207c3.468,47.056,5.047,75.642-15.457,106.421     c-18.717,28.103-35.387,31.565-35.387,31.565l0,0c61.214-8.667,71.607-66.739,70.426-110.631     C218.926,92.712,213.013,81.96,209.77,69.207z"
           id="path157" /></g></g></g><g
     id="g159" /><g
     id="g161" /><g
     id="g163" /><g
     id="g165" /><g
     id="g167" /><g
     id="g169" /><g
     id="g171" /><g
     id="g173" /><g
     id="g175" /><g
     id="g177" /><g
     id="g179" /><g
     id="g181" /><g
     id="g183" /><g
     id="g185" /><g
     id="g187" /></svg>