<?xml version="1.0" encoding="UTF-8" standalone="no"?>
<!-- Generator: Adobe Illustrator 19.0.0, SVG Export Plug-In . SVG Version: 6.00 Build 0)  -->

<svg
   xmlns:dc="http://purl.org/dc/elements/1.1/"
   xmlns:cc="http://creativecommons.org/ns#"
   xmlns:rdf="http://www.w3.org/1999/02/22-rdf-syntax-ns#"
   xmlns:svg="http://www.w3.org/2000/svg"
   xmlns="http://www.w3.org/2000/svg"
   xmlns:sodipodi="http://sodipodi.sourceforge.net/DTD/sodipodi-0.dtd"
   xmlns:inkscape="http://www.inkscape.org/namespaces/inkscape"
   version="1.1"
   id="Layer_1"
   x="0px"
   y="0px"
   viewBox="0 0 508.609 508.609"
   style="enable-background:new 0 0 508.609 508.609;"
   xml:space="preserve"
   inkscape:version="0.91 r13725"
   sodipodi:docname="user 2.svg"
   inkscape:export-filename="D:\Клипарт\Иконки\Reporter CSCL\user 2.png"
   inkscape:export-xdpi="90"
   inkscape:export-ydpi="90"><metadata
     id="metadata53"><rdf:RDF><cc:Work
         rdf:about=""><dc:format>image/svg+xml</dc:format><dc:type
           rdf:resource="http://purl.org/dc/dcmitype/StillImage" /></cc:Work></rdf:RDF></metadata><defs
     id="defs51" /><sodipodi:namedview
     pagecolor="#ffffff"
     bordercolor="#666666"
     borderopacity="1"
     objecttolerance="10"
     gridtolerance="10"
     guidetolerance="10"
     inkscape:pageopacity="0"
     inkscape:pageshadow="2"
     inkscape:window-width="1920"
     inkscape:window-height="1017"
     id="namedview49"
     showgrid="false"
     inkscape:zoom="0.46401066"
     inkscape:cx="254.3045"
     inkscape:cy="254.3045"
     inkscape:window-x="-8"
     inkscape:window-y="-8"
     inkscape:window-maximized="1"
     inkscape:current-layer="Layer_1" /><ellipse
     style="fill:#56545F;"
     cx="254.305"
     cy="137.664"
     rx="130.882"
     ry="137.664"
     id="ellipse3" /><g
     id="g5"><circle
       style="fill:#EEB490;"
       cx="171.232"
       cy="178.013"
       r="27.465"
       id="circle7" /><circle
       style="fill:#EEB490;"
       cx="337.378"
       cy="178.013"
       r="27.465"
       id="circle9" /></g><path
     style="fill:#C19D7B;"
     d="M472.668,508.609H35.942l23.396-149.192c4.408-28.143,26.109-50.183,53.913-54.93l141.054-24.752  l141.054,24.752c27.804,5.086,49.505,27.126,53.913,54.93L472.668,508.609z"
     id="path11" /><ellipse
     style="fill:#8A6753;"
     cx="254.305"
     cy="324.493"
     rx="83.751"
     ry="59.338"
     id="ellipse13" /><path
     style="fill:#EEB490;"
     d="M302.114,294.315c0,63.746-95.619,63.746-95.619,0c0-22.718,0-45.436,0-68.493  c31.873,0,63.746,0,95.619,0C302.114,248.879,302.114,271.597,302.114,294.315z"
     id="path15" /><path
     style="fill:#FACCB4;"
     d="M298.384,86.803h-88.159c-20.683,0-37.298,16.615-37.298,37.298v96.975  c0,45.097,36.62,81.377,81.377,81.377c45.097,0,81.377-36.62,81.377-81.377v-96.975C335.682,103.417,319.068,86.803,298.384,86.803z  "
     id="path17" /><g
     id="g19" /><g
     id="g21" /><g
     id="g23" /><g
     id="g25" /><g
     id="g27" /><g
     id="g29" /><g
     id="g31" /><g
     id="g33" /><g
     id="g35" /><g
     id="g37" /><g
     id="g39" /><g
     id="g41" /><g
     id="g43" /><g
     id="g45" /><g
     id="g47" /></svg>